%TF.GenerationSoftware,KiCad,Pcbnew,(6.0.7)*%
%TF.CreationDate,2022-09-15T14:23:33+02:00*%
%TF.ProjectId,Pixelix,50697865-6c69-4782-9e6b-696361645f70,V2.0*%
%TF.SameCoordinates,PX6052340PY72894a0*%
%TF.FileFunction,Soldermask,Top*%
%TF.FilePolarity,Negative*%
%FSLAX46Y46*%
G04 Gerber Fmt 4.6, Leading zero omitted, Abs format (unit mm)*
G04 Created by KiCad (PCBNEW (6.0.7)) date 2022-09-15 14:23:33*
%MOMM*%
%LPD*%
G01*
G04 APERTURE LIST*
G04 Aperture macros list*
%AMRoundRect*
0 Rectangle with rounded corners*
0 $1 Rounding radius*
0 $2 $3 $4 $5 $6 $7 $8 $9 X,Y pos of 4 corners*
0 Add a 4 corners polygon primitive as box body*
4,1,4,$2,$3,$4,$5,$6,$7,$8,$9,$2,$3,0*
0 Add four circle primitives for the rounded corners*
1,1,$1+$1,$2,$3*
1,1,$1+$1,$4,$5*
1,1,$1+$1,$6,$7*
1,1,$1+$1,$8,$9*
0 Add four rect primitives between the rounded corners*
20,1,$1+$1,$2,$3,$4,$5,0*
20,1,$1+$1,$4,$5,$6,$7,0*
20,1,$1+$1,$6,$7,$8,$9,0*
20,1,$1+$1,$8,$9,$2,$3,0*%
G04 Aperture macros list end*
%ADD10C,0.150000*%
%ADD11RoundRect,0.050000X2.120000X1.905000X-2.120000X1.905000X-2.120000X-1.905000X2.120000X-1.905000X0*%
%ADD12C,3.100000*%
%ADD13C,1.630000*%
%ADD14RoundRect,0.050000X-0.800000X-0.800000X0.800000X-0.800000X0.800000X0.800000X-0.800000X0.800000X0*%
%ADD15C,1.700000*%
%ADD16RoundRect,0.300000X0.625000X-0.400000X0.625000X0.400000X-0.625000X0.400000X-0.625000X-0.400000X0*%
%ADD17C,0.800000*%
%ADD18C,4.500000*%
%ADD19RoundRect,0.300000X-0.412500X-0.650000X0.412500X-0.650000X0.412500X0.650000X-0.412500X0.650000X0*%
%ADD20RoundRect,0.050000X0.800000X-0.800000X0.800000X0.800000X-0.800000X0.800000X-0.800000X-0.800000X0*%
%ADD21C,1.750000*%
%ADD22RoundRect,0.050000X-1.100000X-0.600000X1.100000X-0.600000X1.100000X0.600000X-1.100000X0.600000X0*%
%ADD23RoundRect,0.050000X-3.200000X-2.900000X3.200000X-2.900000X3.200000X2.900000X-3.200000X2.900000X0*%
%ADD24RoundRect,0.050000X0.950000X0.400000X-0.950000X0.400000X-0.950000X-0.400000X0.950000X-0.400000X0*%
%ADD25RoundRect,0.050000X0.780000X-0.800000X0.780000X0.800000X-0.780000X0.800000X-0.780000X-0.800000X0*%
%ADD26RoundRect,0.050000X-0.530000X-0.250000X0.530000X-0.250000X0.530000X0.250000X-0.530000X0.250000X0*%
G04 APERTURE END LIST*
D10*
X93990476Y4547620D02*
X94561904Y4547620D01*
X94276190Y3547620D02*
X94276190Y4547620D01*
X95085714Y4547620D02*
X95276190Y4547620D01*
X95371428Y4500000D01*
X95466666Y4404762D01*
X95514285Y4214286D01*
X95514285Y3880953D01*
X95466666Y3690477D01*
X95371428Y3595239D01*
X95276190Y3547620D01*
X95085714Y3547620D01*
X94990476Y3595239D01*
X94895238Y3690477D01*
X94847619Y3880953D01*
X94847619Y4214286D01*
X94895238Y4404762D01*
X94990476Y4500000D01*
X95085714Y4547620D01*
X95942857Y3547620D02*
X95942857Y4547620D01*
X96323809Y4547620D01*
X96419047Y4500000D01*
X96466666Y4452381D01*
X96514285Y4357143D01*
X96514285Y4214286D01*
X96466666Y4119048D01*
X96419047Y4071429D01*
X96323809Y4023810D01*
X95942857Y4023810D01*
D11*
%TO.C,F1*%
X29990000Y9100000D03*
X23610000Y9100000D03*
%TD*%
D12*
%TO.C,J7*%
X49330000Y45400000D03*
D13*
X46330000Y41080000D03*
X49330000Y41080000D03*
X52330000Y41080000D03*
%TD*%
D12*
%TO.C,J1*%
X36615000Y45400000D03*
D13*
X35115000Y41080000D03*
X38115000Y41080000D03*
%TD*%
D12*
%TO.C,J8*%
X25400000Y45400000D03*
D13*
X23900000Y41080000D03*
X26900000Y41080000D03*
%TD*%
D14*
%TO.C,C2*%
X16800000Y16987500D03*
D15*
X20300000Y13487500D03*
%TD*%
D16*
%TO.C,R1*%
X32600000Y29250000D03*
X32600000Y32350000D03*
%TD*%
D17*
%TO.C,H1*%
X14950000Y4000000D03*
X18250000Y4000000D03*
X15433274Y2833274D03*
X17766726Y5166726D03*
D18*
X16600000Y4000000D03*
D17*
X15433274Y5166726D03*
X17766726Y2833274D03*
X16600000Y2350000D03*
X16600000Y5650000D03*
%TD*%
D19*
%TO.C,C1*%
X33447500Y13200000D03*
X36572500Y13200000D03*
%TD*%
D17*
%TO.C,H4*%
X83000000Y47650000D03*
X81833274Y47166726D03*
X84650000Y46000000D03*
X83000000Y44350000D03*
X81833274Y44833274D03*
D18*
X83000000Y46000000D03*
D17*
X84166726Y44833274D03*
X84166726Y47166726D03*
X81350000Y46000000D03*
%TD*%
D20*
%TO.C,A1*%
X92900000Y32052500D03*
D15*
X90360000Y32052500D03*
X87820000Y32052500D03*
X85280000Y32052500D03*
X82740000Y32052500D03*
X80200000Y32052500D03*
X77660000Y32052500D03*
X75120000Y32052500D03*
X72580000Y32052500D03*
X70040000Y32052500D03*
X67500000Y32052500D03*
X64960000Y32052500D03*
X62420000Y32052500D03*
X59880000Y32052500D03*
X57340000Y32052500D03*
X54800000Y32052500D03*
X54800000Y11732500D03*
X57340000Y11732500D03*
X59880000Y11732500D03*
X62420000Y11732500D03*
X64960000Y11732500D03*
X67500000Y11732500D03*
X70040000Y11732500D03*
X72580000Y11732500D03*
X75120000Y11732500D03*
X77660000Y11732500D03*
X80200000Y11732500D03*
X82740000Y11732500D03*
%TD*%
D17*
%TO.C,H3*%
X16600000Y47650000D03*
X15433274Y44833274D03*
X14950000Y46000000D03*
D18*
X16600000Y46000000D03*
D17*
X17766726Y47166726D03*
X18250000Y46000000D03*
X17766726Y44833274D03*
X16600000Y44350000D03*
X15433274Y47166726D03*
%TD*%
D21*
%TO.C,J5*%
X72480000Y46720000D03*
X72480000Y44180000D03*
X69940000Y46720000D03*
X69940000Y44180000D03*
X67400000Y46720000D03*
X67400000Y44180000D03*
X64860000Y46720000D03*
X64860000Y44180000D03*
X62320000Y46720000D03*
X62320000Y44180000D03*
%TD*%
D12*
%TO.C,J2*%
X4600000Y4800000D03*
D13*
X8920000Y3300000D03*
X8920000Y6300000D03*
%TD*%
D22*
%TO.C,Q2*%
X26800000Y21580000D03*
X26800000Y19300000D03*
D23*
X33100000Y19300000D03*
D22*
X26800000Y17020000D03*
%TD*%
D12*
%TO.C,J4*%
X4600000Y32700000D03*
D13*
X8920000Y31200000D03*
X8920000Y34200000D03*
%TD*%
D17*
%TO.C,H2*%
X81350000Y4000000D03*
X81833274Y2833274D03*
X83000000Y2350000D03*
X83000000Y5650000D03*
X81833274Y5166726D03*
D18*
X83000000Y4000000D03*
D17*
X84650000Y4000000D03*
X84166726Y2833274D03*
X84166726Y5166726D03*
%TD*%
D16*
%TO.C,R3*%
X24000000Y29250000D03*
X24000000Y32350000D03*
%TD*%
D12*
%TO.C,J3*%
X4600000Y18750000D03*
D13*
X8920000Y15750000D03*
X8920000Y18750000D03*
X8920000Y21750000D03*
%TD*%
D24*
%TO.C,Q1*%
X29700000Y29850000D03*
X29700000Y31750000D03*
X26700000Y30800000D03*
%TD*%
D25*
%TO.C,U1*%
X52340000Y9300000D03*
D15*
X54880000Y9300000D03*
X57420000Y9300000D03*
X59960000Y9300000D03*
X62500000Y9300000D03*
X65040000Y9300000D03*
X67580000Y9300000D03*
X70120000Y9300000D03*
X72660000Y9300000D03*
X75200000Y9300000D03*
X77740000Y9300000D03*
X80280000Y9300000D03*
X82820000Y9300000D03*
X85360000Y9300000D03*
X87900000Y9300000D03*
X90440000Y9300000D03*
X92980000Y9300000D03*
X95520000Y9300000D03*
X98060000Y9300000D03*
X52340000Y34700000D03*
X54880000Y34700000D03*
X57420000Y34700000D03*
X59960000Y34700000D03*
X62500000Y34700000D03*
X65040000Y34700000D03*
X67580000Y34700000D03*
X70120000Y34700000D03*
X72660000Y34700000D03*
X75200000Y34700000D03*
X77740000Y34700000D03*
X80280000Y34700000D03*
X82820000Y34700000D03*
X85360000Y34700000D03*
X87900000Y34700000D03*
X90440000Y34700000D03*
X92980000Y34700000D03*
X95520000Y34700000D03*
X98060000Y34700000D03*
%TD*%
D16*
%TO.C,R4*%
X24000000Y21600000D03*
X24000000Y24700000D03*
%TD*%
D12*
%TO.C,J6*%
X4600000Y45150000D03*
D13*
X8920000Y43650000D03*
X8920000Y46650000D03*
%TD*%
D26*
%TO.C,D1*%
X34120000Y10900000D03*
X36480000Y10900000D03*
%TD*%
M02*
