M48
; DRILL file {KiCad (6.0.7)} date Thu Sep 15 14:23:31 2022
; FORMAT={-:-/ absolute / metric / decimal}
; #@! TF.CreationDate,2022-09-15T14:23:31+02:00
; #@! TF.GenerationSoftware,Kicad,Pcbnew,(6.0.7)
; #@! TF.FileFunction,Plated,1,2,PTH
FMAT,2
METRIC
; #@! TA.AperFunction,Plated,PTH,ViaDrill
T1C0.400
; #@! TA.AperFunction,Plated,PTH,ComponentDrill
T2C0.400
; #@! TA.AperFunction,Plated,PTH,ViaDrill
T3C0.500
; #@! TA.AperFunction,Plated,PTH,ComponentDrill
T4C0.800
; #@! TA.AperFunction,Plated,PTH,ComponentDrill
T5C1.000
; #@! TA.AperFunction,Plated,PTH,ComponentDrill
T6C1.020
; #@! TA.AperFunction,Plated,PTH,ComponentDrill
T7C1.100
; #@! TA.AperFunction,Plated,PTH,ComponentDrill
T8C2.200
%
G90
G05
T1
X2.0Y48.1
X2.0Y42.1
X2.0Y37.1
X2.0Y32.1
X2.0Y27.1
X2.0Y22.1
X2.0Y17.1
X2.0Y12.1
X2.0Y7.1
X2.0Y2.1
X6.2Y13.4
X6.9Y21.4
X7.0Y48.1
X7.0Y2.1
X7.6Y26.9
X8.8Y38.9
X10.6Y20.6
X10.8Y43.5
X11.0Y9.7
X11.5Y32.7
X11.6Y29.5
X12.0Y2.1
X12.4Y23.1
X13.0Y48.1
X13.4Y41.7
X13.7Y37.9
X15.0Y34.7
X15.0Y32.7
X15.5Y22.4
X15.7Y19.3
X17.2Y27.9
X18.2Y23.2
X18.2Y19.3
X19.0Y12.1
X19.0Y6.1
X19.3Y38.35
X19.6Y44.2
X19.9Y41.7
X20.8Y34.7
X21.8Y32.7
X22.0Y48.1
X22.0Y2.1
X22.05Y27.35
X22.05Y23.35
X22.35Y38.35
X23.475Y30.575
X24.6Y19.2
X25.4Y14.8
X25.4Y12.3
X25.6Y5.9
X26.4Y34.55
X26.46Y29.3
X27.0Y48.1
X27.0Y2.1
X27.8Y24.95
X28.0Y12.2
X28.02Y32.97
X28.2Y35.0
X28.8Y21.0
X29.0Y18.1
X29.0Y15.3
X29.6Y6.1
X30.475Y38.35
X30.9Y44.1
X31.3Y12.6
X32.0Y48.1
X32.0Y2.1
X32.8Y41.6
X33.251Y34.99
X34.0Y26.6
X34.6Y29.1
X35.7Y33.0
X36.4Y35.6
X36.8Y9.1
X37.0Y48.1
X37.0Y6.2
X37.0Y2.1
X37.2Y38.3
X37.4Y22.9
X37.47Y11.64
X37.55Y16.8
X38.8Y24.7
X39.1Y44.1
X39.4Y29.2
X40.4Y19.7
X41.1Y36.3
X41.1Y33.0
X41.2Y12.3
X42.0Y48.1
X42.0Y2.1
X42.2Y41.8
X43.8Y25.1
X43.9Y38.0
X43.9Y29.8
X43.91Y7.21
X44.42Y18.95
X44.6Y44.1
X45.5Y15.0
X46.0Y28.8
X46.02Y27.61
X46.08Y32.89
X46.09Y18.7
X46.2Y39.59
X47.0Y48.1
X47.0Y2.1
X47.4Y23.5
X47.86Y41.41
X48.5Y39.37
X48.8Y34.4
X49.7Y5.8
X50.2Y9.1
X50.55Y28.0
X50.8Y16.8
X50.84Y41.25
X52.0Y48.1
X52.0Y2.1
X52.1Y29.9
X52.25Y11.9
X52.325Y21.7
X53.0Y37.1
X53.25Y39.81
X54.05Y21.1
X54.1Y13.65
X54.2Y25.8
X56.05Y22.55
X56.05Y16.95
X56.062Y29.976
X56.1Y10.5
X56.3Y44.4
X56.4Y40.8
X56.45Y28.05
X56.45Y27.0
X56.56Y37.376
X57.0Y48.1
X57.0Y2.1
X57.05Y36.05
X57.45Y26.7
X57.8Y30.3
X58.4Y24.0
X58.64Y35.42
X58.7Y10.5
X58.8Y16.3
X58.9Y20.6
X59.1Y27.55
X59.55Y29.55
X60.0Y44.2
X61.0Y13.6
X61.19Y35.44
X61.2Y33.4
X61.8Y18.5
X62.0Y48.1
X62.0Y2.1
X62.1Y37.376
X62.4Y27.85
X62.55Y24.35
X62.635Y29.55
X63.3Y40.17
X63.55Y43.17
X63.7Y27.7
X63.77Y14.094
X64.4Y15.9
X64.4Y5.796
X64.425Y33.4
X65.1Y30.1
X65.25Y27.7
X65.35Y20.55
X65.575Y36.0
X65.9Y14.1
X66.11Y43.15
X66.12Y39.575
X66.3Y10.5
X67.0Y48.1
X67.0Y2.1
X67.144Y30.4
X67.6Y27.5
X67.6Y23.4
X67.6Y19.3
X67.6Y15.6
X68.65Y39.575
X68.7Y43.2
X68.9Y35.94
X68.9Y33.4
X69.2Y16.9
X69.95Y13.3
X70.1Y30.0
X70.1Y25.7
X70.1Y21.8
X71.2Y39.57
X71.22Y43.2
X71.4Y10.5
X72.0Y48.1
X72.0Y35.95
X72.0Y17.2
X72.0Y2.1
X72.6Y27.5
X72.6Y24.1
X72.7Y14.124
X72.96Y40.38
X73.0Y20.9
X74.17Y38.01
X74.3Y43.2
X74.85Y14.124
X74.9Y45.9
X75.3Y23.3
X75.3Y16.7
X75.6Y27.1
X76.2Y30.3
X76.47Y8.64
X76.5Y35.4
X77.0Y48.1
X77.0Y2.1
X78.1Y15.9
X78.7Y37.934
X78.9Y13.1
X79.0Y8.659
X79.1Y30.3
X79.1Y5.8
X79.6Y44.9
X79.9Y26.2
X80.0Y41.1
X80.05Y13.5
X81.6Y20.6
X82.5Y30.1
X84.1Y35.5
X84.1Y8.524
X84.3Y15.9
X84.4Y11.5
X85.0Y13.5
X85.436Y5.8
X86.4Y25.9
X86.625Y33.975
X86.9Y37.934
X87.0Y48.1
X87.0Y2.1
X88.0Y42.1
X88.75Y11.4
X89.325Y35.7
X89.525Y8.1
X89.65Y33.425
X90.4Y29.5
X90.4Y22.5
X90.4Y15.9
X90.8Y13.5
X90.9Y5.8
X91.066Y10.841
X91.9Y38.4
X93.0Y48.1
X93.0Y29.5
X93.0Y22.5
X93.0Y15.9
X93.0Y2.1
X93.075Y12.85
X93.5Y44.8
X94.225Y8.15
X95.15Y10.8
X98.0Y48.1
X98.0Y42.1
X98.0Y37.1
X98.0Y32.1
X98.0Y27.1
X98.0Y22.1
X98.0Y17.1
X98.0Y12.1
X98.0Y7.1
X98.0Y2.1
T2
X14.95Y46.0
X14.95Y4.0
X15.433Y47.167
X15.433Y44.833
X15.433Y5.167
X15.433Y2.833
X16.6Y47.65
X16.6Y44.35
X16.6Y5.65
X16.6Y2.35
X17.767Y47.167
X17.767Y44.833
X17.767Y5.167
X17.767Y2.833
X18.25Y46.0
X18.25Y4.0
X81.35Y46.0
X81.35Y4.0
X81.833Y47.167
X81.833Y44.833
X81.833Y5.167
X81.833Y2.833
X83.0Y47.65
X83.0Y44.35
X83.0Y5.65
X83.0Y2.35
X84.167Y47.167
X84.167Y44.833
X84.167Y5.167
X84.167Y2.833
X84.65Y46.0
X84.65Y4.0
T3
X73.333Y30.233
X77.55Y14.75
T4
X16.8Y16.988
X20.3Y13.487
T5
X52.34Y34.7
X52.34Y9.3
X54.8Y32.053
X54.8Y11.732
X54.88Y34.7
X54.88Y9.3
X57.34Y32.053
X57.34Y11.732
X57.42Y34.7
X57.42Y9.3
X59.88Y32.053
X59.88Y11.732
X59.96Y34.7
X59.96Y9.3
X62.42Y32.053
X62.42Y11.732
X62.5Y34.7
X62.5Y9.3
X64.96Y32.053
X64.96Y11.732
X65.04Y34.7
X65.04Y9.3
X67.5Y32.053
X67.5Y11.732
X67.58Y34.7
X67.58Y9.3
X70.04Y32.053
X70.04Y11.732
X70.12Y34.7
X70.12Y9.3
X72.58Y32.053
X72.58Y11.732
X72.66Y34.7
X72.66Y9.3
X75.12Y32.053
X75.12Y11.732
X75.2Y34.7
X75.2Y9.3
X77.66Y32.053
X77.66Y11.732
X77.74Y34.7
X77.74Y9.3
X80.2Y32.053
X80.2Y11.732
X80.28Y34.7
X80.28Y9.3
X82.74Y32.053
X82.74Y11.732
X82.82Y34.7
X82.82Y9.3
X85.28Y32.053
X85.36Y34.7
X85.36Y9.3
X87.82Y32.053
X87.9Y34.7
X87.9Y9.3
X90.36Y32.053
X90.44Y34.7
X90.44Y9.3
X92.9Y32.053
X92.98Y34.7
X92.98Y9.3
X95.52Y34.7
X95.52Y9.3
X98.06Y34.7
X98.06Y9.3
T6
X8.92Y46.65
X8.92Y43.65
X8.92Y34.2
X8.92Y31.2
X8.92Y21.75
X8.92Y18.75
X8.92Y15.75
X8.92Y6.3
X8.92Y3.3
X23.9Y41.08
X26.9Y41.08
X35.115Y41.08
X38.115Y41.08
X46.33Y41.08
X49.33Y41.08
X52.33Y41.08
T7
X62.32Y46.72
X62.32Y44.18
X64.86Y46.72
X64.86Y44.18
X67.4Y46.72
X67.4Y44.18
X69.94Y46.72
X69.94Y44.18
X72.48Y46.72
X72.48Y44.18
T8
X16.6Y46.0
X16.6Y4.0
X83.0Y46.0
X83.0Y4.0
T0
M30
