%TF.GenerationSoftware,KiCad,Pcbnew,(6.0.7)*%
%TF.CreationDate,2022-09-15T14:23:33+02:00*%
%TF.ProjectId,Pixelix,50697865-6c69-4782-9e6b-696361645f70,V2.0*%
%TF.SameCoordinates,PX6052340PY72894a0*%
%TF.FileFunction,Soldermask,Bot*%
%TF.FilePolarity,Negative*%
%FSLAX46Y46*%
G04 Gerber Fmt 4.6, Leading zero omitted, Abs format (unit mm)*
G04 Created by KiCad (PCBNEW (6.0.7)) date 2022-09-15 14:23:33*
%MOMM*%
%LPD*%
G01*
G04 APERTURE LIST*
G04 Aperture macros list*
%AMRoundRect*
0 Rectangle with rounded corners*
0 $1 Rounding radius*
0 $2 $3 $4 $5 $6 $7 $8 $9 X,Y pos of 4 corners*
0 Add a 4 corners polygon primitive as box body*
4,1,4,$2,$3,$4,$5,$6,$7,$8,$9,$2,$3,0*
0 Add four circle primitives for the rounded corners*
1,1,$1+$1,$2,$3*
1,1,$1+$1,$4,$5*
1,1,$1+$1,$6,$7*
1,1,$1+$1,$8,$9*
0 Add four rect primitives between the rounded corners*
20,1,$1+$1,$2,$3,$4,$5,0*
20,1,$1+$1,$4,$5,$6,$7,0*
20,1,$1+$1,$6,$7,$8,$9,0*
20,1,$1+$1,$8,$9,$2,$3,0*%
G04 Aperture macros list end*
%ADD10C,0.150000*%
%ADD11C,3.100000*%
%ADD12C,1.630000*%
%ADD13RoundRect,0.050000X-0.800000X-0.800000X0.800000X-0.800000X0.800000X0.800000X-0.800000X0.800000X0*%
%ADD14C,1.700000*%
%ADD15C,0.800000*%
%ADD16C,4.500000*%
%ADD17RoundRect,0.050000X0.800000X-0.800000X0.800000X0.800000X-0.800000X0.800000X-0.800000X-0.800000X0*%
%ADD18C,1.750000*%
%ADD19RoundRect,0.050000X0.780000X-0.800000X0.780000X0.800000X-0.780000X0.800000X-0.780000X-0.800000X0*%
%ADD20RoundRect,0.300000X-0.625000X0.400000X-0.625000X-0.400000X0.625000X-0.400000X0.625000X0.400000X0*%
%ADD21RoundRect,0.300000X0.650000X-0.412500X0.650000X0.412500X-0.650000X0.412500X-0.650000X-0.412500X0*%
%ADD22RoundRect,0.300000X0.412500X0.650000X-0.412500X0.650000X-0.412500X-0.650000X0.412500X-0.650000X0*%
%ADD23RoundRect,0.300000X0.400000X0.625000X-0.400000X0.625000X-0.400000X-0.625000X0.400000X-0.625000X0*%
G04 APERTURE END LIST*
D10*
X96133333Y4071429D02*
X95990476Y4023810D01*
X95942857Y3976191D01*
X95895238Y3880953D01*
X95895238Y3738096D01*
X95942857Y3642858D01*
X95990476Y3595239D01*
X96085714Y3547620D01*
X96466666Y3547620D01*
X96466666Y4547620D01*
X96133333Y4547620D01*
X96038095Y4500000D01*
X95990476Y4452381D01*
X95942857Y4357143D01*
X95942857Y4261905D01*
X95990476Y4166667D01*
X96038095Y4119048D01*
X96133333Y4071429D01*
X96466666Y4071429D01*
X95276190Y4547620D02*
X95085714Y4547620D01*
X94990476Y4500000D01*
X94895238Y4404762D01*
X94847619Y4214286D01*
X94847619Y3880953D01*
X94895238Y3690477D01*
X94990476Y3595239D01*
X95085714Y3547620D01*
X95276190Y3547620D01*
X95371428Y3595239D01*
X95466666Y3690477D01*
X95514285Y3880953D01*
X95514285Y4214286D01*
X95466666Y4404762D01*
X95371428Y4500000D01*
X95276190Y4547620D01*
X94561904Y4547620D02*
X93990476Y4547620D01*
X94276190Y3547620D02*
X94276190Y4547620D01*
D11*
%TO.C,J7*%
X49330000Y45400000D03*
D12*
X46330000Y41080000D03*
X49330000Y41080000D03*
X52330000Y41080000D03*
%TD*%
D11*
%TO.C,J1*%
X36615000Y45400000D03*
D12*
X35115000Y41080000D03*
X38115000Y41080000D03*
%TD*%
D11*
%TO.C,J8*%
X25400000Y45400000D03*
D12*
X23900000Y41080000D03*
X26900000Y41080000D03*
%TD*%
D13*
%TO.C,C2*%
X16800000Y16987500D03*
D14*
X20300000Y13487500D03*
%TD*%
D15*
%TO.C,H1*%
X14950000Y4000000D03*
X18250000Y4000000D03*
X15433274Y2833274D03*
X17766726Y5166726D03*
D16*
X16600000Y4000000D03*
D15*
X15433274Y5166726D03*
X17766726Y2833274D03*
X16600000Y2350000D03*
X16600000Y5650000D03*
%TD*%
%TO.C,H4*%
X83000000Y47650000D03*
X81833274Y47166726D03*
X84650000Y46000000D03*
X83000000Y44350000D03*
X81833274Y44833274D03*
D16*
X83000000Y46000000D03*
D15*
X84166726Y44833274D03*
X84166726Y47166726D03*
X81350000Y46000000D03*
%TD*%
D17*
%TO.C,A1*%
X92900000Y32052500D03*
D14*
X90360000Y32052500D03*
X87820000Y32052500D03*
X85280000Y32052500D03*
X82740000Y32052500D03*
X80200000Y32052500D03*
X77660000Y32052500D03*
X75120000Y32052500D03*
X72580000Y32052500D03*
X70040000Y32052500D03*
X67500000Y32052500D03*
X64960000Y32052500D03*
X62420000Y32052500D03*
X59880000Y32052500D03*
X57340000Y32052500D03*
X54800000Y32052500D03*
X54800000Y11732500D03*
X57340000Y11732500D03*
X59880000Y11732500D03*
X62420000Y11732500D03*
X64960000Y11732500D03*
X67500000Y11732500D03*
X70040000Y11732500D03*
X72580000Y11732500D03*
X75120000Y11732500D03*
X77660000Y11732500D03*
X80200000Y11732500D03*
X82740000Y11732500D03*
%TD*%
D15*
%TO.C,H3*%
X16600000Y47650000D03*
X15433274Y44833274D03*
X14950000Y46000000D03*
D16*
X16600000Y46000000D03*
D15*
X17766726Y47166726D03*
X18250000Y46000000D03*
X17766726Y44833274D03*
X16600000Y44350000D03*
X15433274Y47166726D03*
%TD*%
D18*
%TO.C,J5*%
X72480000Y46720000D03*
X72480000Y44180000D03*
X69940000Y46720000D03*
X69940000Y44180000D03*
X67400000Y46720000D03*
X67400000Y44180000D03*
X64860000Y46720000D03*
X64860000Y44180000D03*
X62320000Y46720000D03*
X62320000Y44180000D03*
%TD*%
D11*
%TO.C,J2*%
X4600000Y4800000D03*
D12*
X8920000Y3300000D03*
X8920000Y6300000D03*
%TD*%
D11*
%TO.C,J4*%
X4600000Y32700000D03*
D12*
X8920000Y31200000D03*
X8920000Y34200000D03*
%TD*%
D15*
%TO.C,H2*%
X81350000Y4000000D03*
X81833274Y2833274D03*
X83000000Y2350000D03*
X83000000Y5650000D03*
X81833274Y5166726D03*
D16*
X83000000Y4000000D03*
D15*
X84650000Y4000000D03*
X84166726Y2833274D03*
X84166726Y5166726D03*
%TD*%
D11*
%TO.C,J3*%
X4600000Y18750000D03*
D12*
X8920000Y15750000D03*
X8920000Y18750000D03*
X8920000Y21750000D03*
%TD*%
D19*
%TO.C,U1*%
X52340000Y9300000D03*
D14*
X54880000Y9300000D03*
X57420000Y9300000D03*
X59960000Y9300000D03*
X62500000Y9300000D03*
X65040000Y9300000D03*
X67580000Y9300000D03*
X70120000Y9300000D03*
X72660000Y9300000D03*
X75200000Y9300000D03*
X77740000Y9300000D03*
X80280000Y9300000D03*
X82820000Y9300000D03*
X85360000Y9300000D03*
X87900000Y9300000D03*
X90440000Y9300000D03*
X92980000Y9300000D03*
X95520000Y9300000D03*
X98060000Y9300000D03*
X52340000Y34700000D03*
X54880000Y34700000D03*
X57420000Y34700000D03*
X59960000Y34700000D03*
X62500000Y34700000D03*
X65040000Y34700000D03*
X67580000Y34700000D03*
X70120000Y34700000D03*
X72660000Y34700000D03*
X75200000Y34700000D03*
X77740000Y34700000D03*
X80280000Y34700000D03*
X82820000Y34700000D03*
X85360000Y34700000D03*
X87900000Y34700000D03*
X90440000Y34700000D03*
X92980000Y34700000D03*
X95520000Y34700000D03*
X98060000Y34700000D03*
%TD*%
D11*
%TO.C,J6*%
X4600000Y45150000D03*
D12*
X8920000Y43650000D03*
X8920000Y46650000D03*
%TD*%
D20*
%TO.C,R6*%
X69933332Y41700000D03*
X69933332Y38600000D03*
%TD*%
D21*
%TO.C,C3*%
X11500000Y31087500D03*
X11500000Y34212500D03*
%TD*%
D20*
%TO.C,R5*%
X72470000Y41700000D03*
X72470000Y38600000D03*
%TD*%
%TO.C,R8*%
X64860000Y41700000D03*
X64860000Y38600000D03*
%TD*%
%TO.C,R7*%
X67396666Y41700000D03*
X67396666Y38600000D03*
%TD*%
D22*
%TO.C,C4*%
X23887500Y38350000D03*
X20762500Y38350000D03*
%TD*%
D23*
%TO.C,R2*%
X35150000Y38350000D03*
X32050000Y38350000D03*
%TD*%
M02*
