%FSLAX45Y45*%
G04 Gerber Fmt 4.5, Leading zero omitted, Abs format (unit mm)*
G04 Created by KiCad (PCBNEW (6.0.5)) date 2022-09-13 16:11:17*
%MOMM*%
%LPD*%
G01*
G04 APERTURE LIST*
%TA.AperFunction,Profile*%
%ADD10C,0.100000*%
%TD*%
%ADD11C,0.200000*%
%ADD12C,0.040000*%
%ADD13C,0.050000*%
%ADD14C,0.080000*%
%ADD15C,0.102000*%
%ADD16C,0.104000*%
%ADD17C,0.110000*%
%ADD18C,0.220000*%
G04 APERTURE END LIST*
D10*
X10000000Y5000000D02*
X0Y5000000D01*
X0Y5000000D02*
X0Y0D01*
X0Y0D02*
X10000000Y0D01*
X10000000Y0D02*
X10000000Y5000000D01*
D11*
D12*
X180000Y4830000D02*
X220000Y4790000D01*
X220000Y4830000D02*
X180000Y4790000D01*
X180000Y4230000D02*
X220000Y4190000D01*
X220000Y4230000D02*
X180000Y4190000D01*
X180000Y3730000D02*
X220000Y3690000D01*
X220000Y3730000D02*
X180000Y3690000D01*
X180000Y3230000D02*
X220000Y3190000D01*
X220000Y3230000D02*
X180000Y3190000D01*
X180000Y2730000D02*
X220000Y2690000D01*
X220000Y2730000D02*
X180000Y2690000D01*
X180000Y2230000D02*
X220000Y2190000D01*
X220000Y2230000D02*
X180000Y2190000D01*
X180000Y1730000D02*
X220000Y1690000D01*
X220000Y1730000D02*
X180000Y1690000D01*
X180000Y1230000D02*
X220000Y1190000D01*
X220000Y1230000D02*
X180000Y1190000D01*
X180000Y730000D02*
X220000Y690000D01*
X220000Y730000D02*
X180000Y690000D01*
X180000Y230000D02*
X220000Y190000D01*
X220000Y230000D02*
X180000Y190000D01*
X600000Y1360000D02*
X640000Y1320000D01*
X640000Y1360000D02*
X600000Y1320000D01*
X670000Y2160000D02*
X710000Y2120000D01*
X710000Y2160000D02*
X670000Y2120000D01*
X680000Y4830000D02*
X720000Y4790000D01*
X720000Y4830000D02*
X680000Y4790000D01*
X680000Y230000D02*
X720000Y190000D01*
X720000Y230000D02*
X680000Y190000D01*
X740000Y2710000D02*
X780000Y2670000D01*
X780000Y2710000D02*
X740000Y2670000D01*
X860000Y3910000D02*
X900000Y3870000D01*
X900000Y3910000D02*
X860000Y3870000D01*
X1040000Y2080000D02*
X1080000Y2040000D01*
X1080000Y2080000D02*
X1040000Y2040000D01*
X1060000Y4370000D02*
X1100000Y4330000D01*
X1100000Y4370000D02*
X1060000Y4330000D01*
X1080000Y990000D02*
X1120000Y950000D01*
X1120000Y990000D02*
X1080000Y950000D01*
X1130000Y3290000D02*
X1170000Y3250000D01*
X1170000Y3290000D02*
X1130000Y3250000D01*
X1140000Y2970000D02*
X1180000Y2930000D01*
X1180000Y2970000D02*
X1140000Y2930000D01*
X1180000Y230000D02*
X1220000Y190000D01*
X1220000Y230000D02*
X1180000Y190000D01*
X1220000Y2330000D02*
X1260000Y2290000D01*
X1260000Y2330000D02*
X1220000Y2290000D01*
X1280000Y4830000D02*
X1320000Y4790000D01*
X1320000Y4830000D02*
X1280000Y4790000D01*
X1320000Y4190000D02*
X1360000Y4150000D01*
X1360000Y4190000D02*
X1320000Y4150000D01*
X1350000Y3810000D02*
X1390000Y3770000D01*
X1390000Y3810000D02*
X1350000Y3770000D01*
X1480000Y3490000D02*
X1520000Y3450000D01*
X1520000Y3490000D02*
X1480000Y3450000D01*
X1480000Y3290000D02*
X1520000Y3250000D01*
X1520000Y3290000D02*
X1480000Y3250000D01*
X1530000Y2260000D02*
X1570000Y2220000D01*
X1570000Y2260000D02*
X1530000Y2220000D01*
X1550000Y1950000D02*
X1590000Y1910000D01*
X1590000Y1950000D02*
X1550000Y1910000D01*
X1700000Y2810000D02*
X1740000Y2770000D01*
X1740000Y2810000D02*
X1700000Y2770000D01*
X1800000Y2340000D02*
X1840000Y2300000D01*
X1840000Y2340000D02*
X1800000Y2300000D01*
X1800000Y1950000D02*
X1840000Y1910000D01*
X1840000Y1950000D02*
X1800000Y1910000D01*
X1880000Y1230000D02*
X1920000Y1190000D01*
X1920000Y1230000D02*
X1880000Y1190000D01*
X1880000Y630000D02*
X1920000Y590000D01*
X1920000Y630000D02*
X1880000Y590000D01*
X1910000Y3855000D02*
X1950000Y3815000D01*
X1950000Y3855000D02*
X1910000Y3815000D01*
X1940000Y4440000D02*
X1980000Y4400000D01*
X1980000Y4440000D02*
X1940000Y4400000D01*
X1970000Y4190000D02*
X2010000Y4150000D01*
X2010000Y4190000D02*
X1970000Y4150000D01*
X2060000Y3490000D02*
X2100000Y3450000D01*
X2100000Y3490000D02*
X2060000Y3450000D01*
X2160000Y3290000D02*
X2200000Y3250000D01*
X2200000Y3290000D02*
X2160000Y3250000D01*
X2180000Y4830000D02*
X2220000Y4790000D01*
X2220000Y4830000D02*
X2180000Y4790000D01*
X2180000Y230000D02*
X2220000Y190000D01*
X2220000Y230000D02*
X2180000Y190000D01*
X2185000Y2755000D02*
X2225000Y2715000D01*
X2225000Y2755000D02*
X2185000Y2715000D01*
X2185000Y2355000D02*
X2225000Y2315000D01*
X2225000Y2355000D02*
X2185000Y2315000D01*
X2215000Y3855000D02*
X2255000Y3815000D01*
X2255000Y3855000D02*
X2215000Y3815000D01*
X2327500Y3077500D02*
X2367500Y3037500D01*
X2367500Y3077500D02*
X2327500Y3037500D01*
X2440000Y1940000D02*
X2480000Y1900000D01*
X2480000Y1940000D02*
X2440000Y1900000D01*
X2520000Y1500000D02*
X2560000Y1460000D01*
X2560000Y1500000D02*
X2520000Y1460000D01*
X2520000Y1250000D02*
X2560000Y1210000D01*
X2560000Y1250000D02*
X2520000Y1210000D01*
X2540000Y610000D02*
X2580000Y570000D01*
X2580000Y610000D02*
X2540000Y570000D01*
X2620000Y3475000D02*
X2660000Y3435000D01*
X2660000Y3475000D02*
X2620000Y3435000D01*
X2626000Y2950000D02*
X2666000Y2910000D01*
X2666000Y2950000D02*
X2626000Y2910000D01*
X2680000Y4830000D02*
X2720000Y4790000D01*
X2720000Y4830000D02*
X2680000Y4790000D01*
X2680000Y230000D02*
X2720000Y190000D01*
X2720000Y230000D02*
X2680000Y190000D01*
X2760000Y2515000D02*
X2800000Y2475000D01*
X2800000Y2515000D02*
X2760000Y2475000D01*
X2780000Y1240000D02*
X2820000Y1200000D01*
X2820000Y1240000D02*
X2780000Y1200000D01*
X2782000Y3317000D02*
X2822000Y3277000D01*
X2822000Y3317000D02*
X2782000Y3277000D01*
X2800000Y3520000D02*
X2840000Y3480000D01*
X2840000Y3520000D02*
X2800000Y3480000D01*
X2860000Y2120000D02*
X2900000Y2080000D01*
X2900000Y2120000D02*
X2860000Y2080000D01*
X2880000Y1830000D02*
X2920000Y1790000D01*
X2920000Y1830000D02*
X2880000Y1790000D01*
X2880000Y1550000D02*
X2920000Y1510000D01*
X2920000Y1550000D02*
X2880000Y1510000D01*
X2940000Y630000D02*
X2980000Y590000D01*
X2980000Y630000D02*
X2940000Y590000D01*
X3027500Y3855000D02*
X3067500Y3815000D01*
X3067500Y3855000D02*
X3027500Y3815000D01*
X3070000Y4430000D02*
X3110000Y4390000D01*
X3110000Y4430000D02*
X3070000Y4390000D01*
X3110000Y1280000D02*
X3150000Y1240000D01*
X3150000Y1280000D02*
X3110000Y1240000D01*
X3180000Y4830000D02*
X3220000Y4790000D01*
X3220000Y4830000D02*
X3180000Y4790000D01*
X3180000Y230000D02*
X3220000Y190000D01*
X3220000Y230000D02*
X3180000Y190000D01*
X3260000Y4180000D02*
X3300000Y4140000D01*
X3300000Y4180000D02*
X3260000Y4140000D01*
X3305060Y3519000D02*
X3345060Y3479000D01*
X3345060Y3519000D02*
X3305060Y3479000D01*
X3380000Y2680000D02*
X3420000Y2640000D01*
X3420000Y2680000D02*
X3380000Y2640000D01*
X3440000Y2930000D02*
X3480000Y2890000D01*
X3480000Y2930000D02*
X3440000Y2890000D01*
X3550000Y3320000D02*
X3590000Y3280000D01*
X3590000Y3320000D02*
X3550000Y3280000D01*
X3620000Y3580000D02*
X3660000Y3540000D01*
X3660000Y3580000D02*
X3620000Y3540000D01*
X3660000Y930000D02*
X3700000Y890000D01*
X3700000Y930000D02*
X3660000Y890000D01*
X3680000Y4830000D02*
X3720000Y4790000D01*
X3720000Y4830000D02*
X3680000Y4790000D01*
X3680000Y640000D02*
X3720000Y600000D01*
X3720000Y640000D02*
X3680000Y600000D01*
X3680000Y230000D02*
X3720000Y190000D01*
X3720000Y230000D02*
X3680000Y190000D01*
X3700000Y3850000D02*
X3740000Y3810000D01*
X3740000Y3850000D02*
X3700000Y3810000D01*
X3720000Y2310000D02*
X3760000Y2270000D01*
X3760000Y2310000D02*
X3720000Y2270000D01*
X3727000Y1184000D02*
X3767000Y1144000D01*
X3767000Y1184000D02*
X3727000Y1144000D01*
X3735000Y1700000D02*
X3775000Y1660000D01*
X3775000Y1700000D02*
X3735000Y1660000D01*
X3860000Y2490000D02*
X3900000Y2450000D01*
X3900000Y2490000D02*
X3860000Y2450000D01*
X3890000Y4430000D02*
X3930000Y4390000D01*
X3930000Y4430000D02*
X3890000Y4390000D01*
X3920000Y2940000D02*
X3960000Y2900000D01*
X3960000Y2940000D02*
X3920000Y2900000D01*
X4020000Y1990000D02*
X4060000Y1950000D01*
X4060000Y1990000D02*
X4020000Y1950000D01*
X4090000Y3650000D02*
X4130000Y3610000D01*
X4130000Y3650000D02*
X4090000Y3610000D01*
X4090000Y3320000D02*
X4130000Y3280000D01*
X4130000Y3320000D02*
X4090000Y3280000D01*
X4100000Y1250000D02*
X4140000Y1210000D01*
X4140000Y1250000D02*
X4100000Y1210000D01*
X4180000Y4830000D02*
X4220000Y4790000D01*
X4220000Y4830000D02*
X4180000Y4790000D01*
X4180000Y230000D02*
X4220000Y190000D01*
X4220000Y230000D02*
X4180000Y190000D01*
X4200000Y4200000D02*
X4240000Y4160000D01*
X4240000Y4200000D02*
X4200000Y4160000D01*
X4360000Y2530000D02*
X4400000Y2490000D01*
X4400000Y2530000D02*
X4360000Y2490000D01*
X4370000Y3820000D02*
X4410000Y3780000D01*
X4410000Y3820000D02*
X4370000Y3780000D01*
X4370000Y3000000D02*
X4410000Y2960000D01*
X4410000Y3000000D02*
X4370000Y2960000D01*
X4371000Y741000D02*
X4411000Y701000D01*
X4411000Y741000D02*
X4371000Y701000D01*
X4422000Y1915000D02*
X4462000Y1875000D01*
X4462000Y1915000D02*
X4422000Y1875000D01*
X4440000Y4430000D02*
X4480000Y4390000D01*
X4480000Y4430000D02*
X4440000Y4390000D01*
X4530000Y1520000D02*
X4570000Y1480000D01*
X4570000Y1520000D02*
X4530000Y1480000D01*
X4580000Y2900000D02*
X4620000Y2860000D01*
X4620000Y2900000D02*
X4580000Y2860000D01*
X4582000Y2781000D02*
X4622000Y2741000D01*
X4622000Y2781000D02*
X4582000Y2741000D01*
X4588000Y3309000D02*
X4628000Y3269000D01*
X4628000Y3309000D02*
X4588000Y3269000D01*
X4589000Y1890000D02*
X4629000Y1850000D01*
X4629000Y1890000D02*
X4589000Y1850000D01*
X4600000Y3979000D02*
X4640000Y3939000D01*
X4640000Y3979000D02*
X4600000Y3939000D01*
X4680000Y4830000D02*
X4720000Y4790000D01*
X4720000Y4830000D02*
X4680000Y4790000D01*
X4680000Y230000D02*
X4720000Y190000D01*
X4720000Y230000D02*
X4680000Y190000D01*
X4720000Y2370000D02*
X4760000Y2330000D01*
X4760000Y2370000D02*
X4720000Y2330000D01*
X4766000Y4161000D02*
X4806000Y4121000D01*
X4806000Y4161000D02*
X4766000Y4121000D01*
X4830000Y3957000D02*
X4870000Y3917000D01*
X4870000Y3957000D02*
X4830000Y3917000D01*
X4860000Y3460000D02*
X4900000Y3420000D01*
X4900000Y3460000D02*
X4860000Y3420000D01*
X4950000Y600000D02*
X4990000Y560000D01*
X4990000Y600000D02*
X4950000Y560000D01*
X5000000Y930000D02*
X5040000Y890000D01*
X5040000Y930000D02*
X5000000Y890000D01*
X5035000Y2820000D02*
X5075000Y2780000D01*
X5075000Y2820000D02*
X5035000Y2780000D01*
X5060000Y1700000D02*
X5100000Y1660000D01*
X5100000Y1700000D02*
X5060000Y1660000D01*
X5064000Y4145000D02*
X5104000Y4105000D01*
X5104000Y4145000D02*
X5064000Y4105000D01*
X5180000Y4830000D02*
X5220000Y4790000D01*
X5220000Y4830000D02*
X5180000Y4790000D01*
X5180000Y230000D02*
X5220000Y190000D01*
X5220000Y230000D02*
X5180000Y190000D01*
X5190000Y3010000D02*
X5230000Y2970000D01*
X5230000Y3010000D02*
X5190000Y2970000D01*
X5205000Y1210000D02*
X5245000Y1170000D01*
X5245000Y1210000D02*
X5205000Y1170000D01*
X5212550Y2190000D02*
X5252550Y2150000D01*
X5252550Y2190000D02*
X5212550Y2150000D01*
X5280000Y3730000D02*
X5320000Y3690000D01*
X5320000Y3730000D02*
X5280000Y3690000D01*
X5305000Y4001000D02*
X5345000Y3961000D01*
X5345000Y4001000D02*
X5305000Y3961000D01*
X5385000Y2130000D02*
X5425000Y2090000D01*
X5425000Y2130000D02*
X5385000Y2090000D01*
X5390000Y1385000D02*
X5430000Y1345000D01*
X5430000Y1385000D02*
X5390000Y1345000D01*
X5400000Y2600000D02*
X5440000Y2560000D01*
X5440000Y2600000D02*
X5400000Y2560000D01*
X5585000Y2275000D02*
X5625000Y2235000D01*
X5625000Y2275000D02*
X5585000Y2235000D01*
X5585000Y1715000D02*
X5625000Y1675000D01*
X5625000Y1715000D02*
X5585000Y1675000D01*
X5586175Y3017550D02*
X5626175Y2977550D01*
X5626175Y3017550D02*
X5586175Y2977550D01*
X5590000Y1070000D02*
X5630000Y1030000D01*
X5630000Y1070000D02*
X5590000Y1030000D01*
X5610000Y4460000D02*
X5650000Y4420000D01*
X5650000Y4460000D02*
X5610000Y4420000D01*
X5620000Y4100000D02*
X5660000Y4060000D01*
X5660000Y4100000D02*
X5620000Y4060000D01*
X5625000Y2825000D02*
X5665000Y2785000D01*
X5665000Y2825000D02*
X5625000Y2785000D01*
X5625000Y2720000D02*
X5665000Y2680000D01*
X5665000Y2720000D02*
X5625000Y2680000D01*
X5636000Y3757599D02*
X5676000Y3717599D01*
X5676000Y3757599D02*
X5636000Y3717599D01*
X5680000Y4830000D02*
X5720000Y4790000D01*
X5720000Y4830000D02*
X5680000Y4790000D01*
X5680000Y230000D02*
X5720000Y190000D01*
X5720000Y230000D02*
X5680000Y190000D01*
X5686000Y3624000D02*
X5726000Y3584000D01*
X5726000Y3624000D02*
X5686000Y3584000D01*
X5725000Y2690000D02*
X5765000Y2650000D01*
X5765000Y2690000D02*
X5725000Y2650000D01*
X5760000Y3050000D02*
X5800000Y3010000D01*
X5800000Y3050000D02*
X5760000Y3010000D01*
X5820000Y2420000D02*
X5860000Y2380000D01*
X5860000Y2420000D02*
X5820000Y2380000D01*
X5844000Y3562000D02*
X5884000Y3522000D01*
X5884000Y3562000D02*
X5844000Y3522000D01*
X5850000Y1070000D02*
X5890000Y1030000D01*
X5890000Y1070000D02*
X5850000Y1030000D01*
X5860000Y1650000D02*
X5900000Y1610000D01*
X5900000Y1650000D02*
X5860000Y1610000D01*
X5870000Y2080000D02*
X5910000Y2040000D01*
X5910000Y2080000D02*
X5870000Y2040000D01*
X5890000Y2775000D02*
X5930000Y2735000D01*
X5930000Y2775000D02*
X5890000Y2735000D01*
X5935000Y2975000D02*
X5975000Y2935000D01*
X5975000Y2975000D02*
X5935000Y2935000D01*
X5980000Y4440000D02*
X6020000Y4400000D01*
X6020000Y4440000D02*
X5980000Y4400000D01*
X6080000Y1380000D02*
X6120000Y1340000D01*
X6120000Y1380000D02*
X6080000Y1340000D01*
X6099000Y3564000D02*
X6139000Y3524000D01*
X6139000Y3564000D02*
X6099000Y3524000D01*
X6100000Y3360000D02*
X6140000Y3320000D01*
X6140000Y3360000D02*
X6100000Y3320000D01*
X6160000Y1870000D02*
X6200000Y1830000D01*
X6200000Y1870000D02*
X6160000Y1830000D01*
X6180000Y4830000D02*
X6220000Y4790000D01*
X6220000Y4830000D02*
X6180000Y4790000D01*
X6180000Y230000D02*
X6220000Y190000D01*
X6220000Y230000D02*
X6180000Y190000D01*
X6190000Y3757599D02*
X6230000Y3717599D01*
X6230000Y3757599D02*
X6190000Y3717599D01*
X6220000Y2805000D02*
X6260000Y2765000D01*
X6260000Y2805000D02*
X6220000Y2765000D01*
X6235000Y2455000D02*
X6275000Y2415000D01*
X6275000Y2455000D02*
X6235000Y2415000D01*
X6243510Y2975000D02*
X6283510Y2935000D01*
X6283510Y2975000D02*
X6243510Y2935000D01*
X6310000Y4037000D02*
X6350000Y3997000D01*
X6350000Y4037000D02*
X6310000Y3997000D01*
X6335000Y4337000D02*
X6375000Y4297000D01*
X6375000Y4337000D02*
X6335000Y4297000D01*
X6350000Y2790000D02*
X6390000Y2750000D01*
X6390000Y2790000D02*
X6350000Y2750000D01*
X6356986Y1429446D02*
X6396986Y1389446D01*
X6396986Y1429446D02*
X6356986Y1389446D01*
X6420000Y1610000D02*
X6460000Y1570000D01*
X6460000Y1610000D02*
X6420000Y1570000D01*
X6420000Y599599D02*
X6460000Y559599D01*
X6460000Y599599D02*
X6420000Y559599D01*
X6432450Y3360000D02*
X6472450Y3320000D01*
X6472450Y3360000D02*
X6432450Y3320000D01*
X6490000Y3030000D02*
X6530000Y2990000D01*
X6530000Y3030000D02*
X6490000Y2990000D01*
X6505000Y2790000D02*
X6545000Y2750000D01*
X6545000Y2790000D02*
X6505000Y2750000D01*
X6515000Y2075000D02*
X6555000Y2035000D01*
X6555000Y2075000D02*
X6515000Y2035000D01*
X6544770Y3614770D02*
X6584770Y3574770D01*
X6584770Y3614770D02*
X6544770Y3574770D01*
X6570000Y1430000D02*
X6610000Y1390000D01*
X6610000Y1430000D02*
X6570000Y1390000D01*
X6591000Y4335000D02*
X6631000Y4295000D01*
X6631000Y4335000D02*
X6591000Y4295000D01*
X6592000Y3977550D02*
X6632000Y3937550D01*
X6632000Y3977550D02*
X6592000Y3937550D01*
X6610000Y1070000D02*
X6650000Y1030000D01*
X6650000Y1070000D02*
X6610000Y1030000D01*
X6680000Y4830000D02*
X6720000Y4790000D01*
X6720000Y4830000D02*
X6680000Y4790000D01*
X6680000Y230000D02*
X6720000Y190000D01*
X6720000Y230000D02*
X6680000Y190000D01*
X6694450Y3060000D02*
X6734450Y3020000D01*
X6734450Y3060000D02*
X6694450Y3020000D01*
X6740000Y2770000D02*
X6780000Y2730000D01*
X6780000Y2770000D02*
X6740000Y2730000D01*
X6740000Y2360000D02*
X6780000Y2320000D01*
X6780000Y2360000D02*
X6740000Y2320000D01*
X6740000Y1950000D02*
X6780000Y1910000D01*
X6780000Y1950000D02*
X6740000Y1910000D01*
X6740000Y1580000D02*
X6780000Y1540000D01*
X6780000Y1580000D02*
X6740000Y1540000D01*
X6845000Y3977550D02*
X6885000Y3937550D01*
X6885000Y3977550D02*
X6845000Y3937550D01*
X6850000Y4340000D02*
X6890000Y4300000D01*
X6890000Y4340000D02*
X6850000Y4300000D01*
X6870000Y3614000D02*
X6910000Y3574000D01*
X6910000Y3614000D02*
X6870000Y3574000D01*
X6870000Y3360000D02*
X6910000Y3320000D01*
X6910000Y3360000D02*
X6870000Y3320000D01*
X6900000Y1710000D02*
X6940000Y1670000D01*
X6940000Y1710000D02*
X6900000Y1670000D01*
X6975000Y1350000D02*
X7015000Y1310000D01*
X7015000Y1350000D02*
X6975000Y1310000D01*
X6990000Y3020000D02*
X7030000Y2980000D01*
X7030000Y3020000D02*
X6990000Y2980000D01*
X6990000Y2590000D02*
X7030000Y2550000D01*
X7030000Y2590000D02*
X6990000Y2550000D01*
X6990000Y2200000D02*
X7030000Y2160000D01*
X7030000Y2200000D02*
X6990000Y2160000D01*
X7100000Y3977000D02*
X7140000Y3937000D01*
X7140000Y3977000D02*
X7100000Y3937000D01*
X7102000Y4340000D02*
X7142000Y4300000D01*
X7142000Y4340000D02*
X7102000Y4300000D01*
X7120000Y1070000D02*
X7160000Y1030000D01*
X7160000Y1070000D02*
X7120000Y1030000D01*
X7180000Y4830000D02*
X7220000Y4790000D01*
X7220000Y4830000D02*
X7180000Y4790000D01*
X7180000Y3612000D02*
X7220000Y3572000D01*
X7220000Y3612000D02*
X7180000Y3572000D01*
X7180000Y1740000D02*
X7220000Y1700000D01*
X7220000Y1740000D02*
X7180000Y1700000D01*
X7180000Y230000D02*
X7220000Y190000D01*
X7220000Y230000D02*
X7180000Y190000D01*
X7240000Y2770000D02*
X7280000Y2730000D01*
X7280000Y2770000D02*
X7240000Y2730000D01*
X7240000Y2430000D02*
X7280000Y2390000D01*
X7280000Y2430000D02*
X7240000Y2390000D01*
X7250000Y1432450D02*
X7290000Y1392450D01*
X7290000Y1432450D02*
X7250000Y1392450D01*
X7276000Y4058000D02*
X7316000Y4018000D01*
X7316000Y4058000D02*
X7276000Y4018000D01*
X7280000Y2110000D02*
X7320000Y2070000D01*
X7320000Y2110000D02*
X7280000Y2070000D01*
X7397000Y3821000D02*
X7437000Y3781000D01*
X7437000Y3821000D02*
X7397000Y3781000D01*
X7410000Y4340000D02*
X7450000Y4300000D01*
X7450000Y4340000D02*
X7410000Y4300000D01*
X7465000Y1432450D02*
X7505000Y1392450D01*
X7505000Y1432450D02*
X7465000Y1392450D01*
X7470000Y4610000D02*
X7510000Y4570000D01*
X7510000Y4610000D02*
X7470000Y4570000D01*
X7510000Y2350000D02*
X7550000Y2310000D01*
X7550000Y2350000D02*
X7510000Y2310000D01*
X7510000Y1690000D02*
X7550000Y1650000D01*
X7550000Y1690000D02*
X7510000Y1650000D01*
X7540000Y2730000D02*
X7580000Y2690000D01*
X7580000Y2730000D02*
X7540000Y2690000D01*
X7600000Y3050000D02*
X7640000Y3010000D01*
X7640000Y3050000D02*
X7600000Y3010000D01*
X7630000Y3560000D02*
X7670000Y3520000D01*
X7670000Y3560000D02*
X7630000Y3520000D01*
X7630000Y885901D02*
X7670000Y845901D01*
X7670000Y885901D02*
X7630000Y845901D01*
X7680000Y4830000D02*
X7720000Y4790000D01*
X7720000Y4830000D02*
X7680000Y4790000D01*
X7680000Y230000D02*
X7720000Y190000D01*
X7720000Y230000D02*
X7680000Y190000D01*
X7790000Y1610000D02*
X7830000Y1570000D01*
X7830000Y1610000D02*
X7790000Y1570000D01*
X7850000Y3813450D02*
X7890000Y3773450D01*
X7890000Y3813450D02*
X7850000Y3773450D01*
X7870000Y1330000D02*
X7910000Y1290000D01*
X7910000Y1330000D02*
X7870000Y1290000D01*
X7880000Y885901D02*
X7920000Y845901D01*
X7920000Y885901D02*
X7880000Y845901D01*
X7890000Y3050000D02*
X7930000Y3010000D01*
X7930000Y3050000D02*
X7890000Y3010000D01*
X7890000Y600000D02*
X7930000Y560000D01*
X7930000Y600000D02*
X7890000Y560000D01*
X7940000Y4510000D02*
X7980000Y4470000D01*
X7980000Y4510000D02*
X7940000Y4470000D01*
X7970000Y2640000D02*
X8010000Y2600000D01*
X8010000Y2640000D02*
X7970000Y2600000D01*
X7980000Y4130000D02*
X8020000Y4090000D01*
X8020000Y4130000D02*
X7980000Y4090000D01*
X7985000Y1370000D02*
X8025000Y1330000D01*
X8025000Y1370000D02*
X7985000Y1330000D01*
X8140000Y2080000D02*
X8180000Y2040000D01*
X8180000Y2080000D02*
X8140000Y2040000D01*
X8230000Y3030000D02*
X8270000Y2990000D01*
X8270000Y3030000D02*
X8230000Y2990000D01*
X8390000Y3570000D02*
X8430000Y3530000D01*
X8430000Y3570000D02*
X8390000Y3530000D01*
X8390000Y872450D02*
X8430000Y832450D01*
X8430000Y872450D02*
X8390000Y832450D01*
X8410000Y1610000D02*
X8450000Y1570000D01*
X8450000Y1610000D02*
X8410000Y1570000D01*
X8420000Y1170000D02*
X8460000Y1130000D01*
X8460000Y1170000D02*
X8420000Y1130000D01*
X8480000Y1370000D02*
X8520000Y1330000D01*
X8520000Y1370000D02*
X8480000Y1330000D01*
X8523600Y600000D02*
X8563600Y560000D01*
X8563600Y600000D02*
X8523600Y560000D01*
X8620000Y2610000D02*
X8660000Y2570000D01*
X8660000Y2610000D02*
X8620000Y2570000D01*
X8642510Y3417490D02*
X8682510Y3377490D01*
X8682510Y3417490D02*
X8642510Y3377490D01*
X8670000Y3813450D02*
X8710000Y3773450D01*
X8710000Y3813450D02*
X8670000Y3773450D01*
X8680000Y4830000D02*
X8720000Y4790000D01*
X8720000Y4830000D02*
X8680000Y4790000D01*
X8680000Y230000D02*
X8720000Y190000D01*
X8720000Y230000D02*
X8680000Y190000D01*
X8780000Y4230000D02*
X8820000Y4190000D01*
X8820000Y4230000D02*
X8780000Y4190000D01*
X8855000Y1160000D02*
X8895000Y1120000D01*
X8895000Y1160000D02*
X8855000Y1120000D01*
X8912510Y3589990D02*
X8952510Y3549990D01*
X8952510Y3589990D02*
X8912510Y3549990D01*
X8932510Y829990D02*
X8972510Y789990D01*
X8972510Y829990D02*
X8932510Y789990D01*
X8945010Y3362490D02*
X8985010Y3322490D01*
X8985010Y3362490D02*
X8945010Y3322490D01*
X9020000Y2970000D02*
X9060000Y2930000D01*
X9060000Y2970000D02*
X9020000Y2930000D01*
X9020000Y2270000D02*
X9060000Y2230000D01*
X9060000Y2270000D02*
X9020000Y2230000D01*
X9020000Y1610000D02*
X9060000Y1570000D01*
X9060000Y1610000D02*
X9020000Y1570000D01*
X9060000Y1370000D02*
X9100000Y1330000D01*
X9100000Y1370000D02*
X9060000Y1330000D01*
X9070000Y600000D02*
X9110000Y560000D01*
X9110000Y600000D02*
X9070000Y560000D01*
X9086605Y1104145D02*
X9126605Y1064145D01*
X9126605Y1104145D02*
X9086605Y1064145D01*
X9170000Y3860000D02*
X9210000Y3820000D01*
X9210000Y3860000D02*
X9170000Y3820000D01*
X9280000Y4830000D02*
X9320000Y4790000D01*
X9320000Y4830000D02*
X9280000Y4790000D01*
X9280000Y2970000D02*
X9320000Y2930000D01*
X9320000Y2970000D02*
X9280000Y2930000D01*
X9280000Y2270000D02*
X9320000Y2230000D01*
X9320000Y2270000D02*
X9280000Y2230000D01*
X9280000Y1610000D02*
X9320000Y1570000D01*
X9320000Y1610000D02*
X9280000Y1570000D01*
X9280000Y230000D02*
X9320000Y190000D01*
X9320000Y230000D02*
X9280000Y190000D01*
X9287510Y1304990D02*
X9327510Y1264990D01*
X9327510Y1304990D02*
X9287510Y1264990D01*
X9330000Y4500000D02*
X9370000Y4460000D01*
X9370000Y4500000D02*
X9330000Y4460000D01*
X9402510Y834990D02*
X9442510Y794990D01*
X9442510Y834990D02*
X9402510Y794990D01*
X9495010Y1099990D02*
X9535010Y1059990D01*
X9535010Y1099990D02*
X9495010Y1059990D01*
X9780000Y4830000D02*
X9820000Y4790000D01*
X9820000Y4830000D02*
X9780000Y4790000D01*
X9780000Y4230000D02*
X9820000Y4190000D01*
X9820000Y4230000D02*
X9780000Y4190000D01*
X9780000Y3730000D02*
X9820000Y3690000D01*
X9820000Y3730000D02*
X9780000Y3690000D01*
X9780000Y3230000D02*
X9820000Y3190000D01*
X9820000Y3230000D02*
X9780000Y3190000D01*
X9780000Y2730000D02*
X9820000Y2690000D01*
X9820000Y2730000D02*
X9780000Y2690000D01*
X9780000Y2230000D02*
X9820000Y2190000D01*
X9820000Y2230000D02*
X9780000Y2190000D01*
X9780000Y1730000D02*
X9820000Y1690000D01*
X9820000Y1730000D02*
X9780000Y1690000D01*
X9780000Y1230000D02*
X9820000Y1190000D01*
X9820000Y1230000D02*
X9780000Y1190000D01*
X9780000Y730000D02*
X9820000Y690000D01*
X9820000Y730000D02*
X9780000Y690000D01*
X9780000Y230000D02*
X9820000Y190000D01*
X9820000Y230000D02*
X9780000Y190000D01*
X1515000Y4600000D02*
G75*
G03*
X1515000Y4600000I-20000J0D01*
G01*
X1515000Y400000D02*
G75*
G03*
X1515000Y400000I-20000J0D01*
G01*
X1563327Y4716673D02*
G75*
G03*
X1563327Y4716673I-20000J0D01*
G01*
X1563327Y4483327D02*
G75*
G03*
X1563327Y4483327I-20000J0D01*
G01*
X1563327Y516673D02*
G75*
G03*
X1563327Y516673I-20000J0D01*
G01*
X1563327Y283327D02*
G75*
G03*
X1563327Y283327I-20000J0D01*
G01*
X1680000Y4765000D02*
G75*
G03*
X1680000Y4765000I-20000J0D01*
G01*
X1680000Y4435000D02*
G75*
G03*
X1680000Y4435000I-20000J0D01*
G01*
X1680000Y565000D02*
G75*
G03*
X1680000Y565000I-20000J0D01*
G01*
X1680000Y235000D02*
G75*
G03*
X1680000Y235000I-20000J0D01*
G01*
X1796673Y4716673D02*
G75*
G03*
X1796673Y4716673I-20000J0D01*
G01*
X1796673Y4483327D02*
G75*
G03*
X1796673Y4483327I-20000J0D01*
G01*
X1796673Y516673D02*
G75*
G03*
X1796673Y516673I-20000J0D01*
G01*
X1796673Y283327D02*
G75*
G03*
X1796673Y283327I-20000J0D01*
G01*
X1845000Y4600000D02*
G75*
G03*
X1845000Y4600000I-20000J0D01*
G01*
X1845000Y400000D02*
G75*
G03*
X1845000Y400000I-20000J0D01*
G01*
X8155000Y4600000D02*
G75*
G03*
X8155000Y4600000I-20000J0D01*
G01*
X8155000Y400000D02*
G75*
G03*
X8155000Y400000I-20000J0D01*
G01*
X8203327Y4716673D02*
G75*
G03*
X8203327Y4716673I-20000J0D01*
G01*
X8203327Y4483327D02*
G75*
G03*
X8203327Y4483327I-20000J0D01*
G01*
X8203327Y516673D02*
G75*
G03*
X8203327Y516673I-20000J0D01*
G01*
X8203327Y283327D02*
G75*
G03*
X8203327Y283327I-20000J0D01*
G01*
X8320000Y4765000D02*
G75*
G03*
X8320000Y4765000I-20000J0D01*
G01*
X8320000Y4435000D02*
G75*
G03*
X8320000Y4435000I-20000J0D01*
G01*
X8320000Y565000D02*
G75*
G03*
X8320000Y565000I-20000J0D01*
G01*
X8320000Y235000D02*
G75*
G03*
X8320000Y235000I-20000J0D01*
G01*
X8436673Y4716673D02*
G75*
G03*
X8436673Y4716673I-20000J0D01*
G01*
X8436673Y4483327D02*
G75*
G03*
X8436673Y4483327I-20000J0D01*
G01*
X8436673Y516673D02*
G75*
G03*
X8436673Y516673I-20000J0D01*
G01*
X8436673Y283327D02*
G75*
G03*
X8436673Y283327I-20000J0D01*
G01*
X8485000Y4600000D02*
G75*
G03*
X8485000Y4600000I-20000J0D01*
G01*
X8485000Y400000D02*
G75*
G03*
X8485000Y400000I-20000J0D01*
G01*
D13*
X7333324Y3048324D02*
X7333324Y2998324D01*
X7308324Y3023324D02*
X7358324Y3023324D01*
X7755000Y1500000D02*
X7755000Y1450000D01*
X7730000Y1475000D02*
X7780000Y1475000D01*
D14*
X1708284Y1670465D02*
X1708284Y1727034D01*
X1651715Y1727034D01*
X1651715Y1670465D01*
X1708284Y1670465D01*
X2058284Y1320466D02*
X2058284Y1377035D01*
X2001715Y1377035D01*
X2001715Y1320466D01*
X2058284Y1320466D01*
X5508285Y3176965D02*
X5508285Y3233534D01*
X5451716Y3233534D01*
X5451716Y3176965D01*
X5508285Y3176965D01*
X5508285Y1144966D02*
X5508285Y1201535D01*
X5451716Y1201535D01*
X5451716Y1144966D01*
X5508285Y1144966D01*
X5762284Y3176965D02*
X5762284Y3233534D01*
X5705715Y3233534D01*
X5705715Y3176965D01*
X5762284Y3176965D01*
X5762284Y1144966D02*
X5762284Y1201535D01*
X5705715Y1201535D01*
X5705715Y1144966D01*
X5762284Y1144966D01*
X6016284Y3176965D02*
X6016284Y3233534D01*
X5959715Y3233534D01*
X5959715Y3176965D01*
X6016284Y3176965D01*
X6016284Y1144966D02*
X6016284Y1201535D01*
X5959715Y1201535D01*
X5959715Y1144966D01*
X6016284Y1144966D01*
X6270284Y3176965D02*
X6270284Y3233534D01*
X6213715Y3233534D01*
X6213715Y3176965D01*
X6270284Y3176965D01*
X6270284Y1144966D02*
X6270284Y1201535D01*
X6213715Y1201535D01*
X6213715Y1144966D01*
X6270284Y1144966D01*
X6524284Y3176965D02*
X6524284Y3233534D01*
X6467715Y3233534D01*
X6467715Y3176965D01*
X6524284Y3176965D01*
X6524284Y1144966D02*
X6524284Y1201535D01*
X6467715Y1201535D01*
X6467715Y1144966D01*
X6524284Y1144966D01*
X6778284Y3176965D02*
X6778284Y3233534D01*
X6721715Y3233534D01*
X6721715Y3176965D01*
X6778284Y3176965D01*
X6778284Y1144966D02*
X6778284Y1201535D01*
X6721715Y1201535D01*
X6721715Y1144966D01*
X6778284Y1144966D01*
X7032284Y3176965D02*
X7032284Y3233534D01*
X6975715Y3233534D01*
X6975715Y3176965D01*
X7032284Y3176965D01*
X7032284Y1144966D02*
X7032284Y1201535D01*
X6975715Y1201535D01*
X6975715Y1144966D01*
X7032284Y1144966D01*
X7286284Y3176965D02*
X7286284Y3233534D01*
X7229715Y3233534D01*
X7229715Y3176965D01*
X7286284Y3176965D01*
X7286284Y1144966D02*
X7286284Y1201535D01*
X7229715Y1201535D01*
X7229715Y1144966D01*
X7286284Y1144966D01*
X7540284Y3176965D02*
X7540284Y3233534D01*
X7483715Y3233534D01*
X7483715Y3176965D01*
X7540284Y3176965D01*
X7540284Y1144966D02*
X7540284Y1201535D01*
X7483715Y1201535D01*
X7483715Y1144966D01*
X7540284Y1144966D01*
X7794284Y3176965D02*
X7794284Y3233534D01*
X7737715Y3233534D01*
X7737715Y3176965D01*
X7794284Y3176965D01*
X7794284Y1144966D02*
X7794284Y1201535D01*
X7737715Y1201535D01*
X7737715Y1144966D01*
X7794284Y1144966D01*
X8048284Y3176965D02*
X8048284Y3233534D01*
X7991715Y3233534D01*
X7991715Y3176965D01*
X8048284Y3176965D01*
X8048284Y1144966D02*
X8048284Y1201535D01*
X7991715Y1201535D01*
X7991715Y1144966D01*
X8048284Y1144966D01*
X8302284Y3176965D02*
X8302284Y3233534D01*
X8245715Y3233534D01*
X8245715Y3176965D01*
X8302284Y3176965D01*
X8302284Y1144966D02*
X8302284Y1201535D01*
X8245715Y1201535D01*
X8245715Y1144966D01*
X8302284Y1144966D01*
X8556285Y3176965D02*
X8556285Y3233534D01*
X8499716Y3233534D01*
X8499716Y3176965D01*
X8556285Y3176965D01*
X8810285Y3176965D02*
X8810285Y3233534D01*
X8753716Y3233534D01*
X8753716Y3176965D01*
X8810285Y3176965D01*
X9064285Y3176965D02*
X9064285Y3233534D01*
X9007716Y3233534D01*
X9007716Y3176965D01*
X9064285Y3176965D01*
X9318285Y3176965D02*
X9318285Y3233534D01*
X9261716Y3233534D01*
X9261716Y3176965D01*
X9318285Y3176965D01*
D15*
X892000Y4614000D02*
X943000Y4665000D01*
X892000Y4716000D01*
X841000Y4665000D01*
X892000Y4614000D01*
X892000Y4314000D02*
X943000Y4365000D01*
X892000Y4416000D01*
X841000Y4365000D01*
X892000Y4314000D01*
X892000Y3369000D02*
X943000Y3420000D01*
X892000Y3471000D01*
X841000Y3420000D01*
X892000Y3369000D01*
X892000Y3069000D02*
X943000Y3120000D01*
X892000Y3171000D01*
X841000Y3120000D01*
X892000Y3069000D01*
X892000Y2124000D02*
X943000Y2175000D01*
X892000Y2226000D01*
X841000Y2175000D01*
X892000Y2124000D01*
X892000Y1824000D02*
X943000Y1875000D01*
X892000Y1926000D01*
X841000Y1875000D01*
X892000Y1824000D01*
X892000Y1524000D02*
X943000Y1575000D01*
X892000Y1626000D01*
X841000Y1575000D01*
X892000Y1524000D01*
X892000Y579000D02*
X943000Y630000D01*
X892000Y681000D01*
X841000Y630000D01*
X892000Y579000D01*
X892000Y279000D02*
X943000Y330000D01*
X892000Y381000D01*
X841000Y330000D01*
X892000Y279000D01*
X2390000Y4057000D02*
X2441000Y4108000D01*
X2390000Y4159000D01*
X2339000Y4108000D01*
X2390000Y4057000D01*
X2690000Y4057000D02*
X2741000Y4108000D01*
X2690000Y4159000D01*
X2639000Y4108000D01*
X2690000Y4057000D01*
X3511500Y4057000D02*
X3562500Y4108000D01*
X3511500Y4159000D01*
X3460500Y4108000D01*
X3511500Y4057000D01*
X3811500Y4057000D02*
X3862500Y4108000D01*
X3811500Y4159000D01*
X3760500Y4108000D01*
X3811500Y4057000D01*
X4633000Y4057000D02*
X4684000Y4108000D01*
X4633000Y4159000D01*
X4582000Y4108000D01*
X4633000Y4057000D01*
X4933000Y4057000D02*
X4984000Y4108000D01*
X4933000Y4159000D01*
X4882000Y4108000D01*
X4933000Y4057000D01*
X5233000Y4057000D02*
X5284000Y4108000D01*
X5233000Y4159000D01*
X5182000Y4108000D01*
X5233000Y4057000D01*
D16*
X5182000Y3522000D02*
X5286000Y3418000D01*
X5286000Y3522000D02*
X5182000Y3418000D01*
X5286000Y3470000D02*
G75*
G03*
X5286000Y3470000I-52000J0D01*
G01*
X5182000Y982000D02*
X5286000Y878000D01*
X5286000Y982000D02*
X5182000Y878000D01*
X5286000Y930000D02*
G75*
G03*
X5286000Y930000I-52000J0D01*
G01*
X5436000Y3522000D02*
X5540000Y3418000D01*
X5540000Y3522000D02*
X5436000Y3418000D01*
X5540000Y3470000D02*
G75*
G03*
X5540000Y3470000I-52000J0D01*
G01*
X5436000Y982000D02*
X5540000Y878000D01*
X5540000Y982000D02*
X5436000Y878000D01*
X5540000Y930000D02*
G75*
G03*
X5540000Y930000I-52000J0D01*
G01*
X5690000Y3522000D02*
X5794000Y3418000D01*
X5794000Y3522000D02*
X5690000Y3418000D01*
X5794000Y3470000D02*
G75*
G03*
X5794000Y3470000I-52000J0D01*
G01*
X5690000Y982000D02*
X5794000Y878000D01*
X5794000Y982000D02*
X5690000Y878000D01*
X5794000Y930000D02*
G75*
G03*
X5794000Y930000I-52000J0D01*
G01*
X5944000Y3522000D02*
X6048000Y3418000D01*
X6048000Y3522000D02*
X5944000Y3418000D01*
X6048000Y3470000D02*
G75*
G03*
X6048000Y3470000I-52000J0D01*
G01*
X5944000Y982000D02*
X6048000Y878000D01*
X6048000Y982000D02*
X5944000Y878000D01*
X6048000Y930000D02*
G75*
G03*
X6048000Y930000I-52000J0D01*
G01*
X6198000Y3522000D02*
X6302000Y3418000D01*
X6302000Y3522000D02*
X6198000Y3418000D01*
X6302000Y3470000D02*
G75*
G03*
X6302000Y3470000I-52000J0D01*
G01*
X6198000Y982000D02*
X6302000Y878000D01*
X6302000Y982000D02*
X6198000Y878000D01*
X6302000Y930000D02*
G75*
G03*
X6302000Y930000I-52000J0D01*
G01*
X6452000Y3522000D02*
X6556000Y3418000D01*
X6556000Y3522000D02*
X6452000Y3418000D01*
X6556000Y3470000D02*
G75*
G03*
X6556000Y3470000I-52000J0D01*
G01*
X6452000Y982000D02*
X6556000Y878000D01*
X6556000Y982000D02*
X6452000Y878000D01*
X6556000Y930000D02*
G75*
G03*
X6556000Y930000I-52000J0D01*
G01*
X6706000Y3522000D02*
X6810000Y3418000D01*
X6810000Y3522000D02*
X6706000Y3418000D01*
X6810000Y3470000D02*
G75*
G03*
X6810000Y3470000I-52000J0D01*
G01*
X6706000Y982000D02*
X6810000Y878000D01*
X6810000Y982000D02*
X6706000Y878000D01*
X6810000Y930000D02*
G75*
G03*
X6810000Y930000I-52000J0D01*
G01*
X6960000Y3522000D02*
X7064000Y3418000D01*
X7064000Y3522000D02*
X6960000Y3418000D01*
X7064000Y3470000D02*
G75*
G03*
X7064000Y3470000I-52000J0D01*
G01*
X6960000Y982000D02*
X7064000Y878000D01*
X7064000Y982000D02*
X6960000Y878000D01*
X7064000Y930000D02*
G75*
G03*
X7064000Y930000I-52000J0D01*
G01*
X7214000Y3522000D02*
X7318000Y3418000D01*
X7318000Y3522000D02*
X7214000Y3418000D01*
X7318000Y3470000D02*
G75*
G03*
X7318000Y3470000I-52000J0D01*
G01*
X7214000Y982000D02*
X7318000Y878000D01*
X7318000Y982000D02*
X7214000Y878000D01*
X7318000Y930000D02*
G75*
G03*
X7318000Y930000I-52000J0D01*
G01*
X7468000Y3522000D02*
X7572000Y3418000D01*
X7572000Y3522000D02*
X7468000Y3418000D01*
X7572000Y3470000D02*
G75*
G03*
X7572000Y3470000I-52000J0D01*
G01*
X7468000Y982000D02*
X7572000Y878000D01*
X7572000Y982000D02*
X7468000Y878000D01*
X7572000Y930000D02*
G75*
G03*
X7572000Y930000I-52000J0D01*
G01*
X7722000Y3522000D02*
X7826000Y3418000D01*
X7826000Y3522000D02*
X7722000Y3418000D01*
X7826000Y3470000D02*
G75*
G03*
X7826000Y3470000I-52000J0D01*
G01*
X7722000Y982000D02*
X7826000Y878000D01*
X7826000Y982000D02*
X7722000Y878000D01*
X7826000Y930000D02*
G75*
G03*
X7826000Y930000I-52000J0D01*
G01*
X7976000Y3522000D02*
X8080000Y3418000D01*
X8080000Y3522000D02*
X7976000Y3418000D01*
X8080000Y3470000D02*
G75*
G03*
X8080000Y3470000I-52000J0D01*
G01*
X7976000Y982000D02*
X8080000Y878000D01*
X8080000Y982000D02*
X7976000Y878000D01*
X8080000Y930000D02*
G75*
G03*
X8080000Y930000I-52000J0D01*
G01*
X8230000Y3522000D02*
X8334000Y3418000D01*
X8334000Y3522000D02*
X8230000Y3418000D01*
X8334000Y3470000D02*
G75*
G03*
X8334000Y3470000I-52000J0D01*
G01*
X8230000Y982000D02*
X8334000Y878000D01*
X8334000Y982000D02*
X8230000Y878000D01*
X8334000Y930000D02*
G75*
G03*
X8334000Y930000I-52000J0D01*
G01*
X8484000Y3522000D02*
X8588000Y3418000D01*
X8588000Y3522000D02*
X8484000Y3418000D01*
X8588000Y3470000D02*
G75*
G03*
X8588000Y3470000I-52000J0D01*
G01*
X8484000Y982000D02*
X8588000Y878000D01*
X8588000Y982000D02*
X8484000Y878000D01*
X8588000Y930000D02*
G75*
G03*
X8588000Y930000I-52000J0D01*
G01*
X8738000Y3522000D02*
X8842000Y3418000D01*
X8842000Y3522000D02*
X8738000Y3418000D01*
X8842000Y3470000D02*
G75*
G03*
X8842000Y3470000I-52000J0D01*
G01*
X8738000Y982000D02*
X8842000Y878000D01*
X8842000Y982000D02*
X8738000Y878000D01*
X8842000Y930000D02*
G75*
G03*
X8842000Y930000I-52000J0D01*
G01*
X8992000Y3522000D02*
X9096000Y3418000D01*
X9096000Y3522000D02*
X8992000Y3418000D01*
X9096000Y3470000D02*
G75*
G03*
X9096000Y3470000I-52000J0D01*
G01*
X8992000Y982000D02*
X9096000Y878000D01*
X9096000Y982000D02*
X8992000Y878000D01*
X9096000Y930000D02*
G75*
G03*
X9096000Y930000I-52000J0D01*
G01*
X9246000Y3522000D02*
X9350000Y3418000D01*
X9350000Y3522000D02*
X9246000Y3418000D01*
X9350000Y3470000D02*
G75*
G03*
X9350000Y3470000I-52000J0D01*
G01*
X9246000Y982000D02*
X9350000Y878000D01*
X9350000Y982000D02*
X9246000Y878000D01*
X9350000Y930000D02*
G75*
G03*
X9350000Y930000I-52000J0D01*
G01*
X9500000Y3522000D02*
X9604000Y3418000D01*
X9604000Y3522000D02*
X9500000Y3418000D01*
X9604000Y3470000D02*
G75*
G03*
X9604000Y3470000I-52000J0D01*
G01*
X9500000Y982000D02*
X9604000Y878000D01*
X9604000Y982000D02*
X9500000Y878000D01*
X9604000Y930000D02*
G75*
G03*
X9604000Y930000I-52000J0D01*
G01*
X9754000Y3522000D02*
X9858000Y3418000D01*
X9858000Y3522000D02*
X9754000Y3418000D01*
X9858000Y3470000D02*
G75*
G03*
X9858000Y3470000I-52000J0D01*
G01*
X9754000Y982000D02*
X9858000Y878000D01*
X9858000Y982000D02*
X9754000Y878000D01*
X9858000Y930000D02*
G75*
G03*
X9858000Y930000I-52000J0D01*
G01*
D17*
X6177000Y4727000D02*
X6287000Y4617000D01*
X6287000Y4727000D02*
X6177000Y4617000D01*
X6232000Y4727000D02*
X6232000Y4617000D01*
X6177000Y4672000D02*
X6287000Y4672000D01*
X6177000Y4473000D02*
X6287000Y4363000D01*
X6287000Y4473000D02*
X6177000Y4363000D01*
X6232000Y4473000D02*
X6232000Y4363000D01*
X6177000Y4418000D02*
X6287000Y4418000D01*
X6431000Y4727000D02*
X6541000Y4617000D01*
X6541000Y4727000D02*
X6431000Y4617000D01*
X6486000Y4727000D02*
X6486000Y4617000D01*
X6431000Y4672000D02*
X6541000Y4672000D01*
X6431000Y4473000D02*
X6541000Y4363000D01*
X6541000Y4473000D02*
X6431000Y4363000D01*
X6486000Y4473000D02*
X6486000Y4363000D01*
X6431000Y4418000D02*
X6541000Y4418000D01*
X6685000Y4727000D02*
X6795000Y4617000D01*
X6795000Y4727000D02*
X6685000Y4617000D01*
X6740000Y4727000D02*
X6740000Y4617000D01*
X6685000Y4672000D02*
X6795000Y4672000D01*
X6685000Y4473000D02*
X6795000Y4363000D01*
X6795000Y4473000D02*
X6685000Y4363000D01*
X6740000Y4473000D02*
X6740000Y4363000D01*
X6685000Y4418000D02*
X6795000Y4418000D01*
X6939000Y4727000D02*
X7049000Y4617000D01*
X7049000Y4727000D02*
X6939000Y4617000D01*
X6994000Y4727000D02*
X6994000Y4617000D01*
X6939000Y4672000D02*
X7049000Y4672000D01*
X6939000Y4473000D02*
X7049000Y4363000D01*
X7049000Y4473000D02*
X6939000Y4363000D01*
X6994000Y4473000D02*
X6994000Y4363000D01*
X6939000Y4418000D02*
X7049000Y4418000D01*
X7193000Y4727000D02*
X7303000Y4617000D01*
X7303000Y4727000D02*
X7193000Y4617000D01*
X7248000Y4727000D02*
X7248000Y4617000D01*
X7193000Y4672000D02*
X7303000Y4672000D01*
X7193000Y4473000D02*
X7303000Y4363000D01*
X7303000Y4473000D02*
X7193000Y4363000D01*
X7248000Y4473000D02*
X7248000Y4363000D01*
X7193000Y4418000D02*
X7303000Y4418000D01*
D18*
X1550000Y4710000D02*
X1770000Y4490000D01*
X1770000Y4710000D02*
X1550000Y4490000D01*
X1737782Y4522218D02*
X1737782Y4677783D01*
X1582217Y4677783D01*
X1582217Y4522218D01*
X1737782Y4522218D01*
X1550000Y510000D02*
X1770000Y290000D01*
X1770000Y510000D02*
X1550000Y290000D01*
X1737782Y322218D02*
X1737782Y477782D01*
X1582217Y477782D01*
X1582217Y322218D01*
X1737782Y322218D01*
X8190000Y4710000D02*
X8410000Y4490000D01*
X8410000Y4710000D02*
X8190000Y4490000D01*
X8377782Y4522218D02*
X8377782Y4677783D01*
X8222217Y4677783D01*
X8222217Y4522218D01*
X8377782Y4522218D01*
X8190000Y510000D02*
X8410000Y290000D01*
X8410000Y510000D02*
X8190000Y290000D01*
X8377782Y322218D02*
X8377782Y477782D01*
X8222217Y477782D01*
X8222217Y322218D01*
X8377782Y322218D01*
D11*
X252619Y-315476D02*
X252619Y-115476D01*
X300238Y-115476D01*
X328810Y-125000D01*
X347857Y-144048D01*
X357381Y-163095D01*
X366905Y-201190D01*
X366905Y-229762D01*
X357381Y-267857D01*
X347857Y-286905D01*
X328810Y-305952D01*
X300238Y-315476D01*
X252619Y-315476D01*
X452619Y-315476D02*
X452619Y-182143D01*
X452619Y-220238D02*
X462143Y-201190D01*
X471667Y-191667D01*
X490714Y-182143D01*
X509762Y-182143D01*
X576429Y-315476D02*
X576429Y-182143D01*
X576429Y-115476D02*
X566905Y-125000D01*
X576429Y-134524D01*
X585952Y-125000D01*
X576429Y-115476D01*
X576429Y-134524D01*
X700238Y-315476D02*
X681190Y-305952D01*
X671667Y-286905D01*
X671667Y-115476D01*
X805000Y-315476D02*
X785952Y-305952D01*
X776428Y-286905D01*
X776428Y-115476D01*
X1033571Y-315476D02*
X1033571Y-115476D01*
X1100238Y-258333D01*
X1166905Y-115476D01*
X1166905Y-315476D01*
X1347857Y-315476D02*
X1347857Y-210714D01*
X1338333Y-191667D01*
X1319286Y-182143D01*
X1281190Y-182143D01*
X1262143Y-191667D01*
X1347857Y-305952D02*
X1328810Y-315476D01*
X1281190Y-315476D01*
X1262143Y-305952D01*
X1252619Y-286905D01*
X1252619Y-267857D01*
X1262143Y-248809D01*
X1281190Y-239286D01*
X1328810Y-239286D01*
X1347857Y-229762D01*
X1443095Y-182143D02*
X1443095Y-382143D01*
X1443095Y-191667D02*
X1462143Y-182143D01*
X1500238Y-182143D01*
X1519286Y-191667D01*
X1528809Y-201190D01*
X1538333Y-220238D01*
X1538333Y-277381D01*
X1528809Y-296429D01*
X1519286Y-305952D01*
X1500238Y-315476D01*
X1462143Y-315476D01*
X1443095Y-305952D01*
X1624048Y-296429D02*
X1633571Y-305952D01*
X1624048Y-315476D01*
X1614524Y-305952D01*
X1624048Y-296429D01*
X1624048Y-315476D01*
X1624048Y-191667D02*
X1633571Y-201190D01*
X1624048Y-210714D01*
X1614524Y-201190D01*
X1624048Y-191667D01*
X1624048Y-210714D01*
D12*
X-45000Y-625000D02*
X-5000Y-665000D01*
X-5000Y-625000D02*
X-45000Y-665000D01*
D11*
X290714Y-535476D02*
X309762Y-535476D01*
X328810Y-545000D01*
X338333Y-554524D01*
X347857Y-573571D01*
X357381Y-611667D01*
X357381Y-659286D01*
X347857Y-697381D01*
X338333Y-716428D01*
X328810Y-725952D01*
X309762Y-735476D01*
X290714Y-735476D01*
X271667Y-725952D01*
X262143Y-716428D01*
X252619Y-697381D01*
X243095Y-659286D01*
X243095Y-611667D01*
X252619Y-573571D01*
X262143Y-554524D01*
X271667Y-545000D01*
X290714Y-535476D01*
X443095Y-716428D02*
X452619Y-725952D01*
X443095Y-735476D01*
X433571Y-725952D01*
X443095Y-716428D01*
X443095Y-735476D01*
X624048Y-602143D02*
X624048Y-735476D01*
X576429Y-525952D02*
X528810Y-668810D01*
X652619Y-668810D01*
X766905Y-535476D02*
X785952Y-535476D01*
X805000Y-545000D01*
X814524Y-554524D01*
X824048Y-573571D01*
X833571Y-611667D01*
X833571Y-659286D01*
X824048Y-697381D01*
X814524Y-716428D01*
X805000Y-725952D01*
X785952Y-735476D01*
X766905Y-735476D01*
X747857Y-725952D01*
X738333Y-716428D01*
X728809Y-697381D01*
X719286Y-659286D01*
X719286Y-611667D01*
X728809Y-573571D01*
X738333Y-554524D01*
X747857Y-545000D01*
X766905Y-535476D01*
X957381Y-535476D02*
X976428Y-535476D01*
X995476Y-545000D01*
X1005000Y-554524D01*
X1014524Y-573571D01*
X1024048Y-611667D01*
X1024048Y-659286D01*
X1014524Y-697381D01*
X1005000Y-716428D01*
X995476Y-725952D01*
X976428Y-735476D01*
X957381Y-735476D01*
X938333Y-725952D01*
X928809Y-716428D01*
X919286Y-697381D01*
X909762Y-659286D01*
X909762Y-611667D01*
X919286Y-573571D01*
X928809Y-554524D01*
X938333Y-545000D01*
X957381Y-535476D01*
X1109762Y-735476D02*
X1109762Y-602143D01*
X1109762Y-621190D02*
X1119286Y-611667D01*
X1138333Y-602143D01*
X1166905Y-602143D01*
X1185952Y-611667D01*
X1195476Y-630714D01*
X1195476Y-735476D01*
X1195476Y-630714D02*
X1205000Y-611667D01*
X1224048Y-602143D01*
X1252619Y-602143D01*
X1271667Y-611667D01*
X1281190Y-630714D01*
X1281190Y-735476D01*
X1376429Y-735476D02*
X1376429Y-602143D01*
X1376429Y-621190D02*
X1385952Y-611667D01*
X1405000Y-602143D01*
X1433571Y-602143D01*
X1452619Y-611667D01*
X1462143Y-630714D01*
X1462143Y-735476D01*
X1462143Y-630714D02*
X1471667Y-611667D01*
X1490714Y-602143D01*
X1519286Y-602143D01*
X1538333Y-611667D01*
X1547857Y-630714D01*
X1547857Y-735476D01*
X1938333Y-525952D02*
X1766905Y-783095D01*
X2195476Y-535476D02*
X2214524Y-535476D01*
X2233571Y-545000D01*
X2243095Y-554524D01*
X2252619Y-573571D01*
X2262143Y-611667D01*
X2262143Y-659286D01*
X2252619Y-697381D01*
X2243095Y-716428D01*
X2233571Y-725952D01*
X2214524Y-735476D01*
X2195476Y-735476D01*
X2176429Y-725952D01*
X2166905Y-716428D01*
X2157381Y-697381D01*
X2147857Y-659286D01*
X2147857Y-611667D01*
X2157381Y-573571D01*
X2166905Y-554524D01*
X2176429Y-545000D01*
X2195476Y-535476D01*
X2347857Y-716428D02*
X2357381Y-725952D01*
X2347857Y-735476D01*
X2338333Y-725952D01*
X2347857Y-716428D01*
X2347857Y-735476D01*
X2481190Y-535476D02*
X2500238Y-535476D01*
X2519286Y-545000D01*
X2528810Y-554524D01*
X2538333Y-573571D01*
X2547857Y-611667D01*
X2547857Y-659286D01*
X2538333Y-697381D01*
X2528810Y-716428D01*
X2519286Y-725952D01*
X2500238Y-735476D01*
X2481190Y-735476D01*
X2462143Y-725952D01*
X2452619Y-716428D01*
X2443095Y-697381D01*
X2433571Y-659286D01*
X2433571Y-611667D01*
X2443095Y-573571D01*
X2452619Y-554524D01*
X2462143Y-545000D01*
X2481190Y-535476D01*
X2738333Y-735476D02*
X2624048Y-735476D01*
X2681190Y-735476D02*
X2681190Y-535476D01*
X2662143Y-564048D01*
X2643095Y-583095D01*
X2624048Y-592619D01*
X2919286Y-535476D02*
X2824048Y-535476D01*
X2814524Y-630714D01*
X2824048Y-621190D01*
X2843095Y-611667D01*
X2890714Y-611667D01*
X2909762Y-621190D01*
X2919286Y-630714D01*
X2928809Y-649762D01*
X2928809Y-697381D01*
X2919286Y-716428D01*
X2909762Y-725952D01*
X2890714Y-735476D01*
X2843095Y-735476D01*
X2824048Y-725952D01*
X2814524Y-716428D01*
X2995476Y-535476D02*
X3128809Y-535476D01*
X3043095Y-735476D01*
X3195476Y-535476D02*
X3195476Y-573571D01*
X3271667Y-535476D02*
X3271667Y-573571D01*
X3566905Y-811667D02*
X3557381Y-802143D01*
X3538333Y-773571D01*
X3528809Y-754524D01*
X3519286Y-725952D01*
X3509762Y-678333D01*
X3509762Y-640238D01*
X3519286Y-592619D01*
X3528809Y-564048D01*
X3538333Y-545000D01*
X3557381Y-516428D01*
X3566905Y-506905D01*
X3633571Y-554524D02*
X3643095Y-545000D01*
X3662143Y-535476D01*
X3709762Y-535476D01*
X3728809Y-545000D01*
X3738333Y-554524D01*
X3747857Y-573571D01*
X3747857Y-592619D01*
X3738333Y-621190D01*
X3624048Y-735476D01*
X3747857Y-735476D01*
X3919286Y-535476D02*
X3881190Y-535476D01*
X3862143Y-545000D01*
X3852619Y-554524D01*
X3833571Y-583095D01*
X3824048Y-621190D01*
X3824048Y-697381D01*
X3833571Y-716428D01*
X3843095Y-725952D01*
X3862143Y-735476D01*
X3900238Y-735476D01*
X3919286Y-725952D01*
X3928809Y-716428D01*
X3938333Y-697381D01*
X3938333Y-649762D01*
X3928809Y-630714D01*
X3919286Y-621190D01*
X3900238Y-611667D01*
X3862143Y-611667D01*
X3843095Y-621190D01*
X3833571Y-630714D01*
X3824048Y-649762D01*
X4119286Y-535476D02*
X4024048Y-535476D01*
X4014524Y-630714D01*
X4024048Y-621190D01*
X4043095Y-611667D01*
X4090714Y-611667D01*
X4109762Y-621190D01*
X4119286Y-630714D01*
X4128809Y-649762D01*
X4128809Y-697381D01*
X4119286Y-716428D01*
X4109762Y-725952D01*
X4090714Y-735476D01*
X4043095Y-735476D01*
X4024048Y-725952D01*
X4014524Y-716428D01*
X4366905Y-735476D02*
X4366905Y-535476D01*
X4452619Y-735476D02*
X4452619Y-630714D01*
X4443095Y-611667D01*
X4424048Y-602143D01*
X4395476Y-602143D01*
X4376429Y-611667D01*
X4366905Y-621190D01*
X4576429Y-735476D02*
X4557381Y-725952D01*
X4547857Y-716428D01*
X4538333Y-697381D01*
X4538333Y-640238D01*
X4547857Y-621190D01*
X4557381Y-611667D01*
X4576429Y-602143D01*
X4605000Y-602143D01*
X4624048Y-611667D01*
X4633571Y-621190D01*
X4643095Y-640238D01*
X4643095Y-697381D01*
X4633571Y-716428D01*
X4624048Y-725952D01*
X4605000Y-735476D01*
X4576429Y-735476D01*
X4757381Y-735476D02*
X4738333Y-725952D01*
X4728810Y-706905D01*
X4728810Y-535476D01*
X4909762Y-725952D02*
X4890714Y-735476D01*
X4852619Y-735476D01*
X4833571Y-725952D01*
X4824048Y-706905D01*
X4824048Y-630714D01*
X4833571Y-611667D01*
X4852619Y-602143D01*
X4890714Y-602143D01*
X4909762Y-611667D01*
X4919286Y-630714D01*
X4919286Y-649762D01*
X4824048Y-668810D01*
X4995476Y-725952D02*
X5014524Y-735476D01*
X5052619Y-735476D01*
X5071667Y-725952D01*
X5081190Y-706905D01*
X5081190Y-697381D01*
X5071667Y-678333D01*
X5052619Y-668810D01*
X5024048Y-668810D01*
X5005000Y-659286D01*
X4995476Y-640238D01*
X4995476Y-630714D01*
X5005000Y-611667D01*
X5024048Y-602143D01*
X5052619Y-602143D01*
X5071667Y-611667D01*
X5147857Y-811667D02*
X5157381Y-802143D01*
X5176429Y-773571D01*
X5185952Y-754524D01*
X5195476Y-725952D01*
X5205000Y-678333D01*
X5205000Y-640238D01*
X5195476Y-592619D01*
X5185952Y-564048D01*
X5176429Y-545000D01*
X5157381Y-516428D01*
X5147857Y-506905D01*
D12*
X-5000Y-909000D02*
G75*
G03*
X-5000Y-909000I-20000J0D01*
G01*
D11*
X290714Y-799476D02*
X309762Y-799476D01*
X328810Y-809000D01*
X338333Y-818524D01*
X347857Y-837571D01*
X357381Y-875667D01*
X357381Y-923286D01*
X347857Y-961381D01*
X338333Y-980428D01*
X328810Y-989952D01*
X309762Y-999476D01*
X290714Y-999476D01*
X271667Y-989952D01*
X262143Y-980428D01*
X252619Y-961381D01*
X243095Y-923286D01*
X243095Y-875667D01*
X252619Y-837571D01*
X262143Y-818524D01*
X271667Y-809000D01*
X290714Y-799476D01*
X443095Y-980428D02*
X452619Y-989952D01*
X443095Y-999476D01*
X433571Y-989952D01*
X443095Y-980428D01*
X443095Y-999476D01*
X624048Y-866143D02*
X624048Y-999476D01*
X576429Y-789952D02*
X528810Y-932809D01*
X652619Y-932809D01*
X766905Y-799476D02*
X785952Y-799476D01*
X805000Y-809000D01*
X814524Y-818524D01*
X824048Y-837571D01*
X833571Y-875667D01*
X833571Y-923286D01*
X824048Y-961381D01*
X814524Y-980428D01*
X805000Y-989952D01*
X785952Y-999476D01*
X766905Y-999476D01*
X747857Y-989952D01*
X738333Y-980428D01*
X728809Y-961381D01*
X719286Y-923286D01*
X719286Y-875667D01*
X728809Y-837571D01*
X738333Y-818524D01*
X747857Y-809000D01*
X766905Y-799476D01*
X957381Y-799476D02*
X976428Y-799476D01*
X995476Y-809000D01*
X1005000Y-818524D01*
X1014524Y-837571D01*
X1024048Y-875667D01*
X1024048Y-923286D01*
X1014524Y-961381D01*
X1005000Y-980428D01*
X995476Y-989952D01*
X976428Y-999476D01*
X957381Y-999476D01*
X938333Y-989952D01*
X928809Y-980428D01*
X919286Y-961381D01*
X909762Y-923286D01*
X909762Y-875667D01*
X919286Y-837571D01*
X928809Y-818524D01*
X938333Y-809000D01*
X957381Y-799476D01*
X1109762Y-999476D02*
X1109762Y-866143D01*
X1109762Y-885190D02*
X1119286Y-875667D01*
X1138333Y-866143D01*
X1166905Y-866143D01*
X1185952Y-875667D01*
X1195476Y-894714D01*
X1195476Y-999476D01*
X1195476Y-894714D02*
X1205000Y-875667D01*
X1224048Y-866143D01*
X1252619Y-866143D01*
X1271667Y-875667D01*
X1281190Y-894714D01*
X1281190Y-999476D01*
X1376429Y-999476D02*
X1376429Y-866143D01*
X1376429Y-885190D02*
X1385952Y-875667D01*
X1405000Y-866143D01*
X1433571Y-866143D01*
X1452619Y-875667D01*
X1462143Y-894714D01*
X1462143Y-999476D01*
X1462143Y-894714D02*
X1471667Y-875667D01*
X1490714Y-866143D01*
X1519286Y-866143D01*
X1538333Y-875667D01*
X1547857Y-894714D01*
X1547857Y-999476D01*
X1938333Y-789952D02*
X1766905Y-1047095D01*
X2195476Y-799476D02*
X2214524Y-799476D01*
X2233571Y-809000D01*
X2243095Y-818524D01*
X2252619Y-837571D01*
X2262143Y-875667D01*
X2262143Y-923286D01*
X2252619Y-961381D01*
X2243095Y-980428D01*
X2233571Y-989952D01*
X2214524Y-999476D01*
X2195476Y-999476D01*
X2176429Y-989952D01*
X2166905Y-980428D01*
X2157381Y-961381D01*
X2147857Y-923286D01*
X2147857Y-875667D01*
X2157381Y-837571D01*
X2166905Y-818524D01*
X2176429Y-809000D01*
X2195476Y-799476D01*
X2347857Y-980428D02*
X2357381Y-989952D01*
X2347857Y-999476D01*
X2338333Y-989952D01*
X2347857Y-980428D01*
X2347857Y-999476D01*
X2481190Y-799476D02*
X2500238Y-799476D01*
X2519286Y-809000D01*
X2528810Y-818524D01*
X2538333Y-837571D01*
X2547857Y-875667D01*
X2547857Y-923286D01*
X2538333Y-961381D01*
X2528810Y-980428D01*
X2519286Y-989952D01*
X2500238Y-999476D01*
X2481190Y-999476D01*
X2462143Y-989952D01*
X2452619Y-980428D01*
X2443095Y-961381D01*
X2433571Y-923286D01*
X2433571Y-875667D01*
X2443095Y-837571D01*
X2452619Y-818524D01*
X2462143Y-809000D01*
X2481190Y-799476D01*
X2738333Y-999476D02*
X2624048Y-999476D01*
X2681190Y-999476D02*
X2681190Y-799476D01*
X2662143Y-828048D01*
X2643095Y-847095D01*
X2624048Y-856619D01*
X2919286Y-799476D02*
X2824048Y-799476D01*
X2814524Y-894714D01*
X2824048Y-885190D01*
X2843095Y-875667D01*
X2890714Y-875667D01*
X2909762Y-885190D01*
X2919286Y-894714D01*
X2928809Y-913762D01*
X2928809Y-961381D01*
X2919286Y-980428D01*
X2909762Y-989952D01*
X2890714Y-999476D01*
X2843095Y-999476D01*
X2824048Y-989952D01*
X2814524Y-980428D01*
X2995476Y-799476D02*
X3128809Y-799476D01*
X3043095Y-999476D01*
X3195476Y-799476D02*
X3195476Y-837571D01*
X3271667Y-799476D02*
X3271667Y-837571D01*
X3566905Y-1075667D02*
X3557381Y-1066143D01*
X3538333Y-1037571D01*
X3528809Y-1018524D01*
X3519286Y-989952D01*
X3509762Y-942333D01*
X3509762Y-904238D01*
X3519286Y-856619D01*
X3528809Y-828048D01*
X3538333Y-809000D01*
X3557381Y-780428D01*
X3566905Y-770905D01*
X3624048Y-799476D02*
X3747857Y-799476D01*
X3681190Y-875667D01*
X3709762Y-875667D01*
X3728809Y-885190D01*
X3738333Y-894714D01*
X3747857Y-913762D01*
X3747857Y-961381D01*
X3738333Y-980428D01*
X3728809Y-989952D01*
X3709762Y-999476D01*
X3652619Y-999476D01*
X3633571Y-989952D01*
X3624048Y-980428D01*
X3824048Y-818524D02*
X3833571Y-809000D01*
X3852619Y-799476D01*
X3900238Y-799476D01*
X3919286Y-809000D01*
X3928809Y-818524D01*
X3938333Y-837571D01*
X3938333Y-856619D01*
X3928809Y-885190D01*
X3814524Y-999476D01*
X3938333Y-999476D01*
X4176428Y-999476D02*
X4176428Y-799476D01*
X4262143Y-999476D02*
X4262143Y-894714D01*
X4252619Y-875667D01*
X4233571Y-866143D01*
X4205000Y-866143D01*
X4185952Y-875667D01*
X4176428Y-885190D01*
X4385952Y-999476D02*
X4366905Y-989952D01*
X4357381Y-980428D01*
X4347857Y-961381D01*
X4347857Y-904238D01*
X4357381Y-885190D01*
X4366905Y-875667D01*
X4385952Y-866143D01*
X4414524Y-866143D01*
X4433571Y-875667D01*
X4443095Y-885190D01*
X4452619Y-904238D01*
X4452619Y-961381D01*
X4443095Y-980428D01*
X4433571Y-989952D01*
X4414524Y-999476D01*
X4385952Y-999476D01*
X4566905Y-999476D02*
X4547857Y-989952D01*
X4538333Y-970905D01*
X4538333Y-799476D01*
X4719286Y-989952D02*
X4700238Y-999476D01*
X4662143Y-999476D01*
X4643095Y-989952D01*
X4633571Y-970905D01*
X4633571Y-894714D01*
X4643095Y-875667D01*
X4662143Y-866143D01*
X4700238Y-866143D01*
X4719286Y-875667D01*
X4728810Y-894714D01*
X4728810Y-913762D01*
X4633571Y-932809D01*
X4805000Y-989952D02*
X4824048Y-999476D01*
X4862143Y-999476D01*
X4881190Y-989952D01*
X4890714Y-970905D01*
X4890714Y-961381D01*
X4881190Y-942333D01*
X4862143Y-932809D01*
X4833571Y-932809D01*
X4814524Y-923286D01*
X4805000Y-904238D01*
X4805000Y-894714D01*
X4814524Y-875667D01*
X4833571Y-866143D01*
X4862143Y-866143D01*
X4881190Y-875667D01*
X4957381Y-1075667D02*
X4966905Y-1066143D01*
X4985952Y-1037571D01*
X4995476Y-1018524D01*
X5005000Y-989952D01*
X5014524Y-942333D01*
X5014524Y-904238D01*
X5005000Y-856619D01*
X4995476Y-828048D01*
X4985952Y-809000D01*
X4966905Y-780428D01*
X4957381Y-770905D01*
D13*
X-30000Y-1148000D02*
X-30000Y-1198000D01*
X-55000Y-1173000D02*
X-5000Y-1173000D01*
D11*
X290714Y-1063476D02*
X309762Y-1063476D01*
X328810Y-1073000D01*
X338333Y-1082524D01*
X347857Y-1101571D01*
X357381Y-1139667D01*
X357381Y-1187286D01*
X347857Y-1225381D01*
X338333Y-1244429D01*
X328810Y-1253952D01*
X309762Y-1263476D01*
X290714Y-1263476D01*
X271667Y-1253952D01*
X262143Y-1244429D01*
X252619Y-1225381D01*
X243095Y-1187286D01*
X243095Y-1139667D01*
X252619Y-1101571D01*
X262143Y-1082524D01*
X271667Y-1073000D01*
X290714Y-1063476D01*
X443095Y-1244429D02*
X452619Y-1253952D01*
X443095Y-1263476D01*
X433571Y-1253952D01*
X443095Y-1244429D01*
X443095Y-1263476D01*
X633571Y-1063476D02*
X538333Y-1063476D01*
X528810Y-1158714D01*
X538333Y-1149190D01*
X557381Y-1139667D01*
X605000Y-1139667D01*
X624048Y-1149190D01*
X633571Y-1158714D01*
X643095Y-1177762D01*
X643095Y-1225381D01*
X633571Y-1244429D01*
X624048Y-1253952D01*
X605000Y-1263476D01*
X557381Y-1263476D01*
X538333Y-1253952D01*
X528810Y-1244429D01*
X766905Y-1063476D02*
X785952Y-1063476D01*
X805000Y-1073000D01*
X814524Y-1082524D01*
X824048Y-1101571D01*
X833571Y-1139667D01*
X833571Y-1187286D01*
X824048Y-1225381D01*
X814524Y-1244429D01*
X805000Y-1253952D01*
X785952Y-1263476D01*
X766905Y-1263476D01*
X747857Y-1253952D01*
X738333Y-1244429D01*
X728809Y-1225381D01*
X719286Y-1187286D01*
X719286Y-1139667D01*
X728809Y-1101571D01*
X738333Y-1082524D01*
X747857Y-1073000D01*
X766905Y-1063476D01*
X957381Y-1063476D02*
X976428Y-1063476D01*
X995476Y-1073000D01*
X1005000Y-1082524D01*
X1014524Y-1101571D01*
X1024048Y-1139667D01*
X1024048Y-1187286D01*
X1014524Y-1225381D01*
X1005000Y-1244429D01*
X995476Y-1253952D01*
X976428Y-1263476D01*
X957381Y-1263476D01*
X938333Y-1253952D01*
X928809Y-1244429D01*
X919286Y-1225381D01*
X909762Y-1187286D01*
X909762Y-1139667D01*
X919286Y-1101571D01*
X928809Y-1082524D01*
X938333Y-1073000D01*
X957381Y-1063476D01*
X1109762Y-1263476D02*
X1109762Y-1130143D01*
X1109762Y-1149190D02*
X1119286Y-1139667D01*
X1138333Y-1130143D01*
X1166905Y-1130143D01*
X1185952Y-1139667D01*
X1195476Y-1158714D01*
X1195476Y-1263476D01*
X1195476Y-1158714D02*
X1205000Y-1139667D01*
X1224048Y-1130143D01*
X1252619Y-1130143D01*
X1271667Y-1139667D01*
X1281190Y-1158714D01*
X1281190Y-1263476D01*
X1376429Y-1263476D02*
X1376429Y-1130143D01*
X1376429Y-1149190D02*
X1385952Y-1139667D01*
X1405000Y-1130143D01*
X1433571Y-1130143D01*
X1452619Y-1139667D01*
X1462143Y-1158714D01*
X1462143Y-1263476D01*
X1462143Y-1158714D02*
X1471667Y-1139667D01*
X1490714Y-1130143D01*
X1519286Y-1130143D01*
X1538333Y-1139667D01*
X1547857Y-1158714D01*
X1547857Y-1263476D01*
X1938333Y-1053952D02*
X1766905Y-1311095D01*
X2195476Y-1063476D02*
X2214524Y-1063476D01*
X2233571Y-1073000D01*
X2243095Y-1082524D01*
X2252619Y-1101571D01*
X2262143Y-1139667D01*
X2262143Y-1187286D01*
X2252619Y-1225381D01*
X2243095Y-1244429D01*
X2233571Y-1253952D01*
X2214524Y-1263476D01*
X2195476Y-1263476D01*
X2176429Y-1253952D01*
X2166905Y-1244429D01*
X2157381Y-1225381D01*
X2147857Y-1187286D01*
X2147857Y-1139667D01*
X2157381Y-1101571D01*
X2166905Y-1082524D01*
X2176429Y-1073000D01*
X2195476Y-1063476D01*
X2347857Y-1244429D02*
X2357381Y-1253952D01*
X2347857Y-1263476D01*
X2338333Y-1253952D01*
X2347857Y-1244429D01*
X2347857Y-1263476D01*
X2481190Y-1063476D02*
X2500238Y-1063476D01*
X2519286Y-1073000D01*
X2528810Y-1082524D01*
X2538333Y-1101571D01*
X2547857Y-1139667D01*
X2547857Y-1187286D01*
X2538333Y-1225381D01*
X2528810Y-1244429D01*
X2519286Y-1253952D01*
X2500238Y-1263476D01*
X2481190Y-1263476D01*
X2462143Y-1253952D01*
X2452619Y-1244429D01*
X2443095Y-1225381D01*
X2433571Y-1187286D01*
X2433571Y-1139667D01*
X2443095Y-1101571D01*
X2452619Y-1082524D01*
X2462143Y-1073000D01*
X2481190Y-1063476D01*
X2738333Y-1263476D02*
X2624048Y-1263476D01*
X2681190Y-1263476D02*
X2681190Y-1063476D01*
X2662143Y-1092048D01*
X2643095Y-1111095D01*
X2624048Y-1120619D01*
X2833571Y-1263476D02*
X2871667Y-1263476D01*
X2890714Y-1253952D01*
X2900238Y-1244429D01*
X2919286Y-1215857D01*
X2928809Y-1177762D01*
X2928809Y-1101571D01*
X2919286Y-1082524D01*
X2909762Y-1073000D01*
X2890714Y-1063476D01*
X2852619Y-1063476D01*
X2833571Y-1073000D01*
X2824048Y-1082524D01*
X2814524Y-1101571D01*
X2814524Y-1149190D01*
X2824048Y-1168238D01*
X2833571Y-1177762D01*
X2852619Y-1187286D01*
X2890714Y-1187286D01*
X2909762Y-1177762D01*
X2919286Y-1168238D01*
X2928809Y-1149190D01*
X2995476Y-1063476D02*
X3128809Y-1063476D01*
X3043095Y-1263476D01*
X3195476Y-1063476D02*
X3195476Y-1101571D01*
X3271667Y-1063476D02*
X3271667Y-1101571D01*
X3566905Y-1339667D02*
X3557381Y-1330143D01*
X3538333Y-1301571D01*
X3528809Y-1282524D01*
X3519286Y-1253952D01*
X3509762Y-1206333D01*
X3509762Y-1168238D01*
X3519286Y-1120619D01*
X3528809Y-1092048D01*
X3538333Y-1073000D01*
X3557381Y-1044428D01*
X3566905Y-1034905D01*
X3633571Y-1082524D02*
X3643095Y-1073000D01*
X3662143Y-1063476D01*
X3709762Y-1063476D01*
X3728809Y-1073000D01*
X3738333Y-1082524D01*
X3747857Y-1101571D01*
X3747857Y-1120619D01*
X3738333Y-1149190D01*
X3624048Y-1263476D01*
X3747857Y-1263476D01*
X3985952Y-1263476D02*
X3985952Y-1063476D01*
X4071667Y-1263476D02*
X4071667Y-1158714D01*
X4062143Y-1139667D01*
X4043095Y-1130143D01*
X4014524Y-1130143D01*
X3995476Y-1139667D01*
X3985952Y-1149190D01*
X4195476Y-1263476D02*
X4176428Y-1253952D01*
X4166905Y-1244429D01*
X4157381Y-1225381D01*
X4157381Y-1168238D01*
X4166905Y-1149190D01*
X4176428Y-1139667D01*
X4195476Y-1130143D01*
X4224048Y-1130143D01*
X4243095Y-1139667D01*
X4252619Y-1149190D01*
X4262143Y-1168238D01*
X4262143Y-1225381D01*
X4252619Y-1244429D01*
X4243095Y-1253952D01*
X4224048Y-1263476D01*
X4195476Y-1263476D01*
X4376429Y-1263476D02*
X4357381Y-1253952D01*
X4347857Y-1234905D01*
X4347857Y-1063476D01*
X4528810Y-1253952D02*
X4509762Y-1263476D01*
X4471667Y-1263476D01*
X4452619Y-1253952D01*
X4443095Y-1234905D01*
X4443095Y-1158714D01*
X4452619Y-1139667D01*
X4471667Y-1130143D01*
X4509762Y-1130143D01*
X4528810Y-1139667D01*
X4538333Y-1158714D01*
X4538333Y-1177762D01*
X4443095Y-1196810D01*
X4614524Y-1253952D02*
X4633571Y-1263476D01*
X4671667Y-1263476D01*
X4690714Y-1253952D01*
X4700238Y-1234905D01*
X4700238Y-1225381D01*
X4690714Y-1206333D01*
X4671667Y-1196810D01*
X4643095Y-1196810D01*
X4624048Y-1187286D01*
X4614524Y-1168238D01*
X4614524Y-1158714D01*
X4624048Y-1139667D01*
X4643095Y-1130143D01*
X4671667Y-1130143D01*
X4690714Y-1139667D01*
X4766905Y-1339667D02*
X4776429Y-1330143D01*
X4795476Y-1301571D01*
X4805000Y-1282524D01*
X4814524Y-1253952D01*
X4824048Y-1206333D01*
X4824048Y-1168238D01*
X4814524Y-1120619D01*
X4805000Y-1092048D01*
X4795476Y-1073000D01*
X4776429Y-1044428D01*
X4766905Y-1034905D01*
D14*
X-16716Y-1465284D02*
X-16716Y-1408715D01*
X-73285Y-1408715D01*
X-73285Y-1465284D01*
X-16716Y-1465284D01*
D11*
X290714Y-1327476D02*
X309762Y-1327476D01*
X328810Y-1337000D01*
X338333Y-1346524D01*
X347857Y-1365571D01*
X357381Y-1403667D01*
X357381Y-1451286D01*
X347857Y-1489381D01*
X338333Y-1508428D01*
X328810Y-1517952D01*
X309762Y-1527476D01*
X290714Y-1527476D01*
X271667Y-1517952D01*
X262143Y-1508428D01*
X252619Y-1489381D01*
X243095Y-1451286D01*
X243095Y-1403667D01*
X252619Y-1365571D01*
X262143Y-1346524D01*
X271667Y-1337000D01*
X290714Y-1327476D01*
X443095Y-1508428D02*
X452619Y-1517952D01*
X443095Y-1527476D01*
X433571Y-1517952D01*
X443095Y-1508428D01*
X443095Y-1527476D01*
X566905Y-1413190D02*
X547857Y-1403667D01*
X538333Y-1394143D01*
X528810Y-1375095D01*
X528810Y-1365571D01*
X538333Y-1346524D01*
X547857Y-1337000D01*
X566905Y-1327476D01*
X605000Y-1327476D01*
X624048Y-1337000D01*
X633571Y-1346524D01*
X643095Y-1365571D01*
X643095Y-1375095D01*
X633571Y-1394143D01*
X624048Y-1403667D01*
X605000Y-1413190D01*
X566905Y-1413190D01*
X547857Y-1422714D01*
X538333Y-1432238D01*
X528810Y-1451286D01*
X528810Y-1489381D01*
X538333Y-1508428D01*
X547857Y-1517952D01*
X566905Y-1527476D01*
X605000Y-1527476D01*
X624048Y-1517952D01*
X633571Y-1508428D01*
X643095Y-1489381D01*
X643095Y-1451286D01*
X633571Y-1432238D01*
X624048Y-1422714D01*
X605000Y-1413190D01*
X766905Y-1327476D02*
X785952Y-1327476D01*
X805000Y-1337000D01*
X814524Y-1346524D01*
X824048Y-1365571D01*
X833571Y-1403667D01*
X833571Y-1451286D01*
X824048Y-1489381D01*
X814524Y-1508428D01*
X805000Y-1517952D01*
X785952Y-1527476D01*
X766905Y-1527476D01*
X747857Y-1517952D01*
X738333Y-1508428D01*
X728809Y-1489381D01*
X719286Y-1451286D01*
X719286Y-1403667D01*
X728809Y-1365571D01*
X738333Y-1346524D01*
X747857Y-1337000D01*
X766905Y-1327476D01*
X957381Y-1327476D02*
X976428Y-1327476D01*
X995476Y-1337000D01*
X1005000Y-1346524D01*
X1014524Y-1365571D01*
X1024048Y-1403667D01*
X1024048Y-1451286D01*
X1014524Y-1489381D01*
X1005000Y-1508428D01*
X995476Y-1517952D01*
X976428Y-1527476D01*
X957381Y-1527476D01*
X938333Y-1517952D01*
X928809Y-1508428D01*
X919286Y-1489381D01*
X909762Y-1451286D01*
X909762Y-1403667D01*
X919286Y-1365571D01*
X928809Y-1346524D01*
X938333Y-1337000D01*
X957381Y-1327476D01*
X1109762Y-1527476D02*
X1109762Y-1394143D01*
X1109762Y-1413190D02*
X1119286Y-1403667D01*
X1138333Y-1394143D01*
X1166905Y-1394143D01*
X1185952Y-1403667D01*
X1195476Y-1422714D01*
X1195476Y-1527476D01*
X1195476Y-1422714D02*
X1205000Y-1403667D01*
X1224048Y-1394143D01*
X1252619Y-1394143D01*
X1271667Y-1403667D01*
X1281190Y-1422714D01*
X1281190Y-1527476D01*
X1376429Y-1527476D02*
X1376429Y-1394143D01*
X1376429Y-1413190D02*
X1385952Y-1403667D01*
X1405000Y-1394143D01*
X1433571Y-1394143D01*
X1452619Y-1403667D01*
X1462143Y-1422714D01*
X1462143Y-1527476D01*
X1462143Y-1422714D02*
X1471667Y-1403667D01*
X1490714Y-1394143D01*
X1519286Y-1394143D01*
X1538333Y-1403667D01*
X1547857Y-1422714D01*
X1547857Y-1527476D01*
X1938333Y-1317952D02*
X1766905Y-1575095D01*
X2195476Y-1327476D02*
X2214524Y-1327476D01*
X2233571Y-1337000D01*
X2243095Y-1346524D01*
X2252619Y-1365571D01*
X2262143Y-1403667D01*
X2262143Y-1451286D01*
X2252619Y-1489381D01*
X2243095Y-1508428D01*
X2233571Y-1517952D01*
X2214524Y-1527476D01*
X2195476Y-1527476D01*
X2176429Y-1517952D01*
X2166905Y-1508428D01*
X2157381Y-1489381D01*
X2147857Y-1451286D01*
X2147857Y-1403667D01*
X2157381Y-1365571D01*
X2166905Y-1346524D01*
X2176429Y-1337000D01*
X2195476Y-1327476D01*
X2347857Y-1508428D02*
X2357381Y-1517952D01*
X2347857Y-1527476D01*
X2338333Y-1517952D01*
X2347857Y-1508428D01*
X2347857Y-1527476D01*
X2481190Y-1327476D02*
X2500238Y-1327476D01*
X2519286Y-1337000D01*
X2528810Y-1346524D01*
X2538333Y-1365571D01*
X2547857Y-1403667D01*
X2547857Y-1451286D01*
X2538333Y-1489381D01*
X2528810Y-1508428D01*
X2519286Y-1517952D01*
X2500238Y-1527476D01*
X2481190Y-1527476D01*
X2462143Y-1517952D01*
X2452619Y-1508428D01*
X2443095Y-1489381D01*
X2433571Y-1451286D01*
X2433571Y-1403667D01*
X2443095Y-1365571D01*
X2452619Y-1346524D01*
X2462143Y-1337000D01*
X2481190Y-1327476D01*
X2614524Y-1327476D02*
X2738333Y-1327476D01*
X2671667Y-1403667D01*
X2700238Y-1403667D01*
X2719286Y-1413190D01*
X2728810Y-1422714D01*
X2738333Y-1441762D01*
X2738333Y-1489381D01*
X2728810Y-1508428D01*
X2719286Y-1517952D01*
X2700238Y-1527476D01*
X2643095Y-1527476D01*
X2624048Y-1517952D01*
X2614524Y-1508428D01*
X2928809Y-1527476D02*
X2814524Y-1527476D01*
X2871667Y-1527476D02*
X2871667Y-1327476D01*
X2852619Y-1356048D01*
X2833571Y-1375095D01*
X2814524Y-1384619D01*
X3109762Y-1327476D02*
X3014524Y-1327476D01*
X3005000Y-1422714D01*
X3014524Y-1413190D01*
X3033571Y-1403667D01*
X3081190Y-1403667D01*
X3100238Y-1413190D01*
X3109762Y-1422714D01*
X3119286Y-1441762D01*
X3119286Y-1489381D01*
X3109762Y-1508428D01*
X3100238Y-1517952D01*
X3081190Y-1527476D01*
X3033571Y-1527476D01*
X3014524Y-1517952D01*
X3005000Y-1508428D01*
X3195476Y-1327476D02*
X3195476Y-1365571D01*
X3271667Y-1327476D02*
X3271667Y-1365571D01*
X3566905Y-1603667D02*
X3557381Y-1594143D01*
X3538333Y-1565571D01*
X3528809Y-1546524D01*
X3519286Y-1517952D01*
X3509762Y-1470333D01*
X3509762Y-1432238D01*
X3519286Y-1384619D01*
X3528809Y-1356048D01*
X3538333Y-1337000D01*
X3557381Y-1308429D01*
X3566905Y-1298905D01*
X3624048Y-1327476D02*
X3747857Y-1327476D01*
X3681190Y-1403667D01*
X3709762Y-1403667D01*
X3728809Y-1413190D01*
X3738333Y-1422714D01*
X3747857Y-1441762D01*
X3747857Y-1489381D01*
X3738333Y-1508428D01*
X3728809Y-1517952D01*
X3709762Y-1527476D01*
X3652619Y-1527476D01*
X3633571Y-1517952D01*
X3624048Y-1508428D01*
X3871667Y-1327476D02*
X3890714Y-1327476D01*
X3909762Y-1337000D01*
X3919286Y-1346524D01*
X3928809Y-1365571D01*
X3938333Y-1403667D01*
X3938333Y-1451286D01*
X3928809Y-1489381D01*
X3919286Y-1508428D01*
X3909762Y-1517952D01*
X3890714Y-1527476D01*
X3871667Y-1527476D01*
X3852619Y-1517952D01*
X3843095Y-1508428D01*
X3833571Y-1489381D01*
X3824048Y-1451286D01*
X3824048Y-1403667D01*
X3833571Y-1365571D01*
X3843095Y-1346524D01*
X3852619Y-1337000D01*
X3871667Y-1327476D01*
X4176428Y-1527476D02*
X4176428Y-1327476D01*
X4262143Y-1527476D02*
X4262143Y-1422714D01*
X4252619Y-1403667D01*
X4233571Y-1394143D01*
X4205000Y-1394143D01*
X4185952Y-1403667D01*
X4176428Y-1413190D01*
X4385952Y-1527476D02*
X4366905Y-1517952D01*
X4357381Y-1508428D01*
X4347857Y-1489381D01*
X4347857Y-1432238D01*
X4357381Y-1413190D01*
X4366905Y-1403667D01*
X4385952Y-1394143D01*
X4414524Y-1394143D01*
X4433571Y-1403667D01*
X4443095Y-1413190D01*
X4452619Y-1432238D01*
X4452619Y-1489381D01*
X4443095Y-1508428D01*
X4433571Y-1517952D01*
X4414524Y-1527476D01*
X4385952Y-1527476D01*
X4566905Y-1527476D02*
X4547857Y-1517952D01*
X4538333Y-1498905D01*
X4538333Y-1327476D01*
X4719286Y-1517952D02*
X4700238Y-1527476D01*
X4662143Y-1527476D01*
X4643095Y-1517952D01*
X4633571Y-1498905D01*
X4633571Y-1422714D01*
X4643095Y-1403667D01*
X4662143Y-1394143D01*
X4700238Y-1394143D01*
X4719286Y-1403667D01*
X4728810Y-1422714D01*
X4728810Y-1441762D01*
X4633571Y-1460809D01*
X4805000Y-1517952D02*
X4824048Y-1527476D01*
X4862143Y-1527476D01*
X4881190Y-1517952D01*
X4890714Y-1498905D01*
X4890714Y-1489381D01*
X4881190Y-1470333D01*
X4862143Y-1460809D01*
X4833571Y-1460809D01*
X4814524Y-1451286D01*
X4805000Y-1432238D01*
X4805000Y-1422714D01*
X4814524Y-1403667D01*
X4833571Y-1394143D01*
X4862143Y-1394143D01*
X4881190Y-1403667D01*
X4957381Y-1603667D02*
X4966905Y-1594143D01*
X4985952Y-1565571D01*
X4995476Y-1546524D01*
X5005000Y-1517952D01*
X5014524Y-1470333D01*
X5014524Y-1432238D01*
X5005000Y-1384619D01*
X4995476Y-1356048D01*
X4985952Y-1337000D01*
X4966905Y-1308429D01*
X4957381Y-1298905D01*
D15*
X-56000Y-1752000D02*
X-5000Y-1701000D01*
X-56000Y-1650000D01*
X-107000Y-1701000D01*
X-56000Y-1752000D01*
D11*
X357381Y-1791476D02*
X243095Y-1791476D01*
X300238Y-1791476D02*
X300238Y-1591476D01*
X281190Y-1620048D01*
X262143Y-1639095D01*
X243095Y-1648619D01*
X443095Y-1772428D02*
X452619Y-1781952D01*
X443095Y-1791476D01*
X433571Y-1781952D01*
X443095Y-1772428D01*
X443095Y-1791476D01*
X576429Y-1591476D02*
X595476Y-1591476D01*
X614524Y-1601000D01*
X624048Y-1610524D01*
X633571Y-1629571D01*
X643095Y-1667667D01*
X643095Y-1715286D01*
X633571Y-1753381D01*
X624048Y-1772428D01*
X614524Y-1781952D01*
X595476Y-1791476D01*
X576429Y-1791476D01*
X557381Y-1781952D01*
X547857Y-1772428D01*
X538333Y-1753381D01*
X528810Y-1715286D01*
X528810Y-1667667D01*
X538333Y-1629571D01*
X547857Y-1610524D01*
X557381Y-1601000D01*
X576429Y-1591476D01*
X719286Y-1610524D02*
X728809Y-1601000D01*
X747857Y-1591476D01*
X795476Y-1591476D01*
X814524Y-1601000D01*
X824048Y-1610524D01*
X833571Y-1629571D01*
X833571Y-1648619D01*
X824048Y-1677190D01*
X709762Y-1791476D01*
X833571Y-1791476D01*
X957381Y-1591476D02*
X976428Y-1591476D01*
X995476Y-1601000D01*
X1005000Y-1610524D01*
X1014524Y-1629571D01*
X1024048Y-1667667D01*
X1024048Y-1715286D01*
X1014524Y-1753381D01*
X1005000Y-1772428D01*
X995476Y-1781952D01*
X976428Y-1791476D01*
X957381Y-1791476D01*
X938333Y-1781952D01*
X928809Y-1772428D01*
X919286Y-1753381D01*
X909762Y-1715286D01*
X909762Y-1667667D01*
X919286Y-1629571D01*
X928809Y-1610524D01*
X938333Y-1601000D01*
X957381Y-1591476D01*
X1109762Y-1791476D02*
X1109762Y-1658143D01*
X1109762Y-1677190D02*
X1119286Y-1667667D01*
X1138333Y-1658143D01*
X1166905Y-1658143D01*
X1185952Y-1667667D01*
X1195476Y-1686714D01*
X1195476Y-1791476D01*
X1195476Y-1686714D02*
X1205000Y-1667667D01*
X1224048Y-1658143D01*
X1252619Y-1658143D01*
X1271667Y-1667667D01*
X1281190Y-1686714D01*
X1281190Y-1791476D01*
X1376429Y-1791476D02*
X1376429Y-1658143D01*
X1376429Y-1677190D02*
X1385952Y-1667667D01*
X1405000Y-1658143D01*
X1433571Y-1658143D01*
X1452619Y-1667667D01*
X1462143Y-1686714D01*
X1462143Y-1791476D01*
X1462143Y-1686714D02*
X1471667Y-1667667D01*
X1490714Y-1658143D01*
X1519286Y-1658143D01*
X1538333Y-1667667D01*
X1547857Y-1686714D01*
X1547857Y-1791476D01*
X1938333Y-1581952D02*
X1766905Y-1839095D01*
X2195476Y-1591476D02*
X2214524Y-1591476D01*
X2233571Y-1601000D01*
X2243095Y-1610524D01*
X2252619Y-1629571D01*
X2262143Y-1667667D01*
X2262143Y-1715286D01*
X2252619Y-1753381D01*
X2243095Y-1772428D01*
X2233571Y-1781952D01*
X2214524Y-1791476D01*
X2195476Y-1791476D01*
X2176429Y-1781952D01*
X2166905Y-1772428D01*
X2157381Y-1753381D01*
X2147857Y-1715286D01*
X2147857Y-1667667D01*
X2157381Y-1629571D01*
X2166905Y-1610524D01*
X2176429Y-1601000D01*
X2195476Y-1591476D01*
X2347857Y-1772428D02*
X2357381Y-1781952D01*
X2347857Y-1791476D01*
X2338333Y-1781952D01*
X2347857Y-1772428D01*
X2347857Y-1791476D01*
X2481190Y-1591476D02*
X2500238Y-1591476D01*
X2519286Y-1601000D01*
X2528810Y-1610524D01*
X2538333Y-1629571D01*
X2547857Y-1667667D01*
X2547857Y-1715286D01*
X2538333Y-1753381D01*
X2528810Y-1772428D01*
X2519286Y-1781952D01*
X2500238Y-1791476D01*
X2481190Y-1791476D01*
X2462143Y-1781952D01*
X2452619Y-1772428D01*
X2443095Y-1753381D01*
X2433571Y-1715286D01*
X2433571Y-1667667D01*
X2443095Y-1629571D01*
X2452619Y-1610524D01*
X2462143Y-1601000D01*
X2481190Y-1591476D01*
X2719286Y-1658143D02*
X2719286Y-1791476D01*
X2671667Y-1581952D02*
X2624048Y-1724809D01*
X2747857Y-1724809D01*
X2862143Y-1591476D02*
X2881190Y-1591476D01*
X2900238Y-1601000D01*
X2909762Y-1610524D01*
X2919286Y-1629571D01*
X2928809Y-1667667D01*
X2928809Y-1715286D01*
X2919286Y-1753381D01*
X2909762Y-1772428D01*
X2900238Y-1781952D01*
X2881190Y-1791476D01*
X2862143Y-1791476D01*
X2843095Y-1781952D01*
X2833571Y-1772428D01*
X2824048Y-1753381D01*
X2814524Y-1715286D01*
X2814524Y-1667667D01*
X2824048Y-1629571D01*
X2833571Y-1610524D01*
X2843095Y-1601000D01*
X2862143Y-1591476D01*
X3005000Y-1610524D02*
X3014524Y-1601000D01*
X3033571Y-1591476D01*
X3081190Y-1591476D01*
X3100238Y-1601000D01*
X3109762Y-1610524D01*
X3119286Y-1629571D01*
X3119286Y-1648619D01*
X3109762Y-1677190D01*
X2995476Y-1791476D01*
X3119286Y-1791476D01*
X3195476Y-1591476D02*
X3195476Y-1629571D01*
X3271667Y-1591476D02*
X3271667Y-1629571D01*
X3566905Y-1867667D02*
X3557381Y-1858143D01*
X3538333Y-1829571D01*
X3528809Y-1810524D01*
X3519286Y-1781952D01*
X3509762Y-1734333D01*
X3509762Y-1696238D01*
X3519286Y-1648619D01*
X3528809Y-1620048D01*
X3538333Y-1601000D01*
X3557381Y-1572428D01*
X3566905Y-1562905D01*
X3747857Y-1791476D02*
X3633571Y-1791476D01*
X3690714Y-1791476D02*
X3690714Y-1591476D01*
X3671667Y-1620048D01*
X3652619Y-1639095D01*
X3633571Y-1648619D01*
X3919286Y-1591476D02*
X3881190Y-1591476D01*
X3862143Y-1601000D01*
X3852619Y-1610524D01*
X3833571Y-1639095D01*
X3824048Y-1677190D01*
X3824048Y-1753381D01*
X3833571Y-1772428D01*
X3843095Y-1781952D01*
X3862143Y-1791476D01*
X3900238Y-1791476D01*
X3919286Y-1781952D01*
X3928809Y-1772428D01*
X3938333Y-1753381D01*
X3938333Y-1705762D01*
X3928809Y-1686714D01*
X3919286Y-1677190D01*
X3900238Y-1667667D01*
X3862143Y-1667667D01*
X3843095Y-1677190D01*
X3833571Y-1686714D01*
X3824048Y-1705762D01*
X4176428Y-1791476D02*
X4176428Y-1591476D01*
X4262143Y-1791476D02*
X4262143Y-1686714D01*
X4252619Y-1667667D01*
X4233571Y-1658143D01*
X4205000Y-1658143D01*
X4185952Y-1667667D01*
X4176428Y-1677190D01*
X4385952Y-1791476D02*
X4366905Y-1781952D01*
X4357381Y-1772428D01*
X4347857Y-1753381D01*
X4347857Y-1696238D01*
X4357381Y-1677190D01*
X4366905Y-1667667D01*
X4385952Y-1658143D01*
X4414524Y-1658143D01*
X4433571Y-1667667D01*
X4443095Y-1677190D01*
X4452619Y-1696238D01*
X4452619Y-1753381D01*
X4443095Y-1772428D01*
X4433571Y-1781952D01*
X4414524Y-1791476D01*
X4385952Y-1791476D01*
X4566905Y-1791476D02*
X4547857Y-1781952D01*
X4538333Y-1762905D01*
X4538333Y-1591476D01*
X4719286Y-1781952D02*
X4700238Y-1791476D01*
X4662143Y-1791476D01*
X4643095Y-1781952D01*
X4633571Y-1762905D01*
X4633571Y-1686714D01*
X4643095Y-1667667D01*
X4662143Y-1658143D01*
X4700238Y-1658143D01*
X4719286Y-1667667D01*
X4728810Y-1686714D01*
X4728810Y-1705762D01*
X4633571Y-1724809D01*
X4805000Y-1781952D02*
X4824048Y-1791476D01*
X4862143Y-1791476D01*
X4881190Y-1781952D01*
X4890714Y-1762905D01*
X4890714Y-1753381D01*
X4881190Y-1734333D01*
X4862143Y-1724809D01*
X4833571Y-1724809D01*
X4814524Y-1715286D01*
X4805000Y-1696238D01*
X4805000Y-1686714D01*
X4814524Y-1667667D01*
X4833571Y-1658143D01*
X4862143Y-1658143D01*
X4881190Y-1667667D01*
X4957381Y-1867667D02*
X4966905Y-1858143D01*
X4985952Y-1829571D01*
X4995476Y-1810524D01*
X5005000Y-1781952D01*
X5014524Y-1734333D01*
X5014524Y-1696238D01*
X5005000Y-1648619D01*
X4995476Y-1620048D01*
X4985952Y-1601000D01*
X4966905Y-1572428D01*
X4957381Y-1562905D01*
D16*
X-109000Y-1913000D02*
X-5000Y-2017000D01*
X-5000Y-1913000D02*
X-109000Y-2017000D01*
X-5000Y-1965000D02*
G75*
G03*
X-5000Y-1965000I-52000J0D01*
G01*
D11*
X357381Y-2055476D02*
X243095Y-2055476D01*
X300238Y-2055476D02*
X300238Y-1855476D01*
X281190Y-1884048D01*
X262143Y-1903095D01*
X243095Y-1912619D01*
X443095Y-2036428D02*
X452619Y-2045952D01*
X443095Y-2055476D01*
X433571Y-2045952D01*
X443095Y-2036428D01*
X443095Y-2055476D01*
X576429Y-1855476D02*
X595476Y-1855476D01*
X614524Y-1865000D01*
X624048Y-1874524D01*
X633571Y-1893571D01*
X643095Y-1931667D01*
X643095Y-1979286D01*
X633571Y-2017381D01*
X624048Y-2036428D01*
X614524Y-2045952D01*
X595476Y-2055476D01*
X576429Y-2055476D01*
X557381Y-2045952D01*
X547857Y-2036428D01*
X538333Y-2017381D01*
X528810Y-1979286D01*
X528810Y-1931667D01*
X538333Y-1893571D01*
X547857Y-1874524D01*
X557381Y-1865000D01*
X576429Y-1855476D01*
X814524Y-1922143D02*
X814524Y-2055476D01*
X766905Y-1845952D02*
X719286Y-1988809D01*
X843095Y-1988809D01*
X957381Y-1855476D02*
X976428Y-1855476D01*
X995476Y-1865000D01*
X1005000Y-1874524D01*
X1014524Y-1893571D01*
X1024048Y-1931667D01*
X1024048Y-1979286D01*
X1014524Y-2017381D01*
X1005000Y-2036428D01*
X995476Y-2045952D01*
X976428Y-2055476D01*
X957381Y-2055476D01*
X938333Y-2045952D01*
X928809Y-2036428D01*
X919286Y-2017381D01*
X909762Y-1979286D01*
X909762Y-1931667D01*
X919286Y-1893571D01*
X928809Y-1874524D01*
X938333Y-1865000D01*
X957381Y-1855476D01*
X1109762Y-2055476D02*
X1109762Y-1922143D01*
X1109762Y-1941190D02*
X1119286Y-1931667D01*
X1138333Y-1922143D01*
X1166905Y-1922143D01*
X1185952Y-1931667D01*
X1195476Y-1950714D01*
X1195476Y-2055476D01*
X1195476Y-1950714D02*
X1205000Y-1931667D01*
X1224048Y-1922143D01*
X1252619Y-1922143D01*
X1271667Y-1931667D01*
X1281190Y-1950714D01*
X1281190Y-2055476D01*
X1376429Y-2055476D02*
X1376429Y-1922143D01*
X1376429Y-1941190D02*
X1385952Y-1931667D01*
X1405000Y-1922143D01*
X1433571Y-1922143D01*
X1452619Y-1931667D01*
X1462143Y-1950714D01*
X1462143Y-2055476D01*
X1462143Y-1950714D02*
X1471667Y-1931667D01*
X1490714Y-1922143D01*
X1519286Y-1922143D01*
X1538333Y-1931667D01*
X1547857Y-1950714D01*
X1547857Y-2055476D01*
X1938333Y-1845952D02*
X1766905Y-2103095D01*
X2195476Y-1855476D02*
X2214524Y-1855476D01*
X2233571Y-1865000D01*
X2243095Y-1874524D01*
X2252619Y-1893571D01*
X2262143Y-1931667D01*
X2262143Y-1979286D01*
X2252619Y-2017381D01*
X2243095Y-2036428D01*
X2233571Y-2045952D01*
X2214524Y-2055476D01*
X2195476Y-2055476D01*
X2176429Y-2045952D01*
X2166905Y-2036428D01*
X2157381Y-2017381D01*
X2147857Y-1979286D01*
X2147857Y-1931667D01*
X2157381Y-1893571D01*
X2166905Y-1874524D01*
X2176429Y-1865000D01*
X2195476Y-1855476D01*
X2347857Y-2036428D02*
X2357381Y-2045952D01*
X2347857Y-2055476D01*
X2338333Y-2045952D01*
X2347857Y-2036428D01*
X2347857Y-2055476D01*
X2481190Y-1855476D02*
X2500238Y-1855476D01*
X2519286Y-1865000D01*
X2528810Y-1874524D01*
X2538333Y-1893571D01*
X2547857Y-1931667D01*
X2547857Y-1979286D01*
X2538333Y-2017381D01*
X2528810Y-2036428D01*
X2519286Y-2045952D01*
X2500238Y-2055476D01*
X2481190Y-2055476D01*
X2462143Y-2045952D01*
X2452619Y-2036428D01*
X2443095Y-2017381D01*
X2433571Y-1979286D01*
X2433571Y-1931667D01*
X2443095Y-1893571D01*
X2452619Y-1874524D01*
X2462143Y-1865000D01*
X2481190Y-1855476D01*
X2719286Y-1922143D02*
X2719286Y-2055476D01*
X2671667Y-1845952D02*
X2624048Y-1988809D01*
X2747857Y-1988809D01*
X2862143Y-1855476D02*
X2881190Y-1855476D01*
X2900238Y-1865000D01*
X2909762Y-1874524D01*
X2919286Y-1893571D01*
X2928809Y-1931667D01*
X2928809Y-1979286D01*
X2919286Y-2017381D01*
X2909762Y-2036428D01*
X2900238Y-2045952D01*
X2881190Y-2055476D01*
X2862143Y-2055476D01*
X2843095Y-2045952D01*
X2833571Y-2036428D01*
X2824048Y-2017381D01*
X2814524Y-1979286D01*
X2814524Y-1931667D01*
X2824048Y-1893571D01*
X2833571Y-1874524D01*
X2843095Y-1865000D01*
X2862143Y-1855476D01*
X3024048Y-2055476D02*
X3062143Y-2055476D01*
X3081190Y-2045952D01*
X3090714Y-2036428D01*
X3109762Y-2007857D01*
X3119286Y-1969762D01*
X3119286Y-1893571D01*
X3109762Y-1874524D01*
X3100238Y-1865000D01*
X3081190Y-1855476D01*
X3043095Y-1855476D01*
X3024048Y-1865000D01*
X3014524Y-1874524D01*
X3005000Y-1893571D01*
X3005000Y-1941190D01*
X3014524Y-1960238D01*
X3024048Y-1969762D01*
X3043095Y-1979286D01*
X3081190Y-1979286D01*
X3100238Y-1969762D01*
X3109762Y-1960238D01*
X3119286Y-1941190D01*
X3195476Y-1855476D02*
X3195476Y-1893571D01*
X3271667Y-1855476D02*
X3271667Y-1893571D01*
X3566905Y-2131667D02*
X3557381Y-2122143D01*
X3538333Y-2093571D01*
X3528809Y-2074524D01*
X3519286Y-2045952D01*
X3509762Y-1998333D01*
X3509762Y-1960238D01*
X3519286Y-1912619D01*
X3528809Y-1884048D01*
X3538333Y-1865000D01*
X3557381Y-1836428D01*
X3566905Y-1826905D01*
X3624048Y-1855476D02*
X3747857Y-1855476D01*
X3681190Y-1931667D01*
X3709762Y-1931667D01*
X3728809Y-1941190D01*
X3738333Y-1950714D01*
X3747857Y-1969762D01*
X3747857Y-2017381D01*
X3738333Y-2036428D01*
X3728809Y-2045952D01*
X3709762Y-2055476D01*
X3652619Y-2055476D01*
X3633571Y-2045952D01*
X3624048Y-2036428D01*
X3862143Y-1941190D02*
X3843095Y-1931667D01*
X3833571Y-1922143D01*
X3824048Y-1903095D01*
X3824048Y-1893571D01*
X3833571Y-1874524D01*
X3843095Y-1865000D01*
X3862143Y-1855476D01*
X3900238Y-1855476D01*
X3919286Y-1865000D01*
X3928809Y-1874524D01*
X3938333Y-1893571D01*
X3938333Y-1903095D01*
X3928809Y-1922143D01*
X3919286Y-1931667D01*
X3900238Y-1941190D01*
X3862143Y-1941190D01*
X3843095Y-1950714D01*
X3833571Y-1960238D01*
X3824048Y-1979286D01*
X3824048Y-2017381D01*
X3833571Y-2036428D01*
X3843095Y-2045952D01*
X3862143Y-2055476D01*
X3900238Y-2055476D01*
X3919286Y-2045952D01*
X3928809Y-2036428D01*
X3938333Y-2017381D01*
X3938333Y-1979286D01*
X3928809Y-1960238D01*
X3919286Y-1950714D01*
X3900238Y-1941190D01*
X4176428Y-2055476D02*
X4176428Y-1855476D01*
X4262143Y-2055476D02*
X4262143Y-1950714D01*
X4252619Y-1931667D01*
X4233571Y-1922143D01*
X4205000Y-1922143D01*
X4185952Y-1931667D01*
X4176428Y-1941190D01*
X4385952Y-2055476D02*
X4366905Y-2045952D01*
X4357381Y-2036428D01*
X4347857Y-2017381D01*
X4347857Y-1960238D01*
X4357381Y-1941190D01*
X4366905Y-1931667D01*
X4385952Y-1922143D01*
X4414524Y-1922143D01*
X4433571Y-1931667D01*
X4443095Y-1941190D01*
X4452619Y-1960238D01*
X4452619Y-2017381D01*
X4443095Y-2036428D01*
X4433571Y-2045952D01*
X4414524Y-2055476D01*
X4385952Y-2055476D01*
X4566905Y-2055476D02*
X4547857Y-2045952D01*
X4538333Y-2026905D01*
X4538333Y-1855476D01*
X4719286Y-2045952D02*
X4700238Y-2055476D01*
X4662143Y-2055476D01*
X4643095Y-2045952D01*
X4633571Y-2026905D01*
X4633571Y-1950714D01*
X4643095Y-1931667D01*
X4662143Y-1922143D01*
X4700238Y-1922143D01*
X4719286Y-1931667D01*
X4728810Y-1950714D01*
X4728810Y-1969762D01*
X4633571Y-1988809D01*
X4805000Y-2045952D02*
X4824048Y-2055476D01*
X4862143Y-2055476D01*
X4881190Y-2045952D01*
X4890714Y-2026905D01*
X4890714Y-2017381D01*
X4881190Y-1998333D01*
X4862143Y-1988809D01*
X4833571Y-1988809D01*
X4814524Y-1979286D01*
X4805000Y-1960238D01*
X4805000Y-1950714D01*
X4814524Y-1931667D01*
X4833571Y-1922143D01*
X4862143Y-1922143D01*
X4881190Y-1931667D01*
X4957381Y-2131667D02*
X4966905Y-2122143D01*
X4985952Y-2093571D01*
X4995476Y-2074524D01*
X5005000Y-2045952D01*
X5014524Y-1998333D01*
X5014524Y-1960238D01*
X5005000Y-1912619D01*
X4995476Y-1884048D01*
X4985952Y-1865000D01*
X4966905Y-1836428D01*
X4957381Y-1826905D01*
D17*
X-115000Y-2174000D02*
X-5000Y-2284000D01*
X-5000Y-2174000D02*
X-115000Y-2284000D01*
X-60000Y-2174000D02*
X-60000Y-2284000D01*
X-115000Y-2229000D02*
X-5000Y-2229000D01*
D11*
X357381Y-2319476D02*
X243095Y-2319476D01*
X300238Y-2319476D02*
X300238Y-2119476D01*
X281190Y-2148048D01*
X262143Y-2167095D01*
X243095Y-2176619D01*
X443095Y-2300429D02*
X452619Y-2309952D01*
X443095Y-2319476D01*
X433571Y-2309952D01*
X443095Y-2300429D01*
X443095Y-2319476D01*
X643095Y-2319476D02*
X528810Y-2319476D01*
X585952Y-2319476D02*
X585952Y-2119476D01*
X566905Y-2148048D01*
X547857Y-2167095D01*
X528810Y-2176619D01*
X766905Y-2119476D02*
X785952Y-2119476D01*
X805000Y-2129000D01*
X814524Y-2138524D01*
X824048Y-2157571D01*
X833571Y-2195667D01*
X833571Y-2243286D01*
X824048Y-2281381D01*
X814524Y-2300429D01*
X805000Y-2309952D01*
X785952Y-2319476D01*
X766905Y-2319476D01*
X747857Y-2309952D01*
X738333Y-2300429D01*
X728809Y-2281381D01*
X719286Y-2243286D01*
X719286Y-2195667D01*
X728809Y-2157571D01*
X738333Y-2138524D01*
X747857Y-2129000D01*
X766905Y-2119476D01*
X957381Y-2119476D02*
X976428Y-2119476D01*
X995476Y-2129000D01*
X1005000Y-2138524D01*
X1014524Y-2157571D01*
X1024048Y-2195667D01*
X1024048Y-2243286D01*
X1014524Y-2281381D01*
X1005000Y-2300429D01*
X995476Y-2309952D01*
X976428Y-2319476D01*
X957381Y-2319476D01*
X938333Y-2309952D01*
X928809Y-2300429D01*
X919286Y-2281381D01*
X909762Y-2243286D01*
X909762Y-2195667D01*
X919286Y-2157571D01*
X928809Y-2138524D01*
X938333Y-2129000D01*
X957381Y-2119476D01*
X1109762Y-2319476D02*
X1109762Y-2186143D01*
X1109762Y-2205190D02*
X1119286Y-2195667D01*
X1138333Y-2186143D01*
X1166905Y-2186143D01*
X1185952Y-2195667D01*
X1195476Y-2214714D01*
X1195476Y-2319476D01*
X1195476Y-2214714D02*
X1205000Y-2195667D01*
X1224048Y-2186143D01*
X1252619Y-2186143D01*
X1271667Y-2195667D01*
X1281190Y-2214714D01*
X1281190Y-2319476D01*
X1376429Y-2319476D02*
X1376429Y-2186143D01*
X1376429Y-2205190D02*
X1385952Y-2195667D01*
X1405000Y-2186143D01*
X1433571Y-2186143D01*
X1452619Y-2195667D01*
X1462143Y-2214714D01*
X1462143Y-2319476D01*
X1462143Y-2214714D02*
X1471667Y-2195667D01*
X1490714Y-2186143D01*
X1519286Y-2186143D01*
X1538333Y-2195667D01*
X1547857Y-2214714D01*
X1547857Y-2319476D01*
X1938333Y-2109952D02*
X1766905Y-2367095D01*
X2195476Y-2119476D02*
X2214524Y-2119476D01*
X2233571Y-2129000D01*
X2243095Y-2138524D01*
X2252619Y-2157571D01*
X2262143Y-2195667D01*
X2262143Y-2243286D01*
X2252619Y-2281381D01*
X2243095Y-2300429D01*
X2233571Y-2309952D01*
X2214524Y-2319476D01*
X2195476Y-2319476D01*
X2176429Y-2309952D01*
X2166905Y-2300429D01*
X2157381Y-2281381D01*
X2147857Y-2243286D01*
X2147857Y-2195667D01*
X2157381Y-2157571D01*
X2166905Y-2138524D01*
X2176429Y-2129000D01*
X2195476Y-2119476D01*
X2347857Y-2300429D02*
X2357381Y-2309952D01*
X2347857Y-2319476D01*
X2338333Y-2309952D01*
X2347857Y-2300429D01*
X2347857Y-2319476D01*
X2481190Y-2119476D02*
X2500238Y-2119476D01*
X2519286Y-2129000D01*
X2528810Y-2138524D01*
X2538333Y-2157571D01*
X2547857Y-2195667D01*
X2547857Y-2243286D01*
X2538333Y-2281381D01*
X2528810Y-2300429D01*
X2519286Y-2309952D01*
X2500238Y-2319476D01*
X2481190Y-2319476D01*
X2462143Y-2309952D01*
X2452619Y-2300429D01*
X2443095Y-2281381D01*
X2433571Y-2243286D01*
X2433571Y-2195667D01*
X2443095Y-2157571D01*
X2452619Y-2138524D01*
X2462143Y-2129000D01*
X2481190Y-2119476D01*
X2719286Y-2186143D02*
X2719286Y-2319476D01*
X2671667Y-2109952D02*
X2624048Y-2252810D01*
X2747857Y-2252810D01*
X2805000Y-2119476D02*
X2928809Y-2119476D01*
X2862143Y-2195667D01*
X2890714Y-2195667D01*
X2909762Y-2205190D01*
X2919286Y-2214714D01*
X2928809Y-2233762D01*
X2928809Y-2281381D01*
X2919286Y-2300429D01*
X2909762Y-2309952D01*
X2890714Y-2319476D01*
X2833571Y-2319476D01*
X2814524Y-2309952D01*
X2805000Y-2300429D01*
X2995476Y-2119476D02*
X3119286Y-2119476D01*
X3052619Y-2195667D01*
X3081190Y-2195667D01*
X3100238Y-2205190D01*
X3109762Y-2214714D01*
X3119286Y-2233762D01*
X3119286Y-2281381D01*
X3109762Y-2300429D01*
X3100238Y-2309952D01*
X3081190Y-2319476D01*
X3024048Y-2319476D01*
X3005000Y-2309952D01*
X2995476Y-2300429D01*
X3195476Y-2119476D02*
X3195476Y-2157571D01*
X3271667Y-2119476D02*
X3271667Y-2157571D01*
X3566905Y-2395667D02*
X3557381Y-2386143D01*
X3538333Y-2357571D01*
X3528809Y-2338524D01*
X3519286Y-2309952D01*
X3509762Y-2262333D01*
X3509762Y-2224238D01*
X3519286Y-2176619D01*
X3528809Y-2148048D01*
X3538333Y-2129000D01*
X3557381Y-2100429D01*
X3566905Y-2090905D01*
X3747857Y-2319476D02*
X3633571Y-2319476D01*
X3690714Y-2319476D02*
X3690714Y-2119476D01*
X3671667Y-2148048D01*
X3652619Y-2167095D01*
X3633571Y-2176619D01*
X3871667Y-2119476D02*
X3890714Y-2119476D01*
X3909762Y-2129000D01*
X3919286Y-2138524D01*
X3928809Y-2157571D01*
X3938333Y-2195667D01*
X3938333Y-2243286D01*
X3928809Y-2281381D01*
X3919286Y-2300429D01*
X3909762Y-2309952D01*
X3890714Y-2319476D01*
X3871667Y-2319476D01*
X3852619Y-2309952D01*
X3843095Y-2300429D01*
X3833571Y-2281381D01*
X3824048Y-2243286D01*
X3824048Y-2195667D01*
X3833571Y-2157571D01*
X3843095Y-2138524D01*
X3852619Y-2129000D01*
X3871667Y-2119476D01*
X4176428Y-2319476D02*
X4176428Y-2119476D01*
X4262143Y-2319476D02*
X4262143Y-2214714D01*
X4252619Y-2195667D01*
X4233571Y-2186143D01*
X4205000Y-2186143D01*
X4185952Y-2195667D01*
X4176428Y-2205190D01*
X4385952Y-2319476D02*
X4366905Y-2309952D01*
X4357381Y-2300429D01*
X4347857Y-2281381D01*
X4347857Y-2224238D01*
X4357381Y-2205190D01*
X4366905Y-2195667D01*
X4385952Y-2186143D01*
X4414524Y-2186143D01*
X4433571Y-2195667D01*
X4443095Y-2205190D01*
X4452619Y-2224238D01*
X4452619Y-2281381D01*
X4443095Y-2300429D01*
X4433571Y-2309952D01*
X4414524Y-2319476D01*
X4385952Y-2319476D01*
X4566905Y-2319476D02*
X4547857Y-2309952D01*
X4538333Y-2290905D01*
X4538333Y-2119476D01*
X4719286Y-2309952D02*
X4700238Y-2319476D01*
X4662143Y-2319476D01*
X4643095Y-2309952D01*
X4633571Y-2290905D01*
X4633571Y-2214714D01*
X4643095Y-2195667D01*
X4662143Y-2186143D01*
X4700238Y-2186143D01*
X4719286Y-2195667D01*
X4728810Y-2214714D01*
X4728810Y-2233762D01*
X4633571Y-2252810D01*
X4805000Y-2309952D02*
X4824048Y-2319476D01*
X4862143Y-2319476D01*
X4881190Y-2309952D01*
X4890714Y-2290905D01*
X4890714Y-2281381D01*
X4881190Y-2262333D01*
X4862143Y-2252810D01*
X4833571Y-2252810D01*
X4814524Y-2243286D01*
X4805000Y-2224238D01*
X4805000Y-2214714D01*
X4814524Y-2195667D01*
X4833571Y-2186143D01*
X4862143Y-2186143D01*
X4881190Y-2195667D01*
X4957381Y-2395667D02*
X4966905Y-2386143D01*
X4985952Y-2357571D01*
X4995476Y-2338524D01*
X5005000Y-2309952D01*
X5014524Y-2262333D01*
X5014524Y-2224238D01*
X5005000Y-2176619D01*
X4995476Y-2148048D01*
X4985952Y-2129000D01*
X4966905Y-2100429D01*
X4957381Y-2090905D01*
X-205000Y-2393000D02*
X-5000Y-2593000D01*
X-5000Y-2393000D02*
X-205000Y-2593000D01*
X-34289Y-2563711D02*
X-34289Y-2422289D01*
X-175711Y-2422289D01*
X-175711Y-2563711D01*
X-34289Y-2563711D01*
X243095Y-2402524D02*
X252619Y-2393000D01*
X271667Y-2383476D01*
X319286Y-2383476D01*
X338333Y-2393000D01*
X347857Y-2402524D01*
X357381Y-2421571D01*
X357381Y-2440619D01*
X347857Y-2469190D01*
X233571Y-2583476D01*
X357381Y-2583476D01*
X443095Y-2564429D02*
X452619Y-2573952D01*
X443095Y-2583476D01*
X433571Y-2573952D01*
X443095Y-2564429D01*
X443095Y-2583476D01*
X528810Y-2402524D02*
X538333Y-2393000D01*
X557381Y-2383476D01*
X605000Y-2383476D01*
X624048Y-2393000D01*
X633571Y-2402524D01*
X643095Y-2421571D01*
X643095Y-2440619D01*
X633571Y-2469190D01*
X519286Y-2583476D01*
X643095Y-2583476D01*
X766905Y-2383476D02*
X785952Y-2383476D01*
X805000Y-2393000D01*
X814524Y-2402524D01*
X824048Y-2421571D01*
X833571Y-2459667D01*
X833571Y-2507286D01*
X824048Y-2545381D01*
X814524Y-2564429D01*
X805000Y-2573952D01*
X785952Y-2583476D01*
X766905Y-2583476D01*
X747857Y-2573952D01*
X738333Y-2564429D01*
X728809Y-2545381D01*
X719286Y-2507286D01*
X719286Y-2459667D01*
X728809Y-2421571D01*
X738333Y-2402524D01*
X747857Y-2393000D01*
X766905Y-2383476D01*
X957381Y-2383476D02*
X976428Y-2383476D01*
X995476Y-2393000D01*
X1005000Y-2402524D01*
X1014524Y-2421571D01*
X1024048Y-2459667D01*
X1024048Y-2507286D01*
X1014524Y-2545381D01*
X1005000Y-2564429D01*
X995476Y-2573952D01*
X976428Y-2583476D01*
X957381Y-2583476D01*
X938333Y-2573952D01*
X928809Y-2564429D01*
X919286Y-2545381D01*
X909762Y-2507286D01*
X909762Y-2459667D01*
X919286Y-2421571D01*
X928809Y-2402524D01*
X938333Y-2393000D01*
X957381Y-2383476D01*
X1109762Y-2583476D02*
X1109762Y-2450143D01*
X1109762Y-2469190D02*
X1119286Y-2459667D01*
X1138333Y-2450143D01*
X1166905Y-2450143D01*
X1185952Y-2459667D01*
X1195476Y-2478714D01*
X1195476Y-2583476D01*
X1195476Y-2478714D02*
X1205000Y-2459667D01*
X1224048Y-2450143D01*
X1252619Y-2450143D01*
X1271667Y-2459667D01*
X1281190Y-2478714D01*
X1281190Y-2583476D01*
X1376429Y-2583476D02*
X1376429Y-2450143D01*
X1376429Y-2469190D02*
X1385952Y-2459667D01*
X1405000Y-2450143D01*
X1433571Y-2450143D01*
X1452619Y-2459667D01*
X1462143Y-2478714D01*
X1462143Y-2583476D01*
X1462143Y-2478714D02*
X1471667Y-2459667D01*
X1490714Y-2450143D01*
X1519286Y-2450143D01*
X1538333Y-2459667D01*
X1547857Y-2478714D01*
X1547857Y-2583476D01*
X1938333Y-2373952D02*
X1766905Y-2631095D01*
X2195476Y-2383476D02*
X2214524Y-2383476D01*
X2233571Y-2393000D01*
X2243095Y-2402524D01*
X2252619Y-2421571D01*
X2262143Y-2459667D01*
X2262143Y-2507286D01*
X2252619Y-2545381D01*
X2243095Y-2564429D01*
X2233571Y-2573952D01*
X2214524Y-2583476D01*
X2195476Y-2583476D01*
X2176429Y-2573952D01*
X2166905Y-2564429D01*
X2157381Y-2545381D01*
X2147857Y-2507286D01*
X2147857Y-2459667D01*
X2157381Y-2421571D01*
X2166905Y-2402524D01*
X2176429Y-2393000D01*
X2195476Y-2383476D01*
X2347857Y-2564429D02*
X2357381Y-2573952D01*
X2347857Y-2583476D01*
X2338333Y-2573952D01*
X2347857Y-2564429D01*
X2347857Y-2583476D01*
X2481190Y-2383476D02*
X2500238Y-2383476D01*
X2519286Y-2393000D01*
X2528810Y-2402524D01*
X2538333Y-2421571D01*
X2547857Y-2459667D01*
X2547857Y-2507286D01*
X2538333Y-2545381D01*
X2528810Y-2564429D01*
X2519286Y-2573952D01*
X2500238Y-2583476D01*
X2481190Y-2583476D01*
X2462143Y-2573952D01*
X2452619Y-2564429D01*
X2443095Y-2545381D01*
X2433571Y-2507286D01*
X2433571Y-2459667D01*
X2443095Y-2421571D01*
X2452619Y-2402524D01*
X2462143Y-2393000D01*
X2481190Y-2383476D01*
X2662143Y-2469190D02*
X2643095Y-2459667D01*
X2633571Y-2450143D01*
X2624048Y-2431095D01*
X2624048Y-2421571D01*
X2633571Y-2402524D01*
X2643095Y-2393000D01*
X2662143Y-2383476D01*
X2700238Y-2383476D01*
X2719286Y-2393000D01*
X2728810Y-2402524D01*
X2738333Y-2421571D01*
X2738333Y-2431095D01*
X2728810Y-2450143D01*
X2719286Y-2459667D01*
X2700238Y-2469190D01*
X2662143Y-2469190D01*
X2643095Y-2478714D01*
X2633571Y-2488238D01*
X2624048Y-2507286D01*
X2624048Y-2545381D01*
X2633571Y-2564429D01*
X2643095Y-2573952D01*
X2662143Y-2583476D01*
X2700238Y-2583476D01*
X2719286Y-2573952D01*
X2728810Y-2564429D01*
X2738333Y-2545381D01*
X2738333Y-2507286D01*
X2728810Y-2488238D01*
X2719286Y-2478714D01*
X2700238Y-2469190D01*
X2909762Y-2383476D02*
X2871667Y-2383476D01*
X2852619Y-2393000D01*
X2843095Y-2402524D01*
X2824048Y-2431095D01*
X2814524Y-2469190D01*
X2814524Y-2545381D01*
X2824048Y-2564429D01*
X2833571Y-2573952D01*
X2852619Y-2583476D01*
X2890714Y-2583476D01*
X2909762Y-2573952D01*
X2919286Y-2564429D01*
X2928809Y-2545381D01*
X2928809Y-2497762D01*
X2919286Y-2478714D01*
X2909762Y-2469190D01*
X2890714Y-2459667D01*
X2852619Y-2459667D01*
X2833571Y-2469190D01*
X2824048Y-2478714D01*
X2814524Y-2497762D01*
X3100238Y-2383476D02*
X3062143Y-2383476D01*
X3043095Y-2393000D01*
X3033571Y-2402524D01*
X3014524Y-2431095D01*
X3005000Y-2469190D01*
X3005000Y-2545381D01*
X3014524Y-2564429D01*
X3024048Y-2573952D01*
X3043095Y-2583476D01*
X3081190Y-2583476D01*
X3100238Y-2573952D01*
X3109762Y-2564429D01*
X3119286Y-2545381D01*
X3119286Y-2497762D01*
X3109762Y-2478714D01*
X3100238Y-2469190D01*
X3081190Y-2459667D01*
X3043095Y-2459667D01*
X3024048Y-2469190D01*
X3014524Y-2478714D01*
X3005000Y-2497762D01*
X3195476Y-2383476D02*
X3195476Y-2421571D01*
X3271667Y-2383476D02*
X3271667Y-2421571D01*
X3566905Y-2659667D02*
X3557381Y-2650143D01*
X3538333Y-2621571D01*
X3528809Y-2602524D01*
X3519286Y-2573952D01*
X3509762Y-2526333D01*
X3509762Y-2488238D01*
X3519286Y-2440619D01*
X3528809Y-2412048D01*
X3538333Y-2393000D01*
X3557381Y-2364429D01*
X3566905Y-2354905D01*
X3728809Y-2450143D02*
X3728809Y-2583476D01*
X3681190Y-2373952D02*
X3633571Y-2516810D01*
X3757381Y-2516810D01*
X3985952Y-2583476D02*
X3985952Y-2383476D01*
X4071667Y-2583476D02*
X4071667Y-2478714D01*
X4062143Y-2459667D01*
X4043095Y-2450143D01*
X4014524Y-2450143D01*
X3995476Y-2459667D01*
X3985952Y-2469190D01*
X4195476Y-2583476D02*
X4176428Y-2573952D01*
X4166905Y-2564429D01*
X4157381Y-2545381D01*
X4157381Y-2488238D01*
X4166905Y-2469190D01*
X4176428Y-2459667D01*
X4195476Y-2450143D01*
X4224048Y-2450143D01*
X4243095Y-2459667D01*
X4252619Y-2469190D01*
X4262143Y-2488238D01*
X4262143Y-2545381D01*
X4252619Y-2564429D01*
X4243095Y-2573952D01*
X4224048Y-2583476D01*
X4195476Y-2583476D01*
X4376429Y-2583476D02*
X4357381Y-2573952D01*
X4347857Y-2554905D01*
X4347857Y-2383476D01*
X4528810Y-2573952D02*
X4509762Y-2583476D01*
X4471667Y-2583476D01*
X4452619Y-2573952D01*
X4443095Y-2554905D01*
X4443095Y-2478714D01*
X4452619Y-2459667D01*
X4471667Y-2450143D01*
X4509762Y-2450143D01*
X4528810Y-2459667D01*
X4538333Y-2478714D01*
X4538333Y-2497762D01*
X4443095Y-2516810D01*
X4614524Y-2573952D02*
X4633571Y-2583476D01*
X4671667Y-2583476D01*
X4690714Y-2573952D01*
X4700238Y-2554905D01*
X4700238Y-2545381D01*
X4690714Y-2526333D01*
X4671667Y-2516810D01*
X4643095Y-2516810D01*
X4624048Y-2507286D01*
X4614524Y-2488238D01*
X4614524Y-2478714D01*
X4624048Y-2459667D01*
X4643095Y-2450143D01*
X4671667Y-2450143D01*
X4690714Y-2459667D01*
X4766905Y-2659667D02*
X4776429Y-2650143D01*
X4795476Y-2621571D01*
X4805000Y-2602524D01*
X4814524Y-2573952D01*
X4824048Y-2526333D01*
X4824048Y-2488238D01*
X4814524Y-2440619D01*
X4805000Y-2412048D01*
X4795476Y-2393000D01*
X4776429Y-2364429D01*
X4766905Y-2354905D01*
M02*
