<?plantuml 1.2026.2?><svg xmlns="http://www.w3.org/2000/svg" xmlns:xlink="http://www.w3.org/1999/xlink" contentStyleType="text/css" data-diagram-type="DESCRIPTION" height="860px" preserveAspectRatio="none" style="width:882px;height:860px;background:#FFFFFF;" version="1.1" viewBox="0 0 882 860" width="882px" zoomAndPan="magnify"><defs/><g><!--cluster app--><g class="cluster" data-qualified-name="app" data-source-line="2" id="ent0002"><path d="M8.5,6 L85.7207,6 A3.75,3.75 0 0 1 88.2207,8.5 L95.2207,29.6094 L872.5,29.6094 A2.5,2.5 0 0 1 875,32.1094 L875,851 A2.5,2.5 0 0 1 872.5,853.5 L8.5,853.5 A2.5,2.5 0 0 1 6,851 L6,8.5 A2.5,2.5 0 0 1 8.5,6" fill="none" style="stroke:#000000;stroke-width:1.5;"/><line style="stroke:#000000;stroke-width:1.5;" x1="6" x2="95.2207" y1="29.6094" y2="29.6094"/><text fill="#000000" font-family="sans-serif" font-size="14" font-weight="bold" lengthAdjust="spacing" textLength="76.2207" x="10" y="22.5332">Application</text></g><!--cluster stateMachinePckg--><g class="cluster" data-qualified-name="app.stateMachinePckg" data-source-line="6" id="ent0004"><path d="M32.5,189.5 L123.748,189.5 A3.75,3.75 0 0 1 126.248,192 L133.248,213.1094 L185.5,213.1094 A2.5,2.5 0 0 1 188,215.6094 L188,287 A2.5,2.5 0 0 1 185.5,289.5 L32.5,289.5 A2.5,2.5 0 0 1 30,287 L30,192 A2.5,2.5 0 0 1 32.5,189.5" fill="none" style="stroke:#000000;stroke-width:1.5;"/><line style="stroke:#000000;stroke-width:1.5;" x1="30" x2="133.248" y1="213.1094" y2="213.1094"/><text fill="#000000" font-family="sans-serif" font-size="14" font-weight="bold" lengthAdjust="spacing" textLength="90.248" x="34" y="206.0332">StateMachine</text></g><!--cluster generalPckg--><g class="cluster" data-qualified-name="app.generalPckg" data-source-line="10" id="ent0006"><path d="M214.5,189.5 L267.6377,189.5 A3.75,3.75 0 0 1 270.1377,192 L277.1377,213.1094 L534.5,213.1094 A2.5,2.5 0 0 1 537,215.6094 L537,287 A2.5,2.5 0 0 1 534.5,289.5 L214.5,289.5 A2.5,2.5 0 0 1 212,287 L212,192 A2.5,2.5 0 0 1 214.5,189.5" fill="none" style="stroke:#000000;stroke-width:1.5;"/><line style="stroke:#000000;stroke-width:1.5;" x1="212" x2="277.1377" y1="213.1094" y2="213.1094"/><text fill="#000000" font-family="sans-serif" font-size="14" font-weight="bold" lengthAdjust="spacing" textLength="52.1377" x="216" y="206.0332">General</text></g><!--cluster buttonHandlerPckg--><g class="cluster" data-qualified-name="app.buttonHandlerPckg" data-source-line="15" id="ent0009"><path d="M478.5,322.5 L576.7139,322.5 A3.75,3.75 0 0 1 579.2139,325 L586.2139,346.1094 L635.5,346.1094 A2.5,2.5 0 0 1 638,348.6094 L638,420 A2.5,2.5 0 0 1 635.5,422.5 L478.5,422.5 A2.5,2.5 0 0 1 476,420 L476,325 A2.5,2.5 0 0 1 478.5,322.5" fill="none" style="stroke:#000000;stroke-width:1.5;"/><line style="stroke:#000000;stroke-width:1.5;" x1="476" x2="586.2139" y1="346.1094" y2="346.1094"/><text fill="#000000" font-family="sans-serif" font-size="14" font-weight="bold" lengthAdjust="spacing" textLength="97.2139" x="480" y="339.0332">ButtonHandler</text></g><!--cluster displayMgrPckg--><g class="cluster" data-qualified-name="app.displayMgrPckg" data-source-line="19" id="ent0011"><path d="M608.5,50 L684.9619,50 A3.75,3.75 0 0 1 687.4619,52.5 L694.4619,73.6094 L745.5,73.6094 A2.5,2.5 0 0 1 748,76.1094 L748,147.5 A2.5,2.5 0 0 1 745.5,150 L608.5,150 A2.5,2.5 0 0 1 606,147.5 L606,52.5 A2.5,2.5 0 0 1 608.5,50" fill="none" style="stroke:#000000;stroke-width:1.5;"/><line style="stroke:#000000;stroke-width:1.5;" x1="606" x2="694.4619" y1="73.6094" y2="73.6094"/><text fill="#000000" font-family="sans-serif" font-size="14" font-weight="bold" lengthAdjust="spacing" textLength="75.4619" x="610" y="66.5332">DisplayMgr</text></g><!--cluster pluginPckg--><g class="cluster" data-qualified-name="app.pluginPckg" data-source-line="23" id="ent0013"><path d="M447.5,50 L491.2725,50 A3.75,3.75 0 0 1 493.7725,52.5 L500.7725,73.6094 L578.5,73.6094 A2.5,2.5 0 0 1 581,76.1094 L581,147.5 A2.5,2.5 0 0 1 578.5,150 L447.5,150 A2.5,2.5 0 0 1 445,147.5 L445,52.5 A2.5,2.5 0 0 1 447.5,50" fill="none" style="stroke:#000000;stroke-width:1.5;"/><line style="stroke:#000000;stroke-width:1.5;" x1="445" x2="500.7725" y1="73.6094" y2="73.6094"/><text fill="#000000" font-family="sans-serif" font-size="14" font-weight="bold" lengthAdjust="spacing" textLength="42.7725" x="449" y="66.5332">Plugin</text></g><!--cluster systemStatePckg--><g class="cluster" data-qualified-name="app.systemStatePckg" data-source-line="27" id="ent0015"><path d="M40.5,463.5 L125.541,463.5 A3.75,3.75 0 0 1 128.041,466 L135.041,487.1094 L840.5,487.1094 A2.5,2.5 0 0 1 843,489.6094 L843,686 A2.5,2.5 0 0 1 840.5,688.5 L40.5,688.5 A2.5,2.5 0 0 1 38,686 L38,466 A2.5,2.5 0 0 1 40.5,463.5" fill="none" style="stroke:#000000;stroke-width:1.5;"/><line style="stroke:#000000;stroke-width:1.5;" x1="38" x2="135.041" y1="487.1094" y2="487.1094"/><text fill="#000000" font-family="sans-serif" font-size="14" font-weight="bold" lengthAdjust="spacing" textLength="84.041" x="42" y="480.0332">SystemState</text></g><!--cluster restartPckg--><g class="cluster" data-qualified-name="app.restartPckg" data-source-line="37" id="ent0023"><path d="M358.5,729.5 L407.7412,729.5 A3.75,3.75 0 0 1 410.2412,732 L417.2412,753.1094 L495.5,753.1094 A2.5,2.5 0 0 1 498,755.6094 L498,827 A2.5,2.5 0 0 1 495.5,829.5 L358.5,829.5 A2.5,2.5 0 0 1 356,827 L356,732 A2.5,2.5 0 0 1 358.5,729.5" fill="none" style="stroke:#000000;stroke-width:1.5;"/><line style="stroke:#000000;stroke-width:1.5;" x1="356" x2="417.2412" y1="753.1094" y2="753.1094"/><text fill="#000000" font-family="sans-serif" font-size="14" font-weight="bold" lengthAdjust="spacing" textLength="48.2412" x="360" y="746.0332">Restart</text></g><!--entity main--><g class="entity" data-qualified-name="app.main" data-source-line="4" id="ent0003"><rect fill="#F1F1F1" height="65.2188" rx="2.5" ry="2.5" style="stroke:#181818;stroke-width:0.5;" width="145.4893" x="278.5" y="77.5"/><rect fill="#F1F1F1" height="10" style="stroke:#181818;stroke-width:0.5;" width="15" x="403.9893" y="82.5"/><rect fill="#F1F1F1" height="2" style="stroke:#181818;stroke-width:0.5;" width="4" x="401.9893" y="84.5"/><rect fill="#F1F1F1" height="2" style="stroke:#181818;stroke-width:0.5;" width="4" x="401.9893" y="88.5"/><text fill="#000000" font-family="sans-serif" font-size="14" font-style="italic" lengthAdjust="spacing" textLength="103.4893" x="294.5" y="112.0332">&#171;program-entry&#187;</text><text fill="#000000" font-family="sans-serif" font-size="14" lengthAdjust="spacing" textLength="30.3447" x="331.0723" y="129.6426">main</text></g><!--entity stateMachine--><g class="entity" data-qualified-name="app.stateMachinePckg.stateMachine" data-source-line="7" id="ent0005"><rect fill="#F1F1F1" height="47.6094" rx="2.5" ry="2.5" style="stroke:#181818;stroke-width:0.5;" width="125.6064" x="46" y="225.5"/><rect fill="#F1F1F1" height="10" style="stroke:#181818;stroke-width:0.5;" width="15" x="151.6064" y="230.5"/><rect fill="#F1F1F1" height="2" style="stroke:#181818;stroke-width:0.5;" width="4" x="149.6064" y="232.5"/><rect fill="#F1F1F1" height="2" style="stroke:#181818;stroke-width:0.5;" width="4" x="149.6064" y="236.5"/><text fill="#000000" font-family="sans-serif" font-size="14" lengthAdjust="spacing" textLength="85.6064" x="61" y="260.0332">StateMachine</text></g><!--entity miniTerminal--><g class="entity" data-qualified-name="app.generalPckg.miniTerminal" data-source-line="11" id="ent0007"><rect fill="#F1F1F1" height="47.6094" rx="2.5" ry="2.5" style="stroke:#181818;stroke-width:0.5;" width="120.124" x="228" y="225.5"/><rect fill="#F1F1F1" height="10" style="stroke:#181818;stroke-width:0.5;" width="15" x="328.124" y="230.5"/><rect fill="#F1F1F1" height="2" style="stroke:#181818;stroke-width:0.5;" width="4" x="326.124" y="232.5"/><rect fill="#F1F1F1" height="2" style="stroke:#181818;stroke-width:0.5;" width="4" x="326.124" y="236.5"/><text fill="#000000" font-family="sans-serif" font-size="14" lengthAdjust="spacing" textLength="80.124" x="243" y="260.0332">MiniTerminal</text></g><!--entity memoryMonitor--><g class="entity" data-qualified-name="app.generalPckg.memoryMonitor" data-source-line="12" id="ent0008"><rect fill="#F1F1F1" height="47.6094" rx="2.5" ry="2.5" style="stroke:#181818;stroke-width:0.5;" width="137.2412" x="383.5" y="225.5"/><rect fill="#F1F1F1" height="10" style="stroke:#181818;stroke-width:0.5;" width="15" x="500.7412" y="230.5"/><rect fill="#F1F1F1" height="2" style="stroke:#181818;stroke-width:0.5;" width="4" x="498.7412" y="232.5"/><rect fill="#F1F1F1" height="2" style="stroke:#181818;stroke-width:0.5;" width="4" x="498.7412" y="236.5"/><text fill="#000000" font-family="sans-serif" font-size="14" lengthAdjust="spacing" textLength="97.2412" x="398.5" y="260.0332">MemoryMonitor</text></g><!--entity buttonHandler--><g class="entity" data-qualified-name="app.buttonHandlerPckg.buttonHandler" data-source-line="16" id="ent0010"><rect fill="#F1F1F1" height="47.6094" rx="2.5" ry="2.5" style="stroke:#181818;stroke-width:0.5;" width="129.5029" x="492" y="358.5"/><rect fill="#F1F1F1" height="10" style="stroke:#181818;stroke-width:0.5;" width="15" x="601.5029" y="363.5"/><rect fill="#F1F1F1" height="2" style="stroke:#181818;stroke-width:0.5;" width="4" x="599.5029" y="365.5"/><rect fill="#F1F1F1" height="2" style="stroke:#181818;stroke-width:0.5;" width="4" x="599.5029" y="369.5"/><text fill="#000000" font-family="sans-serif" font-size="14" lengthAdjust="spacing" textLength="89.5029" x="507" y="393.0332">ButtonHandler</text></g><!--entity displayMgr--><g class="entity" data-qualified-name="app.displayMgrPckg.displayMgr" data-source-line="20" id="ent0012"><rect fill="#F1F1F1" height="47.6094" rx="2.5" ry="2.5" style="stroke:#181818;stroke-width:0.5;" width="110.0137" x="622" y="86"/><rect fill="#F1F1F1" height="10" style="stroke:#181818;stroke-width:0.5;" width="15" x="712.0137" y="91"/><rect fill="#F1F1F1" height="2" style="stroke:#181818;stroke-width:0.5;" width="4" x="710.0137" y="93"/><rect fill="#F1F1F1" height="2" style="stroke:#181818;stroke-width:0.5;" width="4" x="710.0137" y="97"/><text fill="#000000" font-family="sans-serif" font-size="14" lengthAdjust="spacing" textLength="70.0137" x="637" y="120.5332">DisplayMgr</text></g><!--entity pluginMgr--><g class="entity" data-qualified-name="app.pluginPckg.pluginMgr" data-source-line="24" id="ent0014"><rect fill="#F1F1F1" height="47.6094" rx="2.5" ry="2.5" style="stroke:#181818;stroke-width:0.5;" width="103.0273" x="461.5" y="86"/><rect fill="#F1F1F1" height="10" style="stroke:#181818;stroke-width:0.5;" width="15" x="544.5273" y="91"/><rect fill="#F1F1F1" height="2" style="stroke:#181818;stroke-width:0.5;" width="4" x="542.5273" y="93"/><rect fill="#F1F1F1" height="2" style="stroke:#181818;stroke-width:0.5;" width="4" x="542.5273" y="97"/><text fill="#000000" font-family="sans-serif" font-size="14" lengthAdjust="spacing" textLength="63.0273" x="476.5" y="120.5332">PluginMgr</text></g><!--entity apState--><g class="entity" data-qualified-name="app.systemStatePckg.apState" data-source-line="28" id="ent0016"><rect fill="#F1F1F1" height="47.6094" rx="2.5" ry="2.5" style="stroke:#181818;stroke-width:0.5;" width="91.3652" x="81.5" y="507.5"/><rect fill="#F1F1F1" height="10" style="stroke:#181818;stroke-width:0.5;" width="15" x="152.8652" y="512.5"/><rect fill="#F1F1F1" height="2" style="stroke:#181818;stroke-width:0.5;" width="4" x="150.8652" y="514.5"/><rect fill="#F1F1F1" height="2" style="stroke:#181818;stroke-width:0.5;" width="4" x="150.8652" y="518.5"/><text fill="#000000" font-family="sans-serif" font-size="14" lengthAdjust="spacing" textLength="51.3652" x="96.5" y="542.0332">APState</text></g><!--entity connectedState--><g class="entity" data-qualified-name="app.systemStatePckg.connectedState" data-source-line="29" id="ent0017"><rect fill="#F1F1F1" height="47.6094" rx="2.5" ry="2.5" style="stroke:#181818;stroke-width:0.5;" width="140.4063" x="208" y="507.5"/><rect fill="#F1F1F1" height="10" style="stroke:#181818;stroke-width:0.5;" width="15" x="328.4063" y="512.5"/><rect fill="#F1F1F1" height="2" style="stroke:#181818;stroke-width:0.5;" width="4" x="326.4063" y="514.5"/><rect fill="#F1F1F1" height="2" style="stroke:#181818;stroke-width:0.5;" width="4" x="326.4063" y="518.5"/><text fill="#000000" font-family="sans-serif" font-size="14" lengthAdjust="spacing" textLength="100.4063" x="223" y="542.0332">ConnectedState</text></g><!--entity connectingState--><g class="entity" data-qualified-name="app.systemStatePckg.connectingState" data-source-line="30" id="ent0018"><rect fill="#F1F1F1" height="47.6094" rx="2.5" ry="2.5" style="stroke:#181818;stroke-width:0.5;" width="143.5166" x="536" y="507.5"/><rect fill="#F1F1F1" height="10" style="stroke:#181818;stroke-width:0.5;" width="15" x="659.5166" y="512.5"/><rect fill="#F1F1F1" height="2" style="stroke:#181818;stroke-width:0.5;" width="4" x="657.5166" y="514.5"/><rect fill="#F1F1F1" height="2" style="stroke:#181818;stroke-width:0.5;" width="4" x="657.5166" y="518.5"/><text fill="#000000" font-family="sans-serif" font-size="14" lengthAdjust="spacing" textLength="103.5166" x="551" y="542.0332">ConnectingState</text></g><!--entity errorState--><g class="entity" data-qualified-name="app.systemStatePckg.errorState" data-source-line="31" id="ent0019"><rect fill="#F1F1F1" height="47.6094" rx="2.5" ry="2.5" style="stroke:#181818;stroke-width:0.5;" width="103.7998" x="715" y="507.5"/><rect fill="#F1F1F1" height="10" style="stroke:#181818;stroke-width:0.5;" width="15" x="798.7998" y="512.5"/><rect fill="#F1F1F1" height="2" style="stroke:#181818;stroke-width:0.5;" width="4" x="796.7998" y="514.5"/><rect fill="#F1F1F1" height="2" style="stroke:#181818;stroke-width:0.5;" width="4" x="796.7998" y="518.5"/><text fill="#000000" font-family="sans-serif" font-size="14" lengthAdjust="spacing" textLength="63.7998" x="730" y="542.0332">ErrorState</text></g><!--entity idleState--><g class="entity" data-qualified-name="app.systemStatePckg.idleState" data-source-line="32" id="ent0020"><rect fill="#F1F1F1" height="47.6094" rx="2.5" ry="2.5" style="stroke:#181818;stroke-width:0.5;" width="95.2617" x="81.5" y="616.5"/><rect fill="#F1F1F1" height="10" style="stroke:#181818;stroke-width:0.5;" width="15" x="156.7617" y="621.5"/><rect fill="#F1F1F1" height="2" style="stroke:#181818;stroke-width:0.5;" width="4" x="154.7617" y="623.5"/><rect fill="#F1F1F1" height="2" style="stroke:#181818;stroke-width:0.5;" width="4" x="154.7617" y="627.5"/><text fill="#000000" font-family="sans-serif" font-size="14" lengthAdjust="spacing" textLength="55.2617" x="96.5" y="651.0332">IdleState</text></g><!--entity initState--><g class="entity" data-qualified-name="app.systemStatePckg.initState" data-source-line="33" id="ent0021"><rect fill="#F1F1F1" height="47.6094" rx="2.5" ry="2.5" style="stroke:#181818;stroke-width:0.5;" width="91.3652" x="211.5" y="616.5"/><rect fill="#F1F1F1" height="10" style="stroke:#181818;stroke-width:0.5;" width="15" x="282.8652" y="621.5"/><rect fill="#F1F1F1" height="2" style="stroke:#181818;stroke-width:0.5;" width="4" x="280.8652" y="623.5"/><rect fill="#F1F1F1" height="2" style="stroke:#181818;stroke-width:0.5;" width="4" x="280.8652" y="627.5"/><text fill="#000000" font-family="sans-serif" font-size="14" lengthAdjust="spacing" textLength="51.3652" x="226.5" y="651.0332">InitState</text></g><!--entity restartState--><g class="entity" data-qualified-name="app.systemStatePckg.restartState" data-source-line="34" id="ent0022"><rect fill="#F1F1F1" height="47.6094" rx="2.5" ry="2.5" style="stroke:#181818;stroke-width:0.5;" width="117.8135" x="383" y="507.5"/><rect fill="#F1F1F1" height="10" style="stroke:#181818;stroke-width:0.5;" width="15" x="480.8135" y="512.5"/><rect fill="#F1F1F1" height="2" style="stroke:#181818;stroke-width:0.5;" width="4" x="478.8135" y="514.5"/><rect fill="#F1F1F1" height="2" style="stroke:#181818;stroke-width:0.5;" width="4" x="478.8135" y="518.5"/><text fill="#000000" font-family="sans-serif" font-size="14" lengthAdjust="spacing" textLength="77.8135" x="398" y="542.0332">RestartState</text></g><!--entity restartMgr--><g class="entity" data-qualified-name="app.restartPckg.restartMgr" data-source-line="38" id="ent0024"><rect fill="#F1F1F1" height="47.6094" rx="2.5" ry="2.5" style="stroke:#181818;stroke-width:0.5;" width="109.2344" x="372.5" y="765.5"/><rect fill="#F1F1F1" height="10" style="stroke:#181818;stroke-width:0.5;" width="15" x="461.7344" y="770.5"/><rect fill="#F1F1F1" height="2" style="stroke:#181818;stroke-width:0.5;" width="4" x="459.7344" y="772.5"/><rect fill="#F1F1F1" height="2" style="stroke:#181818;stroke-width:0.5;" width="4" x="459.7344" y="776.5"/><text fill="#000000" font-family="sans-serif" font-size="14" lengthAdjust="spacing" textLength="69.2344" x="387.5" y="800.0332">RestartMgr</text></g><!--link main to stateMachine--><g class="link" data-entity-1="ent0003" data-entity-2="ent0005" data-link-type="dependency" data-source-line="41" id="lnk25"><path d="M285.17,142.57 C261.78,154.27 235.44,167.98 212,181.5 C188.35,195.14 167.5791,208.5421 147.7391,221.8821" fill="none" id="main-to-stateMachine" style="stroke:#181818;stroke-width:1;"/><polygon fill="#181818" points="142.76,225.23,152.4606,223.5276,146.9093,222.4401,147.9968,216.8888,142.76,225.23" style="stroke:#181818;stroke-width:1;"/></g><!--link main to miniTerminal--><g class="link" data-entity-1="ent0003" data-entity-2="ent0007" data-link-type="dependency" data-source-line="42" id="lnk26"><path d="M336.55,142.55 C324.99,167.76 311.5584,197.0649 301.1484,219.7949" fill="none" id="main-to-miniTerminal" style="stroke:#181818;stroke-width:1;"/><polygon fill="#181818" points="298.65,225.25,306.0343,218.7329,300.732,220.7041,298.7608,215.4018,298.65,225.25" style="stroke:#181818;stroke-width:1;"/></g><!--link main to buttonHandler--><g class="link" data-entity-1="ent0003" data-entity-2="ent0010" data-link-type="dependency" data-source-line="43" id="lnk27"><path d="M409.31,142.56 C420.94,148.16 433.2,153.6 445,158 C484.54,172.74 509.49,149.5 537,181.5 C580.23,231.77 571.4601,311.7013 563.4701,352.6113" fill="none" id="main-to-buttonHandler" style="stroke:#181818;stroke-width:1;"/><polygon fill="#181818" points="562.32,358.5,567.971,350.4336,563.2784,353.5927,560.1193,348.9002,562.32,358.5" style="stroke:#181818;stroke-width:1;"/></g><!--link main to memoryMonitor--><g class="link" data-entity-1="ent0003" data-entity-2="ent0008" data-link-type="dependency" data-source-line="44" id="lnk28"><path d="M374.17,142.55 C392.69,167.76 414.6789,197.6837 431.3689,220.4137" fill="none" id="main-to-memoryMonitor" style="stroke:#181818;stroke-width:1;"/><polygon fill="#181818" points="434.92,225.25,432.8175,215.6282,431.9607,221.2198,426.3691,220.363,434.92,225.25" style="stroke:#181818;stroke-width:1;"/></g><!--link stateMachine to systemStatePckg--><g class="link" data-entity-1="ent0005" data-entity-2="ent0015" data-link-type="aggregation" data-source-line="45" id="lnk29"><path d="M90.1752,284.3273 C85.1952,293.9073 85.45,294.65 82,305.5 C66.915,353.005 57.9575,408.2525 52.75,452.1138 C52.4245,454.8551 52.1137,457.5519 51.817,460.1996 C51.7428,460.8616 51.6695,461.5204 51.597,462.1761 C51.5608,462.504 52.179,456.8668 52.1432,457.1931" fill="none" id="stateMachine-systemStatePckg" style="stroke:#181818;stroke-width:1;"/><polygon fill="none" points="95.71,273.68,89.3935,277.1587,90.1752,284.3273,96.4917,280.8486,95.71,273.68" style="stroke:#181818;stroke-width:1;"/><polygon fill="#181818" points="51.489,463.1573,56.4464,454.6471,52.0341,458.1871,48.4941,453.7749,51.489,463.1573" style="stroke:#181818;stroke-width:1;"/></g><!--link connectedState to restartMgr--><g class="link" data-entity-1="ent0017" data-entity-2="ent0024" data-link-type="dependency" data-source-line="47" id="lnk30"><path d="M291.49,555.67 C319.78,604.29 382.0512,711.2847 410.4212,760.0147" fill="none" id="connectedState-to-restartMgr" style="stroke:#181818;stroke-width:1;stroke-dasharray:7,7;"/><polygon fill="#181818" points="413.44,765.2,412.3686,755.4096,410.9243,760.879,405.455,759.4346,413.44,765.2" style="stroke:#181818;stroke-width:1;"/><text fill="#000000" font-family="sans-serif" font-size="13" lengthAdjust="spacing" textLength="35.4199" x="379" y="645.9951">&#171;use&#187;</text></g><!--link restartState to restartMgr--><g class="link" data-entity-1="ent0022" data-entity-2="ent0024" data-link-type="dependency" data-source-line="48" id="lnk31"><path d="M440.64,555.67 C437.79,604.29 431.5703,710.4802 428.7203,759.2102" fill="none" id="restartState-to-restartMgr" style="stroke:#181818;stroke-width:1;stroke-dasharray:7,7;"/><polygon fill="#181818" points="428.37,765.2,432.8886,756.4489,428.6619,760.2085,424.9023,755.9818,428.37,765.2" style="stroke:#181818;stroke-width:1;"/><text fill="#000000" font-family="sans-serif" font-size="13" lengthAdjust="spacing" textLength="35.4199" x="438" y="645.9951">&#171;use&#187;</text></g><?plantuml-src XPHBRiCW48RtEGNAFZb05LbA7sgxi6GrlG0b8ufY7i9aOLMvUmaFUr93weN5pFpV369W36Kdoe6izyRqWb4dj5eJEX1g3FbPhOZ_c9P6Ar2Eh2KLCNnTaDtEMCqjbHiVj6FJHBt9EG-EEcWf-nOA0ZKWHyTEt5SWwKD5xc81k8J_RR5NK61f7m0Ur_KIhL3Y4wmKAX4IEOe0I6t7LYlXj8q4zgHTtUxeyUoSLczK7Nk8p1Vsr7Vt3rWizYm6qzEnvH4uJcQzJ1Kf5kZwCq_DDs5PJnobEQ_9LZ7jOHmSoD3osElPhXVOTpD0JLYNP4zQAM0EZhEQtRZkG4Bn1PLz9Up5Mcrd0YQp97xtRPor8bj5gRzVI9gjalG3_4EnI6sHetZuYS3Y-g4dSMwhdKoSEio5pQPPljafidXgAU93osi-KuldXYiG7VW_boUFBznoijrk6xJv1p_5pWFusNNLuXEhAo-hNm00?></g></svg>