<?plantuml 1.2026.2?><svg xmlns="http://www.w3.org/2000/svg" xmlns:xlink="http://www.w3.org/1999/xlink" contentStyleType="text/css" data-diagram-type="CLASS" height="871px" preserveAspectRatio="none" style="width:1842px;height:871px;background:#FFFFFF;" version="1.1" viewBox="0 0 1842 871" width="1842px" zoomAndPan="magnify"><title>Hardware Abstraction Layer (HAL)</title><defs/><g><g class="title" data-source-line="2"><text fill="#000000" font-family="sans-serif" font-size="14" font-weight="bold" lengthAdjust="spacing" textLength="228.7168" x="799.8516" y="24.5332">Hardware Abstraction Layer (HAL)</text></g><!--cluster contractsPkg--><g class="cluster" data-qualified-name="contractsPkg" data-source-line="4" id="ent0002"><path d="M352.5,592.6094 L449.1826,592.6094 A3.75,3.75 0 0 1 451.6826,595.1094 L458.6826,616.2188 L1800.5,616.2188 A2.5,2.5 0 0 1 1803,618.7188 L1803,862.1094 A2.5,2.5 0 0 1 1800.5,864.6094 L352.5,864.6094 A2.5,2.5 0 0 1 350,862.1094 L350,595.1094 A2.5,2.5 0 0 1 352.5,592.6094" fill="none" style="stroke:#000000;stroke-width:1.5;"/><line style="stroke:#000000;stroke-width:1.5;" x1="350" x2="458.6826" y1="616.2188" y2="616.2188"/><text fill="#000000" font-family="sans-serif" font-size="14" font-weight="bold" lengthAdjust="spacing" textLength="95.6826" x="354" y="609.1426">HAL contracts</text></g><!--cluster gpioPkg--><g class="cluster" data-qualified-name="contractsPkg.gpioPkg" data-source-line="6" id="ent0003"><path d="M813.5,636.6094 L849.5068,636.6094 A3.75,3.75 0 0 1 852.0068,639.1094 L859.0068,660.2188 L1166.5,660.2188 A2.5,2.5 0 0 1 1169,662.7188 L1169,734.1094 A2.5,2.5 0 0 1 1166.5,736.6094 L813.5,736.6094 A2.5,2.5 0 0 1 811,734.1094 L811,639.1094 A2.5,2.5 0 0 1 813.5,636.6094" fill="none" style="stroke:#000000;stroke-width:1.5;"/><line style="stroke:#000000;stroke-width:1.5;" x1="811" x2="859.0068" y1="660.2188" y2="660.2188"/><text fill="#000000" font-family="sans-serif" font-size="14" font-weight="bold" lengthAdjust="spacing" textLength="35.0068" x="815" y="653.1426">GPIO</text></g><!--cluster halPkg--><g class="cluster" data-qualified-name="halPkg" data-source-line="26" id="ent0018"><path d="M61.5,267.6094 L206.4033,267.6094 A3.75,3.75 0 0 1 208.9033,270.1094 L215.9033,291.2188 L1687.5,291.2188 A2.5,2.5 0 0 1 1690,293.7188 L1690,557.1094 A2.5,2.5 0 0 1 1687.5,559.6094 L61.5,559.6094 A2.5,2.5 0 0 1 59,557.1094 L59,270.1094 A2.5,2.5 0 0 1 61.5,267.6094" fill="none" style="stroke:#000000;stroke-width:1.5;"/><line style="stroke:#000000;stroke-width:1.5;" x1="59" x2="215.9033" y1="291.2188" y2="291.2188"/><text fill="#000000" font-family="sans-serif" font-size="14" font-weight="bold" lengthAdjust="spacing" textLength="143.9033" x="63" y="284.1426">HAL implementations</text></g><!--cluster displayHalPkg--><g class="cluster" data-qualified-name="halPkg.displayHalPkg" data-source-line="34" id="ent0024"><path d="M85.5,311.6094 L228.8789,311.6094 A3.75,3.75 0 0 1 231.3789,314.1094 L238.3789,335.2188 L576.5,335.2188 A2.5,2.5 0 0 1 579,337.7188 L579,422.1094 A2.5,2.5 0 0 1 576.5,424.6094 L85.5,424.6094 A2.5,2.5 0 0 1 83,422.1094 L83,314.1094 A2.5,2.5 0 0 1 85.5,311.6094" fill="none" style="stroke:#000000;stroke-width:1.5;"/><line style="stroke:#000000;stroke-width:1.5;" x1="83" x2="238.3789" y1="335.2188" y2="335.2188"/><text fill="#000000" font-family="sans-serif" font-size="14" font-weight="bold" lengthAdjust="spacing" textLength="142.3789" x="87" y="328.1426">Selected display HAL</text></g><!--cluster sensorsPkg--><g class="cluster" data-qualified-name="halPkg.sensorsPkg" data-source-line="40" id="ent0028"><path d="M605.5,312.6094 L661.748,312.6094 A3.75,3.75 0 0 1 664.248,315.1094 L671.248,336.2188 L1178.5,336.2188 A2.5,2.5 0 0 1 1181,338.7188 L1181,533.1094 A2.5,2.5 0 0 1 1178.5,535.6094 L605.5,535.6094 A2.5,2.5 0 0 1 603,533.1094 L603,315.1094 A2.5,2.5 0 0 1 605.5,312.6094" fill="none" style="stroke:#000000;stroke-width:1.5;"/><line style="stroke:#000000;stroke-width:1.5;" x1="603" x2="671.248" y1="336.2188" y2="336.2188"/><text fill="#000000" font-family="sans-serif" font-size="14" font-weight="bold" lengthAdjust="spacing" textLength="55.248" x="607" y="329.1426">Sensors</text></g><!--cluster appPkg--><g class="cluster" data-qualified-name="appPkg" data-source-line="86" id="ent0065"><path d="M664.5,44.6094 L741.7207,44.6094 A3.75,3.75 0 0 1 744.2207,47.1094 L751.2207,68.2188 L1153.5,68.2188 A2.5,2.5 0 0 1 1156,70.7188 L1156,153.1094 A2.5,2.5 0 0 1 1153.5,155.6094 L664.5,155.6094 A2.5,2.5 0 0 1 662,153.1094 L662,47.1094 A2.5,2.5 0 0 1 664.5,44.6094" fill="none" style="stroke:#000000;stroke-width:1.5;"/><line style="stroke:#000000;stroke-width:1.5;" x1="662" x2="751.2207" y1="68.2188" y2="68.2188"/><text fill="#000000" font-family="sans-serif" font-size="14" font-weight="bold" lengthAdjust="spacing" textLength="76.2207" x="666" y="61.1426">Application</text></g><!--class iBoard--><g class="entity" data-qualified-name="contractsPkg.iBoard" data-source-line="12" id="ent0007"><rect fill="#F1F1F1" height="48" rx="2.5" ry="2.5" style="stroke:#181818;stroke-width:0.5;" width="73.248" x="1713.5" y="672.6094"/><ellipse cx="1728.5" cy="688.6094" fill="#B4A7E5" rx="11" ry="11" style="stroke:#181818;stroke-width:1;"/><path d="M1729.4531,685.25 L1729.4531,691.9063 L1731.1719,691.9063 Q1731.7813,691.9063 1732.0469,692.1406 Q1732.3125,692.375 1732.3125,692.7656 Q1732.3125,693.1406 1732.0469,693.375 Q1731.7813,693.6094 1731.1719,693.6094 L1726.0313,693.6094 Q1725.4219,693.6094 1725.1563,693.375 Q1724.8906,693.1406 1724.8906,692.75 Q1724.8906,692.375 1725.1563,692.1406 Q1725.4219,691.9063 1726.0313,691.9063 L1727.75,691.9063 L1727.75,685.25 L1726.0313,685.25 Q1725.4219,685.25 1725.1563,685.0156 Q1724.8906,684.7813 1724.8906,684.3906 Q1724.8906,684.0156 1725.1563,683.7813 Q1725.4219,683.5469 1726.0313,683.5469 L1731.1719,683.5469 Q1731.7813,683.5469 1732.0469,683.7813 Q1732.3125,684.0156 1732.3125,684.3906 Q1732.3125,684.7813 1732.0469,685.0156 Q1731.7813,685.25 1731.1719,685.25 L1729.4531,685.25 Z " fill="#000000"/><text fill="#000000" font-family="sans-serif" font-size="14" font-style="italic" lengthAdjust="spacing" textLength="41.248" x="1742.5" y="694.3379">IBoard</text><line style="stroke:#181818;stroke-width:0.5;" x1="1714.5" x2="1785.748" y1="704.6094" y2="704.6094"/><line style="stroke:#181818;stroke-width:0.5;" x1="1714.5" x2="1785.748" y1="712.6094" y2="712.6094"/></g><!--class iDisplayDrv--><g class="entity" data-qualified-name="contractsPkg.iDisplayDrv" data-source-line="13" id="ent0008"><rect fill="#F1F1F1" height="48" rx="2.5" ry="2.5" style="stroke:#181818;stroke-width:0.5;" width="103.5654" x="573" y="672.6094"/><ellipse cx="588" cy="688.6094" fill="#B4A7E5" rx="11" ry="11" style="stroke:#181818;stroke-width:1;"/><path d="M588.9531,685.25 L588.9531,691.9063 L590.6719,691.9063 Q591.2813,691.9063 591.5469,692.1406 Q591.8125,692.375 591.8125,692.7656 Q591.8125,693.1406 591.5469,693.375 Q591.2813,693.6094 590.6719,693.6094 L585.5313,693.6094 Q584.9219,693.6094 584.6563,693.375 Q584.3906,693.1406 584.3906,692.75 Q584.3906,692.375 584.6563,692.1406 Q584.9219,691.9063 585.5313,691.9063 L587.25,691.9063 L587.25,685.25 L585.5313,685.25 Q584.9219,685.25 584.6563,685.0156 Q584.3906,684.7813 584.3906,684.3906 Q584.3906,684.0156 584.6563,683.7813 Q584.9219,683.5469 585.5313,683.5469 L590.6719,683.5469 Q591.2813,683.5469 591.5469,683.7813 Q591.8125,684.0156 591.8125,684.3906 Q591.8125,684.7813 591.5469,685.0156 Q591.2813,685.25 590.6719,685.25 L588.9531,685.25 Z " fill="#000000"/><text fill="#000000" font-family="sans-serif" font-size="14" font-style="italic" lengthAdjust="spacing" textLength="71.5654" x="602" y="694.3379">IDisplayDrv</text><line style="stroke:#181818;stroke-width:0.5;" x1="574" x2="675.5654" y1="704.6094" y2="704.6094"/><line style="stroke:#181818;stroke-width:0.5;" x1="574" x2="675.5654" y1="712.6094" y2="712.6094"/></g><!--class iButtonDrv--><g class="entity" data-qualified-name="contractsPkg.iButtonDrv" data-source-line="14" id="ent0009"><rect fill="#F1F1F1" height="48" rx="2.5" ry="2.5" style="stroke:#181818;stroke-width:0.5;" width="98.1377" x="1188" y="672.6094"/><ellipse cx="1203" cy="688.6094" fill="#B4A7E5" rx="11" ry="11" style="stroke:#181818;stroke-width:1;"/><path d="M1203.9531,685.25 L1203.9531,691.9063 L1205.6719,691.9063 Q1206.2813,691.9063 1206.5469,692.1406 Q1206.8125,692.375 1206.8125,692.7656 Q1206.8125,693.1406 1206.5469,693.375 Q1206.2813,693.6094 1205.6719,693.6094 L1200.5313,693.6094 Q1199.9219,693.6094 1199.6563,693.375 Q1199.3906,693.1406 1199.3906,692.75 Q1199.3906,692.375 1199.6563,692.1406 Q1199.9219,691.9063 1200.5313,691.9063 L1202.25,691.9063 L1202.25,685.25 L1200.5313,685.25 Q1199.9219,685.25 1199.6563,685.0156 Q1199.3906,684.7813 1199.3906,684.3906 Q1199.3906,684.0156 1199.6563,683.7813 Q1199.9219,683.5469 1200.5313,683.5469 L1205.6719,683.5469 Q1206.2813,683.5469 1206.5469,683.7813 Q1206.8125,684.0156 1206.8125,684.3906 Q1206.8125,684.7813 1206.5469,685.0156 Q1206.2813,685.25 1205.6719,685.25 L1203.9531,685.25 Z " fill="#000000"/><text fill="#000000" font-family="sans-serif" font-size="14" font-style="italic" lengthAdjust="spacing" textLength="66.1377" x="1217" y="694.3379">IButtonDrv</text><line style="stroke:#181818;stroke-width:0.5;" x1="1189" x2="1285.1377" y1="704.6094" y2="704.6094"/><line style="stroke:#181818;stroke-width:0.5;" x1="1189" x2="1285.1377" y1="712.6094" y2="712.6094"/></g><!--class iBuzzerDrv--><g class="entity" data-qualified-name="contractsPkg.iBuzzerDrv" data-source-line="15" id="ent0010"><rect fill="#F1F1F1" height="48" rx="2.5" ry="2.5" style="stroke:#181818;stroke-width:0.5;" width="101.2344" x="1321.5" y="672.6094"/><ellipse cx="1336.5" cy="688.6094" fill="#B4A7E5" rx="11" ry="11" style="stroke:#181818;stroke-width:1;"/><path d="M1337.4531,685.25 L1337.4531,691.9063 L1339.1719,691.9063 Q1339.7813,691.9063 1340.0469,692.1406 Q1340.3125,692.375 1340.3125,692.7656 Q1340.3125,693.1406 1340.0469,693.375 Q1339.7813,693.6094 1339.1719,693.6094 L1334.0313,693.6094 Q1333.4219,693.6094 1333.1563,693.375 Q1332.8906,693.1406 1332.8906,692.75 Q1332.8906,692.375 1333.1563,692.1406 Q1333.4219,691.9063 1334.0313,691.9063 L1335.75,691.9063 L1335.75,685.25 L1334.0313,685.25 Q1333.4219,685.25 1333.1563,685.0156 Q1332.8906,684.7813 1332.8906,684.3906 Q1332.8906,684.0156 1333.1563,683.7813 Q1333.4219,683.5469 1334.0313,683.5469 L1339.1719,683.5469 Q1339.7813,683.5469 1340.0469,683.7813 Q1340.3125,684.0156 1340.3125,684.3906 Q1340.3125,684.7813 1340.0469,685.0156 Q1339.7813,685.25 1339.1719,685.25 L1337.4531,685.25 Z " fill="#000000"/><text fill="#000000" font-family="sans-serif" font-size="14" font-style="italic" lengthAdjust="spacing" textLength="69.2344" x="1350.5" y="694.3379">IBuzzerDrv</text><line style="stroke:#181818;stroke-width:0.5;" x1="1322.5" x2="1421.7344" y1="704.6094" y2="704.6094"/><line style="stroke:#181818;stroke-width:0.5;" x1="1322.5" x2="1421.7344" y1="712.6094" y2="712.6094"/></g><!--class iLedDrv--><g class="entity" data-qualified-name="contractsPkg.iLedDrv" data-source-line="16" id="ent0011"><rect fill="#F1F1F1" height="48" rx="2.5" ry="2.5" style="stroke:#181818;stroke-width:0.5;" width="81.0205" x="1457.5" y="672.6094"/><ellipse cx="1472.5" cy="688.6094" fill="#B4A7E5" rx="11" ry="11" style="stroke:#181818;stroke-width:1;"/><path d="M1473.4531,685.25 L1473.4531,691.9063 L1475.1719,691.9063 Q1475.7813,691.9063 1476.0469,692.1406 Q1476.3125,692.375 1476.3125,692.7656 Q1476.3125,693.1406 1476.0469,693.375 Q1475.7813,693.6094 1475.1719,693.6094 L1470.0313,693.6094 Q1469.4219,693.6094 1469.1563,693.375 Q1468.8906,693.1406 1468.8906,692.75 Q1468.8906,692.375 1469.1563,692.1406 Q1469.4219,691.9063 1470.0313,691.9063 L1471.75,691.9063 L1471.75,685.25 L1470.0313,685.25 Q1469.4219,685.25 1469.1563,685.0156 Q1468.8906,684.7813 1468.8906,684.3906 Q1468.8906,684.0156 1469.1563,683.7813 Q1469.4219,683.5469 1470.0313,683.5469 L1475.1719,683.5469 Q1475.7813,683.5469 1476.0469,683.7813 Q1476.3125,684.0156 1476.3125,684.3906 Q1476.3125,684.7813 1476.0469,685.0156 Q1475.7813,685.25 1475.1719,685.25 L1473.4531,685.25 Z " fill="#000000"/><text fill="#000000" font-family="sans-serif" font-size="14" font-style="italic" lengthAdjust="spacing" textLength="49.0205" x="1486.5" y="694.3379">ILedDrv</text><line style="stroke:#181818;stroke-width:0.5;" x1="1458.5" x2="1537.5205" y1="704.6094" y2="704.6094"/><line style="stroke:#181818;stroke-width:0.5;" x1="1458.5" x2="1537.5205" y1="712.6094" y2="712.6094"/></g><!--class iSystemDrv--><g class="entity" data-qualified-name="contractsPkg.iSystemDrv" data-source-line="17" id="ent0012"><rect fill="#F1F1F1" height="48" rx="2.5" ry="2.5" style="stroke:#181818;stroke-width:0.5;" width="104.3379" x="1574" y="672.6094"/><ellipse cx="1589" cy="688.6094" fill="#B4A7E5" rx="11" ry="11" style="stroke:#181818;stroke-width:1;"/><path d="M1589.9531,685.25 L1589.9531,691.9063 L1591.6719,691.9063 Q1592.2813,691.9063 1592.5469,692.1406 Q1592.8125,692.375 1592.8125,692.7656 Q1592.8125,693.1406 1592.5469,693.375 Q1592.2813,693.6094 1591.6719,693.6094 L1586.5313,693.6094 Q1585.9219,693.6094 1585.6563,693.375 Q1585.3906,693.1406 1585.3906,692.75 Q1585.3906,692.375 1585.6563,692.1406 Q1585.9219,691.9063 1586.5313,691.9063 L1588.25,691.9063 L1588.25,685.25 L1586.5313,685.25 Q1585.9219,685.25 1585.6563,685.0156 Q1585.3906,684.7813 1585.3906,684.3906 Q1585.3906,684.0156 1585.6563,683.7813 Q1585.9219,683.5469 1586.5313,683.5469 L1591.6719,683.5469 Q1592.2813,683.5469 1592.5469,683.7813 Q1592.8125,684.0156 1592.8125,684.3906 Q1592.8125,684.7813 1592.5469,685.0156 Q1592.2813,685.25 1591.6719,685.25 L1589.9531,685.25 Z " fill="#000000"/><text fill="#000000" font-family="sans-serif" font-size="14" font-style="italic" lengthAdjust="spacing" textLength="72.3379" x="1603" y="694.3379">ISystemDrv</text><line style="stroke:#181818;stroke-width:0.5;" x1="1575" x2="1677.3379" y1="704.6094" y2="704.6094"/><line style="stroke:#181818;stroke-width:0.5;" x1="1575" x2="1677.3379" y1="712.6094" y2="712.6094"/></g><!--class iSensor--><g class="entity" data-qualified-name="contractsPkg.iSensor" data-source-line="18" id="ent0013"><rect fill="#F1F1F1" height="48" rx="2.5" ry="2.5" style="stroke:#181818;stroke-width:0.5;" width="80.248" x="712" y="672.6094"/><ellipse cx="727" cy="688.6094" fill="#B4A7E5" rx="11" ry="11" style="stroke:#181818;stroke-width:1;"/><path d="M727.9531,685.25 L727.9531,691.9063 L729.6719,691.9063 Q730.2813,691.9063 730.5469,692.1406 Q730.8125,692.375 730.8125,692.7656 Q730.8125,693.1406 730.5469,693.375 Q730.2813,693.6094 729.6719,693.6094 L724.5313,693.6094 Q723.9219,693.6094 723.6563,693.375 Q723.3906,693.1406 723.3906,692.75 Q723.3906,692.375 723.6563,692.1406 Q723.9219,691.9063 724.5313,691.9063 L726.25,691.9063 L726.25,685.25 L724.5313,685.25 Q723.9219,685.25 723.6563,685.0156 Q723.3906,684.7813 723.3906,684.3906 Q723.3906,684.0156 723.6563,683.7813 Q723.9219,683.5469 724.5313,683.5469 L729.6719,683.5469 Q730.2813,683.5469 730.5469,683.7813 Q730.8125,684.0156 730.8125,684.3906 Q730.8125,684.7813 730.5469,685.0156 Q730.2813,685.25 729.6719,685.25 L727.9531,685.25 Z " fill="#000000"/><text fill="#000000" font-family="sans-serif" font-size="14" font-style="italic" lengthAdjust="spacing" textLength="48.248" x="741" y="694.3379">ISensor</text><line style="stroke:#181818;stroke-width:0.5;" x1="713" x2="791.248" y1="704.6094" y2="704.6094"/><line style="stroke:#181818;stroke-width:0.5;" x1="713" x2="791.248" y1="712.6094" y2="712.6094"/></g><!--class iSensorChannel--><g class="entity" data-qualified-name="contractsPkg.iSensorChannel" data-source-line="19" id="ent0014"><rect fill="#F1F1F1" height="48" rx="2.5" ry="2.5" style="stroke:#181818;stroke-width:0.5;" width="132.3994" x="536" y="800.6094"/><ellipse cx="551" cy="816.6094" fill="#B4A7E5" rx="11" ry="11" style="stroke:#181818;stroke-width:1;"/><path d="M551.9531,813.25 L551.9531,819.9063 L553.6719,819.9063 Q554.2813,819.9063 554.5469,820.1406 Q554.8125,820.375 554.8125,820.7656 Q554.8125,821.1406 554.5469,821.375 Q554.2813,821.6094 553.6719,821.6094 L548.5313,821.6094 Q547.9219,821.6094 547.6563,821.375 Q547.3906,821.1406 547.3906,820.75 Q547.3906,820.375 547.6563,820.1406 Q547.9219,819.9063 548.5313,819.9063 L550.25,819.9063 L550.25,813.25 L548.5313,813.25 Q547.9219,813.25 547.6563,813.0156 Q547.3906,812.7813 547.3906,812.3906 Q547.3906,812.0156 547.6563,811.7813 Q547.9219,811.5469 548.5313,811.5469 L553.6719,811.5469 Q554.2813,811.5469 554.5469,811.7813 Q554.8125,812.0156 554.8125,812.3906 Q554.8125,812.7813 554.5469,813.0156 Q554.2813,813.25 553.6719,813.25 L551.9531,813.25 Z " fill="#000000"/><text fill="#000000" font-family="sans-serif" font-size="14" font-style="italic" lengthAdjust="spacing" textLength="100.3994" x="565" y="822.3379">ISensorChannel</text><line style="stroke:#181818;stroke-width:0.5;" x1="537" x2="667.3994" y1="832.6094" y2="832.6094"/><line style="stroke:#181818;stroke-width:0.5;" x1="537" x2="667.3994" y1="840.6094" y2="840.6094"/></g><!--class sensorChannelType--><g class="entity" data-qualified-name="contractsPkg.sensorChannelType" data-source-line="21" id="ent0015"><rect fill="#F1F1F1" height="48" rx="2.5" ry="2.5" style="stroke:#181818;stroke-width:0.5;" width="170.9639" x="366.5" y="672.6094"/><ellipse cx="381.5" cy="688.6094" fill="#ADD1B2" rx="11" ry="11" style="stroke:#181818;stroke-width:1;"/><path d="M384.2656,684.4844 Q384.4219,684.2656 384.6094,684.1563 Q384.7969,684.0469 385.0156,684.0469 Q385.3906,684.0469 385.625,684.3125 Q385.8594,684.5625 385.8594,685.1719 L385.8594,686.625 Q385.8594,687.2344 385.625,687.5 Q385.3906,687.7656 385.0156,687.7656 Q384.6719,687.7656 384.4688,687.5625 Q384.2656,687.375 384.1563,686.8594 Q384.1094,686.5 383.9219,686.3125 Q383.5938,685.9375 382.9844,685.7188 Q382.375,685.5 381.75,685.5 Q380.9844,685.5 380.3438,685.8281 Q379.7188,686.1563 379.2188,686.9063 Q378.7344,687.6563 378.7344,688.6875 L378.7344,689.7813 Q378.7344,691.0156 379.625,691.8438 Q380.5156,692.6563 382.1094,692.6563 Q383.0469,692.6563 383.7031,692.4063 Q384.0938,692.25 384.5156,691.8125 Q384.7813,691.5469 384.9219,691.4688 Q385.0781,691.3906 385.2813,691.3906 Q385.6094,691.3906 385.8594,691.6563 Q386.125,691.9063 386.125,692.25 Q386.125,692.5938 385.7813,693 Q385.2813,693.5781 384.4844,693.9063 Q383.4063,694.3594 382.1094,694.3594 Q380.5938,694.3594 379.3906,693.7344 Q378.4063,693.2344 377.7188,692.1719 Q377.0313,691.0938 377.0313,689.8125 L377.0313,688.6563 Q377.0313,687.3281 377.6406,686.1875 Q378.2656,685.0313 379.3594,684.4219 Q380.4531,683.7969 381.6875,683.7969 Q382.4219,683.7969 383.0625,683.9688 Q383.7188,684.125 384.2656,684.4844 Z " fill="#000000"/><text fill="#000000" font-family="sans-serif" font-size="14" lengthAdjust="spacing" textLength="127.6338" x="395.5" y="694.3379">SensorChannelType</text><rect fill="#FFFFFF" height="17.0938" style="stroke:#181818;stroke-width:1;stroke-dasharray:2,2;" width="9.3301" x="531.1338" y="669.6094"/><text fill="#000000" font-family="sans-serif" font-size="12" font-style="italic" lengthAdjust="spacing" textLength="7.3301" x="532.1338" y="683.0664">T</text><line style="stroke:#181818;stroke-width:0.5;" x1="367.5" x2="536.4639" y1="704.6094" y2="704.6094"/><line style="stroke:#181818;stroke-width:0.5;" x1="367.5" x2="536.4639" y1="712.6094" y2="712.6094"/></g><!--class dOutPin--><g class="entity" data-qualified-name="contractsPkg.gpioPkg.dOutPin" data-source-line="7" id="ent0004"><rect fill="#F1F1F1" height="48" rx="2.5" ry="2.5" style="stroke:#181818;stroke-width:0.5;" width="84.9102" x="1067.5" y="672.6094"/><ellipse cx="1082.5" cy="688.6094" fill="#ADD1B2" rx="11" ry="11" style="stroke:#181818;stroke-width:1;"/><path d="M1085.2656,684.4844 Q1085.4219,684.2656 1085.6094,684.1563 Q1085.7969,684.0469 1086.0156,684.0469 Q1086.3906,684.0469 1086.625,684.3125 Q1086.8594,684.5625 1086.8594,685.1719 L1086.8594,686.625 Q1086.8594,687.2344 1086.625,687.5 Q1086.3906,687.7656 1086.0156,687.7656 Q1085.6719,687.7656 1085.4688,687.5625 Q1085.2656,687.375 1085.1563,686.8594 Q1085.1094,686.5 1084.9219,686.3125 Q1084.5938,685.9375 1083.9844,685.7188 Q1083.375,685.5 1082.75,685.5 Q1081.9844,685.5 1081.3438,685.8281 Q1080.7188,686.1563 1080.2188,686.9063 Q1079.7344,687.6563 1079.7344,688.6875 L1079.7344,689.7813 Q1079.7344,691.0156 1080.625,691.8438 Q1081.5156,692.6563 1083.1094,692.6563 Q1084.0469,692.6563 1084.7031,692.4063 Q1085.0938,692.25 1085.5156,691.8125 Q1085.7813,691.5469 1085.9219,691.4688 Q1086.0781,691.3906 1086.2813,691.3906 Q1086.6094,691.3906 1086.8594,691.6563 Q1087.125,691.9063 1087.125,692.25 Q1087.125,692.5938 1086.7813,693 Q1086.2813,693.5781 1085.4844,693.9063 Q1084.4063,694.3594 1083.1094,694.3594 Q1081.5938,694.3594 1080.3906,693.7344 Q1079.4063,693.2344 1078.7188,692.1719 Q1078.0313,691.0938 1078.0313,689.8125 L1078.0313,688.6563 Q1078.0313,687.3281 1078.6406,686.1875 Q1079.2656,685.0313 1080.3594,684.4219 Q1081.4531,683.7969 1082.6875,683.7969 Q1083.4219,683.7969 1084.0625,683.9688 Q1084.7188,684.125 1085.2656,684.4844 Z " fill="#000000"/><text fill="#000000" font-family="sans-serif" font-size="14" lengthAdjust="spacing" textLength="52.9102" x="1096.5" y="694.3379">DOutPin</text><line style="stroke:#181818;stroke-width:0.5;" x1="1068.5" x2="1151.4102" y1="704.6094" y2="704.6094"/><line style="stroke:#181818;stroke-width:0.5;" x1="1068.5" x2="1151.4102" y1="712.6094" y2="712.6094"/></g><!--class dInPin--><g class="entity" data-qualified-name="contractsPkg.gpioPkg.dInPin" data-source-line="8" id="ent0005"><rect fill="#F1F1F1" height="48" rx="2.5" ry="2.5" style="stroke:#181818;stroke-width:0.5;" width="74.0205" x="958" y="672.6094"/><ellipse cx="973" cy="688.6094" fill="#ADD1B2" rx="11" ry="11" style="stroke:#181818;stroke-width:1;"/><path d="M975.7656,684.4844 Q975.9219,684.2656 976.1094,684.1563 Q976.2969,684.0469 976.5156,684.0469 Q976.8906,684.0469 977.125,684.3125 Q977.3594,684.5625 977.3594,685.1719 L977.3594,686.625 Q977.3594,687.2344 977.125,687.5 Q976.8906,687.7656 976.5156,687.7656 Q976.1719,687.7656 975.9688,687.5625 Q975.7656,687.375 975.6563,686.8594 Q975.6094,686.5 975.4219,686.3125 Q975.0938,685.9375 974.4844,685.7188 Q973.875,685.5 973.25,685.5 Q972.4844,685.5 971.8438,685.8281 Q971.2188,686.1563 970.7188,686.9063 Q970.2344,687.6563 970.2344,688.6875 L970.2344,689.7813 Q970.2344,691.0156 971.125,691.8438 Q972.0156,692.6563 973.6094,692.6563 Q974.5469,692.6563 975.2031,692.4063 Q975.5938,692.25 976.0156,691.8125 Q976.2813,691.5469 976.4219,691.4688 Q976.5781,691.3906 976.7813,691.3906 Q977.1094,691.3906 977.3594,691.6563 Q977.625,691.9063 977.625,692.25 Q977.625,692.5938 977.2813,693 Q976.7813,693.5781 975.9844,693.9063 Q974.9063,694.3594 973.6094,694.3594 Q972.0938,694.3594 970.8906,693.7344 Q969.9063,693.2344 969.2188,692.1719 Q968.5313,691.0938 968.5313,689.8125 L968.5313,688.6563 Q968.5313,687.3281 969.1406,686.1875 Q969.7656,685.0313 970.8594,684.4219 Q971.9531,683.7969 973.1875,683.7969 Q973.9219,683.7969 974.5625,683.9688 Q975.2188,684.125 975.7656,684.4844 Z " fill="#000000"/><text fill="#000000" font-family="sans-serif" font-size="14" lengthAdjust="spacing" textLength="42.0205" x="987" y="694.3379">DInPin</text><line style="stroke:#181818;stroke-width:0.5;" x1="959" x2="1031.0205" y1="704.6094" y2="704.6094"/><line style="stroke:#181818;stroke-width:0.5;" x1="959" x2="1031.0205" y1="712.6094" y2="712.6094"/></g><!--class analogPin--><g class="entity" data-qualified-name="contractsPkg.gpioPkg.analogPin" data-source-line="9" id="ent0006"><rect fill="#F1F1F1" height="48" rx="2.5" ry="2.5" style="stroke:#181818;stroke-width:0.5;" width="95.8271" x="827" y="672.6094"/><ellipse cx="842" cy="688.6094" fill="#ADD1B2" rx="11" ry="11" style="stroke:#181818;stroke-width:1;"/><path d="M844.7656,684.4844 Q844.9219,684.2656 845.1094,684.1563 Q845.2969,684.0469 845.5156,684.0469 Q845.8906,684.0469 846.125,684.3125 Q846.3594,684.5625 846.3594,685.1719 L846.3594,686.625 Q846.3594,687.2344 846.125,687.5 Q845.8906,687.7656 845.5156,687.7656 Q845.1719,687.7656 844.9688,687.5625 Q844.7656,687.375 844.6563,686.8594 Q844.6094,686.5 844.4219,686.3125 Q844.0938,685.9375 843.4844,685.7188 Q842.875,685.5 842.25,685.5 Q841.4844,685.5 840.8438,685.8281 Q840.2188,686.1563 839.7188,686.9063 Q839.2344,687.6563 839.2344,688.6875 L839.2344,689.7813 Q839.2344,691.0156 840.125,691.8438 Q841.0156,692.6563 842.6094,692.6563 Q843.5469,692.6563 844.2031,692.4063 Q844.5938,692.25 845.0156,691.8125 Q845.2813,691.5469 845.4219,691.4688 Q845.5781,691.3906 845.7813,691.3906 Q846.1094,691.3906 846.3594,691.6563 Q846.625,691.9063 846.625,692.25 Q846.625,692.5938 846.2813,693 Q845.7813,693.5781 844.9844,693.9063 Q843.9063,694.3594 842.6094,694.3594 Q841.0938,694.3594 839.8906,693.7344 Q838.9063,693.2344 838.2188,692.1719 Q837.5313,691.0938 837.5313,689.8125 L837.5313,688.6563 Q837.5313,687.3281 838.1406,686.1875 Q838.7656,685.0313 839.8594,684.4219 Q840.9531,683.7969 842.1875,683.7969 Q842.9219,683.7969 843.5625,683.9688 Q844.2188,684.125 844.7656,684.4844 Z " fill="#000000"/><text fill="#000000" font-family="sans-serif" font-size="14" lengthAdjust="spacing" textLength="63.8271" x="856" y="694.3379">AnalogPin</text><line style="stroke:#181818;stroke-width:0.5;" x1="828" x2="921.8271" y1="704.6094" y2="704.6094"/><line style="stroke:#181818;stroke-width:0.5;" x1="828" x2="921.8271" y1="712.6094" y2="712.6094"/></g><!--class board--><g class="entity" data-qualified-name="halPkg.board" data-source-line="28" id="ent0019"><rect fill="#F1F1F1" height="58.7031" rx="2.5" ry="2.5" style="stroke:#181818;stroke-width:0.5;" width="89.3828" x="1253.5" y="348.6094"/><ellipse cx="1268.5" cy="369.9609" fill="#ADD1B2" rx="11" ry="11" style="stroke:#181818;stroke-width:1;"/><path d="M1271.2656,365.8359 Q1271.4219,365.6172 1271.6094,365.5078 Q1271.7969,365.3984 1272.0156,365.3984 Q1272.3906,365.3984 1272.625,365.6641 Q1272.8594,365.9141 1272.8594,366.5234 L1272.8594,367.9766 Q1272.8594,368.5859 1272.625,368.8516 Q1272.3906,369.1172 1272.0156,369.1172 Q1271.6719,369.1172 1271.4688,368.9141 Q1271.2656,368.7266 1271.1563,368.2109 Q1271.1094,367.8516 1270.9219,367.6641 Q1270.5938,367.2891 1269.9844,367.0703 Q1269.375,366.8516 1268.75,366.8516 Q1267.9844,366.8516 1267.3438,367.1797 Q1266.7188,367.5078 1266.2188,368.2578 Q1265.7344,369.0078 1265.7344,370.0391 L1265.7344,371.1328 Q1265.7344,372.3672 1266.625,373.1953 Q1267.5156,374.0078 1269.1094,374.0078 Q1270.0469,374.0078 1270.7031,373.7578 Q1271.0938,373.6016 1271.5156,373.1641 Q1271.7813,372.8984 1271.9219,372.8203 Q1272.0781,372.7422 1272.2813,372.7422 Q1272.6094,372.7422 1272.8594,373.0078 Q1273.125,373.2578 1273.125,373.6016 Q1273.125,373.9453 1272.7813,374.3516 Q1272.2813,374.9297 1271.4844,375.2578 Q1270.4063,375.7109 1269.1094,375.7109 Q1267.5938,375.7109 1266.3906,375.0859 Q1265.4063,374.5859 1264.7188,373.5234 Q1264.0313,372.4453 1264.0313,371.1641 L1264.0313,370.0078 Q1264.0313,368.6797 1264.6406,367.5391 Q1265.2656,366.3828 1266.3594,365.7734 Q1267.4531,365.1484 1268.6875,365.1484 Q1269.4219,365.1484 1270.0625,365.3203 Q1270.7188,365.4766 1271.2656,365.8359 Z " fill="#000000"/><text fill="#000000" font-family="sans-serif" font-size="12" font-style="italic" lengthAdjust="spacing" textLength="61.3828" x="1280.5" y="366.0664">&#171;singleton&#187;</text><text fill="#000000" font-family="sans-serif" font-size="14" lengthAdjust="spacing" textLength="37.3584" x="1292.5122" y="383.2363">Board</text><line style="stroke:#181818;stroke-width:0.5;" x1="1254.5" x2="1341.8828" y1="391.3125" y2="391.3125"/><line style="stroke:#181818;stroke-width:0.5;" x1="1254.5" x2="1341.8828" y1="399.3125" y2="399.3125"/></g><!--class buttonDrv--><g class="entity" data-qualified-name="halPkg.buttonDrv" data-source-line="29" id="ent0020"><rect fill="#F1F1F1" height="48" rx="2.5" ry="2.5" style="stroke:#181818;stroke-width:0.5;" width="94.248" x="1200" y="471.6094"/><ellipse cx="1215" cy="487.6094" fill="#ADD1B2" rx="11" ry="11" style="stroke:#181818;stroke-width:1;"/><path d="M1217.7656,483.4844 Q1217.9219,483.2656 1218.1094,483.1563 Q1218.2969,483.0469 1218.5156,483.0469 Q1218.8906,483.0469 1219.125,483.3125 Q1219.3594,483.5625 1219.3594,484.1719 L1219.3594,485.625 Q1219.3594,486.2344 1219.125,486.5 Q1218.8906,486.7656 1218.5156,486.7656 Q1218.1719,486.7656 1217.9688,486.5625 Q1217.7656,486.375 1217.6563,485.8594 Q1217.6094,485.5 1217.4219,485.3125 Q1217.0938,484.9375 1216.4844,484.7188 Q1215.875,484.5 1215.25,484.5 Q1214.4844,484.5 1213.8438,484.8281 Q1213.2188,485.1563 1212.7188,485.9063 Q1212.2344,486.6563 1212.2344,487.6875 L1212.2344,488.7813 Q1212.2344,490.0156 1213.125,490.8438 Q1214.0156,491.6563 1215.6094,491.6563 Q1216.5469,491.6563 1217.2031,491.4063 Q1217.5938,491.25 1218.0156,490.8125 Q1218.2813,490.5469 1218.4219,490.4688 Q1218.5781,490.3906 1218.7813,490.3906 Q1219.1094,490.3906 1219.3594,490.6563 Q1219.625,490.9063 1219.625,491.25 Q1219.625,491.5938 1219.2813,492 Q1218.7813,492.5781 1217.9844,492.9063 Q1216.9063,493.3594 1215.6094,493.3594 Q1214.0938,493.3594 1212.8906,492.7344 Q1211.9063,492.2344 1211.2188,491.1719 Q1210.5313,490.0938 1210.5313,488.8125 L1210.5313,487.6563 Q1210.5313,486.3281 1211.1406,485.1875 Q1211.7656,484.0313 1212.8594,483.4219 Q1213.9531,482.7969 1215.1875,482.7969 Q1215.9219,482.7969 1216.5625,482.9688 Q1217.2188,483.125 1217.7656,483.4844 Z " fill="#000000"/><text fill="#000000" font-family="sans-serif" font-size="14" lengthAdjust="spacing" textLength="62.248" x="1229" y="493.3379">ButtonDrv</text><line style="stroke:#181818;stroke-width:0.5;" x1="1201" x2="1293.248" y1="503.6094" y2="503.6094"/><line style="stroke:#181818;stroke-width:0.5;" x1="1201" x2="1293.248" y1="511.6094" y2="511.6094"/></g><!--class buzzerDrv--><g class="entity" data-qualified-name="halPkg.buzzerDrv" data-source-line="30" id="ent0021"><rect fill="#F1F1F1" height="48" rx="2.5" ry="2.5" style="stroke:#181818;stroke-width:0.5;" width="97.3447" x="1329.5" y="471.6094"/><ellipse cx="1344.5" cy="487.6094" fill="#ADD1B2" rx="11" ry="11" style="stroke:#181818;stroke-width:1;"/><path d="M1347.2656,483.4844 Q1347.4219,483.2656 1347.6094,483.1563 Q1347.7969,483.0469 1348.0156,483.0469 Q1348.3906,483.0469 1348.625,483.3125 Q1348.8594,483.5625 1348.8594,484.1719 L1348.8594,485.625 Q1348.8594,486.2344 1348.625,486.5 Q1348.3906,486.7656 1348.0156,486.7656 Q1347.6719,486.7656 1347.4688,486.5625 Q1347.2656,486.375 1347.1563,485.8594 Q1347.1094,485.5 1346.9219,485.3125 Q1346.5938,484.9375 1345.9844,484.7188 Q1345.375,484.5 1344.75,484.5 Q1343.9844,484.5 1343.3438,484.8281 Q1342.7188,485.1563 1342.2188,485.9063 Q1341.7344,486.6563 1341.7344,487.6875 L1341.7344,488.7813 Q1341.7344,490.0156 1342.625,490.8438 Q1343.5156,491.6563 1345.1094,491.6563 Q1346.0469,491.6563 1346.7031,491.4063 Q1347.0938,491.25 1347.5156,490.8125 Q1347.7813,490.5469 1347.9219,490.4688 Q1348.0781,490.3906 1348.2813,490.3906 Q1348.6094,490.3906 1348.8594,490.6563 Q1349.125,490.9063 1349.125,491.25 Q1349.125,491.5938 1348.7813,492 Q1348.2813,492.5781 1347.4844,492.9063 Q1346.4063,493.3594 1345.1094,493.3594 Q1343.5938,493.3594 1342.3906,492.7344 Q1341.4063,492.2344 1340.7188,491.1719 Q1340.0313,490.0938 1340.0313,488.8125 L1340.0313,487.6563 Q1340.0313,486.3281 1340.6406,485.1875 Q1341.2656,484.0313 1342.3594,483.4219 Q1343.4531,482.7969 1344.6875,482.7969 Q1345.4219,482.7969 1346.0625,482.9688 Q1346.7188,483.125 1347.2656,483.4844 Z " fill="#000000"/><text fill="#000000" font-family="sans-serif" font-size="14" lengthAdjust="spacing" textLength="65.3447" x="1358.5" y="493.3379">BuzzerDrv</text><line style="stroke:#181818;stroke-width:0.5;" x1="1330.5" x2="1425.8447" y1="503.6094" y2="503.6094"/><line style="stroke:#181818;stroke-width:0.5;" x1="1330.5" x2="1425.8447" y1="511.6094" y2="511.6094"/></g><!--class ledDrv--><g class="entity" data-qualified-name="halPkg.ledDrv" data-source-line="31" id="ent0022"><rect fill="#F1F1F1" height="48" rx="2.5" ry="2.5" style="stroke:#181818;stroke-width:0.5;" width="77.1309" x="1461.5" y="471.6094"/><ellipse cx="1476.5" cy="487.6094" fill="#ADD1B2" rx="11" ry="11" style="stroke:#181818;stroke-width:1;"/><path d="M1479.2656,483.4844 Q1479.4219,483.2656 1479.6094,483.1563 Q1479.7969,483.0469 1480.0156,483.0469 Q1480.3906,483.0469 1480.625,483.3125 Q1480.8594,483.5625 1480.8594,484.1719 L1480.8594,485.625 Q1480.8594,486.2344 1480.625,486.5 Q1480.3906,486.7656 1480.0156,486.7656 Q1479.6719,486.7656 1479.4688,486.5625 Q1479.2656,486.375 1479.1563,485.8594 Q1479.1094,485.5 1478.9219,485.3125 Q1478.5938,484.9375 1477.9844,484.7188 Q1477.375,484.5 1476.75,484.5 Q1475.9844,484.5 1475.3438,484.8281 Q1474.7188,485.1563 1474.2188,485.9063 Q1473.7344,486.6563 1473.7344,487.6875 L1473.7344,488.7813 Q1473.7344,490.0156 1474.625,490.8438 Q1475.5156,491.6563 1477.1094,491.6563 Q1478.0469,491.6563 1478.7031,491.4063 Q1479.0938,491.25 1479.5156,490.8125 Q1479.7813,490.5469 1479.9219,490.4688 Q1480.0781,490.3906 1480.2813,490.3906 Q1480.6094,490.3906 1480.8594,490.6563 Q1481.125,490.9063 1481.125,491.25 Q1481.125,491.5938 1480.7813,492 Q1480.2813,492.5781 1479.4844,492.9063 Q1478.4063,493.3594 1477.1094,493.3594 Q1475.5938,493.3594 1474.3906,492.7344 Q1473.4063,492.2344 1472.7188,491.1719 Q1472.0313,490.0938 1472.0313,488.8125 L1472.0313,487.6563 Q1472.0313,486.3281 1472.6406,485.1875 Q1473.2656,484.0313 1474.3594,483.4219 Q1475.4531,482.7969 1476.6875,482.7969 Q1477.4219,482.7969 1478.0625,482.9688 Q1478.7188,483.125 1479.2656,483.4844 Z " fill="#000000"/><text fill="#000000" font-family="sans-serif" font-size="14" lengthAdjust="spacing" textLength="45.1309" x="1490.5" y="493.3379">LedDrv</text><line style="stroke:#181818;stroke-width:0.5;" x1="1462.5" x2="1537.6309" y1="503.6094" y2="503.6094"/><line style="stroke:#181818;stroke-width:0.5;" x1="1462.5" x2="1537.6309" y1="511.6094" y2="511.6094"/></g><!--class systemDrv--><g class="entity" data-qualified-name="halPkg.systemDrv" data-source-line="32" id="ent0023"><rect fill="#F1F1F1" height="48" rx="2.5" ry="2.5" style="stroke:#181818;stroke-width:0.5;" width="100.4482" x="1574" y="471.6094"/><ellipse cx="1589" cy="487.6094" fill="#ADD1B2" rx="11" ry="11" style="stroke:#181818;stroke-width:1;"/><path d="M1591.7656,483.4844 Q1591.9219,483.2656 1592.1094,483.1563 Q1592.2969,483.0469 1592.5156,483.0469 Q1592.8906,483.0469 1593.125,483.3125 Q1593.3594,483.5625 1593.3594,484.1719 L1593.3594,485.625 Q1593.3594,486.2344 1593.125,486.5 Q1592.8906,486.7656 1592.5156,486.7656 Q1592.1719,486.7656 1591.9688,486.5625 Q1591.7656,486.375 1591.6563,485.8594 Q1591.6094,485.5 1591.4219,485.3125 Q1591.0938,484.9375 1590.4844,484.7188 Q1589.875,484.5 1589.25,484.5 Q1588.4844,484.5 1587.8438,484.8281 Q1587.2188,485.1563 1586.7188,485.9063 Q1586.2344,486.6563 1586.2344,487.6875 L1586.2344,488.7813 Q1586.2344,490.0156 1587.125,490.8438 Q1588.0156,491.6563 1589.6094,491.6563 Q1590.5469,491.6563 1591.2031,491.4063 Q1591.5938,491.25 1592.0156,490.8125 Q1592.2813,490.5469 1592.4219,490.4688 Q1592.5781,490.3906 1592.7813,490.3906 Q1593.1094,490.3906 1593.3594,490.6563 Q1593.625,490.9063 1593.625,491.25 Q1593.625,491.5938 1593.2813,492 Q1592.7813,492.5781 1591.9844,492.9063 Q1590.9063,493.3594 1589.6094,493.3594 Q1588.0938,493.3594 1586.8906,492.7344 Q1585.9063,492.2344 1585.2188,491.1719 Q1584.5313,490.0938 1584.5313,488.8125 L1584.5313,487.6563 Q1584.5313,486.3281 1585.1406,485.1875 Q1585.7656,484.0313 1586.8594,483.4219 Q1587.9531,482.7969 1589.1875,482.7969 Q1589.9219,482.7969 1590.5625,482.9688 Q1591.2188,483.125 1591.7656,483.4844 Z " fill="#000000"/><text fill="#000000" font-family="sans-serif" font-size="14" lengthAdjust="spacing" textLength="68.4482" x="1603" y="493.3379">SystemDrv</text><line style="stroke:#181818;stroke-width:0.5;" x1="1575" x2="1673.4482" y1="503.6094" y2="503.6094"/><line style="stroke:#181818;stroke-width:0.5;" x1="1575" x2="1673.4482" y1="511.6094" y2="511.6094"/></g><g class="entity" data-qualified-name="halPkg.GMN34" data-source-line="49" id="ent0035"><path d="M1378,356.6094 L1378,374.1094 L1342.53,378.1094 L1378,382.1094 L1378,399.3125 A0,0 0 0 0 1378,399.3125 L1674.3042,399.3125 A0,0 0 0 0 1674.3042,399.3125 L1674.3042,366.6094 L1664.3042,356.6094 L1378,356.6094 A0,0 0 0 0 1378,356.6094" fill="#FEFFDD" style="stroke:#181818;stroke-width:0.5;"/><path d="M1664.3042,356.6094 L1664.3042,366.6094 L1674.3042,366.6094 L1664.3042,356.6094" fill="#FEFFDD" style="stroke:#181818;stroke-width:0.5;"/><text fill="#000000" font-family="sans-serif" font-size="13" lengthAdjust="spacing" textLength="266.6396" x="1384" y="375.1045">A board owns the common ESP32 drivers and</text><text fill="#000000" font-family="sans-serif" font-size="13" lengthAdjust="spacing" textLength="275.3042" x="1384" y="391.4561">exactly one display driver selected at build time.</text></g><!--class ledMatrixDisplayDrv--><g class="entity" data-qualified-name="halPkg.displayHalPkg.ledMatrixDisplayDrv" data-source-line="35" id="ent0025"><rect fill="#F1F1F1" height="61.2188" rx="2.5" ry="2.5" style="stroke:#181818;stroke-width:0.5;" width="123.7998" x="260" y="347.6094"/><ellipse cx="275" cy="370.2188" fill="#ADD1B2" rx="11" ry="11" style="stroke:#181818;stroke-width:1;"/><path d="M277.7656,366.0938 Q277.9219,365.875 278.1094,365.7656 Q278.2969,365.6563 278.5156,365.6563 Q278.8906,365.6563 279.125,365.9219 Q279.3594,366.1719 279.3594,366.7813 L279.3594,368.2344 Q279.3594,368.8438 279.125,369.1094 Q278.8906,369.375 278.5156,369.375 Q278.1719,369.375 277.9688,369.1719 Q277.7656,368.9844 277.6563,368.4688 Q277.6094,368.1094 277.4219,367.9219 Q277.0938,367.5469 276.4844,367.3281 Q275.875,367.1094 275.25,367.1094 Q274.4844,367.1094 273.8438,367.4375 Q273.2188,367.7656 272.7188,368.5156 Q272.2344,369.2656 272.2344,370.2969 L272.2344,371.3906 Q272.2344,372.625 273.125,373.4531 Q274.0156,374.2656 275.6094,374.2656 Q276.5469,374.2656 277.2031,374.0156 Q277.5938,373.8594 278.0156,373.4219 Q278.2813,373.1563 278.4219,373.0781 Q278.5781,373 278.7813,373 Q279.1094,373 279.3594,373.2656 Q279.625,373.5156 279.625,373.8594 Q279.625,374.2031 279.2813,374.6094 Q278.7813,375.1875 277.9844,375.5156 Q276.9063,375.9688 275.6094,375.9688 Q274.0938,375.9688 272.8906,375.3438 Q271.9063,374.8438 271.2188,373.7813 Q270.5313,372.7031 270.5313,371.4219 L270.5313,370.2656 Q270.5313,368.9375 271.1406,367.7969 Q271.7656,366.6406 272.8594,366.0313 Q273.9531,365.4063 275.1875,365.4063 Q275.9219,365.4063 276.5625,365.5781 Q277.2188,365.7344 277.7656,366.0938 Z " fill="#000000"/><text fill="#000000" font-family="sans-serif" font-size="14" lengthAdjust="spacing" textLength="67.6758" x="301.062" y="367.1426">DisplayDrv</text><text fill="#000000" font-family="sans-serif" font-size="14" lengthAdjust="spacing" textLength="91.7998" x="289" y="384.752">(HalLedMatrix)</text><line style="stroke:#181818;stroke-width:0.5;" x1="261" x2="382.7998" y1="392.8281" y2="392.8281"/><line style="stroke:#181818;stroke-width:0.5;" x1="261" x2="382.7998" y1="400.8281" y2="400.8281"/></g><!--class hub75DisplayDrv--><g class="entity" data-qualified-name="halPkg.displayHalPkg.hub75DisplayDrv" data-source-line="36" id="ent0026"><rect fill="#F1F1F1" height="61.2188" rx="2.5" ry="2.5" style="stroke:#181818;stroke-width:0.5;" width="143.2822" x="419.5" y="347.6094"/><ellipse cx="434.5" cy="370.2188" fill="#ADD1B2" rx="11" ry="11" style="stroke:#181818;stroke-width:1;"/><path d="M437.2656,366.0938 Q437.4219,365.875 437.6094,365.7656 Q437.7969,365.6563 438.0156,365.6563 Q438.3906,365.6563 438.625,365.9219 Q438.8594,366.1719 438.8594,366.7813 L438.8594,368.2344 Q438.8594,368.8438 438.625,369.1094 Q438.3906,369.375 438.0156,369.375 Q437.6719,369.375 437.4688,369.1719 Q437.2656,368.9844 437.1563,368.4688 Q437.1094,368.1094 436.9219,367.9219 Q436.5938,367.5469 435.9844,367.3281 Q435.375,367.1094 434.75,367.1094 Q433.9844,367.1094 433.3438,367.4375 Q432.7188,367.7656 432.2188,368.5156 Q431.7344,369.2656 431.7344,370.2969 L431.7344,371.3906 Q431.7344,372.625 432.625,373.4531 Q433.5156,374.2656 435.1094,374.2656 Q436.0469,374.2656 436.7031,374.0156 Q437.0938,373.8594 437.5156,373.4219 Q437.7813,373.1563 437.9219,373.0781 Q438.0781,373 438.2813,373 Q438.6094,373 438.8594,373.2656 Q439.125,373.5156 439.125,373.8594 Q439.125,374.2031 438.7813,374.6094 Q438.2813,375.1875 437.4844,375.5156 Q436.4063,375.9688 435.1094,375.9688 Q433.5938,375.9688 432.3906,375.3438 Q431.4063,374.8438 430.7188,373.7813 Q430.0313,372.7031 430.0313,371.4219 L430.0313,370.2656 Q430.0313,368.9375 430.6406,367.7969 Q431.2656,366.6406 432.3594,366.0313 Q433.4531,365.4063 434.6875,365.4063 Q435.4219,365.4063 436.0625,365.5781 Q436.7188,365.7344 437.2656,366.0938 Z " fill="#000000"/><text fill="#000000" font-family="sans-serif" font-size="14" lengthAdjust="spacing" textLength="67.6758" x="470.3032" y="367.1426">DisplayDrv</text><text fill="#000000" font-family="sans-serif" font-size="14" lengthAdjust="spacing" textLength="111.2822" x="448.5" y="384.752">(HalHub75Esp32)</text><line style="stroke:#181818;stroke-width:0.5;" x1="420.5" x2="561.7822" y1="392.8281" y2="392.8281"/><line style="stroke:#181818;stroke-width:0.5;" x1="420.5" x2="561.7822" y1="400.8281" y2="400.8281"/></g><!--class tftDisplayDrv--><g class="entity" data-qualified-name="halPkg.displayHalPkg.tftDisplayDrv" data-source-line="37" id="ent0027"><rect fill="#F1F1F1" height="61.2188" rx="2.5" ry="2.5" style="stroke:#181818;stroke-width:0.5;" width="124.5654" x="99.5" y="347.6094"/><ellipse cx="114.5" cy="370.2188" fill="#ADD1B2" rx="11" ry="11" style="stroke:#181818;stroke-width:1;"/><path d="M117.2656,366.0938 Q117.4219,365.875 117.6094,365.7656 Q117.7969,365.6563 118.0156,365.6563 Q118.3906,365.6563 118.625,365.9219 Q118.8594,366.1719 118.8594,366.7813 L118.8594,368.2344 Q118.8594,368.8438 118.625,369.1094 Q118.3906,369.375 118.0156,369.375 Q117.6719,369.375 117.4688,369.1719 Q117.2656,368.9844 117.1563,368.4688 Q117.1094,368.1094 116.9219,367.9219 Q116.5938,367.5469 115.9844,367.3281 Q115.375,367.1094 114.75,367.1094 Q113.9844,367.1094 113.3438,367.4375 Q112.7188,367.7656 112.2188,368.5156 Q111.7344,369.2656 111.7344,370.2969 L111.7344,371.3906 Q111.7344,372.625 112.625,373.4531 Q113.5156,374.2656 115.1094,374.2656 Q116.0469,374.2656 116.7031,374.0156 Q117.0938,373.8594 117.5156,373.4219 Q117.7813,373.1563 117.9219,373.0781 Q118.0781,373 118.2813,373 Q118.6094,373 118.8594,373.2656 Q119.125,373.5156 119.125,373.8594 Q119.125,374.2031 118.7813,374.6094 Q118.2813,375.1875 117.4844,375.5156 Q116.4063,375.9688 115.1094,375.9688 Q113.5938,375.9688 112.3906,375.3438 Q111.4063,374.8438 110.7188,373.7813 Q110.0313,372.7031 110.0313,371.4219 L110.0313,370.2656 Q110.0313,368.9375 110.6406,367.7969 Q111.2656,366.6406 112.3594,366.0313 Q113.4531,365.4063 114.6875,365.4063 Q115.4219,365.4063 116.0625,365.5781 Q116.7188,365.7344 117.2656,366.0938 Z " fill="#000000"/><text fill="#000000" font-family="sans-serif" font-size="14" lengthAdjust="spacing" textLength="67.6758" x="140.9448" y="367.1426">DisplayDrv</text><text fill="#000000" font-family="sans-serif" font-size="14" lengthAdjust="spacing" textLength="92.5654" x="128.5" y="384.752">(HalTftDisplay)</text><line style="stroke:#181818;stroke-width:0.5;" x1="100.5" x2="223.0654" y1="392.8281" y2="392.8281"/><line style="stroke:#181818;stroke-width:0.5;" x1="100.5" x2="223.0654" y1="400.8281" y2="400.8281"/></g><!--class sensors--><g class="entity" data-qualified-name="halPkg.sensorsPkg.sensors" data-source-line="41" id="ent0029"><rect fill="#F1F1F1" height="58.7031" rx="2.5" ry="2.5" style="stroke:#181818;stroke-width:0.5;" width="103.3867" x="818.5" y="348.6094"/><ellipse cx="833.5" cy="369.9609" fill="#ADD1B2" rx="11" ry="11" style="stroke:#181818;stroke-width:1;"/><path d="M836.2656,365.8359 Q836.4219,365.6172 836.6094,365.5078 Q836.7969,365.3984 837.0156,365.3984 Q837.3906,365.3984 837.625,365.6641 Q837.8594,365.9141 837.8594,366.5234 L837.8594,367.9766 Q837.8594,368.5859 837.625,368.8516 Q837.3906,369.1172 837.0156,369.1172 Q836.6719,369.1172 836.4688,368.9141 Q836.2656,368.7266 836.1563,368.2109 Q836.1094,367.8516 835.9219,367.6641 Q835.5938,367.2891 834.9844,367.0703 Q834.375,366.8516 833.75,366.8516 Q832.9844,366.8516 832.3438,367.1797 Q831.7188,367.5078 831.2188,368.2578 Q830.7344,369.0078 830.7344,370.0391 L830.7344,371.1328 Q830.7344,372.3672 831.625,373.1953 Q832.5156,374.0078 834.1094,374.0078 Q835.0469,374.0078 835.7031,373.7578 Q836.0938,373.6016 836.5156,373.1641 Q836.7813,372.8984 836.9219,372.8203 Q837.0781,372.7422 837.2813,372.7422 Q837.6094,372.7422 837.8594,373.0078 Q838.125,373.2578 838.125,373.6016 Q838.125,373.9453 837.7813,374.3516 Q837.2813,374.9297 836.4844,375.2578 Q835.4063,375.7109 834.1094,375.7109 Q832.5938,375.7109 831.3906,375.0859 Q830.4063,374.5859 829.7188,373.5234 Q829.0313,372.4453 829.0313,371.1641 L829.0313,370.0078 Q829.0313,368.6797 829.6406,367.5391 Q830.2656,366.3828 831.3594,365.7734 Q832.4531,365.1484 833.6875,365.1484 Q834.4219,365.1484 835.0625,365.3203 Q835.7188,365.4766 836.2656,365.8359 Z " fill="#000000"/><text fill="#000000" font-family="sans-serif" font-size="12" font-style="italic" lengthAdjust="spacing" textLength="75.3867" x="845.5" y="366.0664">&#171;namespace&#187;</text><text fill="#000000" font-family="sans-serif" font-size="14" lengthAdjust="spacing" textLength="51.3584" x="857.5142" y="383.2363">Sensors</text><line style="stroke:#181818;stroke-width:0.5;" x1="819.5" x2="920.8867" y1="391.3125" y2="391.3125"/><line style="stroke:#181818;stroke-width:0.5;" x1="819.5" x2="920.8867" y1="399.3125" y2="399.3125"/></g><!--class sensorBattery--><g class="entity" data-qualified-name="halPkg.sensorsPkg.sensorBattery" data-source-line="42" id="ent0030"><rect fill="#F1F1F1" height="48" rx="2.5" ry="2.5" style="stroke:#181818;stroke-width:0.5;" width="120.71" x="751.5" y="471.6094"/><ellipse cx="766.5" cy="487.6094" fill="#ADD1B2" rx="11" ry="11" style="stroke:#181818;stroke-width:1;"/><path d="M769.2656,483.4844 Q769.4219,483.2656 769.6094,483.1563 Q769.7969,483.0469 770.0156,483.0469 Q770.3906,483.0469 770.625,483.3125 Q770.8594,483.5625 770.8594,484.1719 L770.8594,485.625 Q770.8594,486.2344 770.625,486.5 Q770.3906,486.7656 770.0156,486.7656 Q769.6719,486.7656 769.4688,486.5625 Q769.2656,486.375 769.1563,485.8594 Q769.1094,485.5 768.9219,485.3125 Q768.5938,484.9375 767.9844,484.7188 Q767.375,484.5 766.75,484.5 Q765.9844,484.5 765.3438,484.8281 Q764.7188,485.1563 764.2188,485.9063 Q763.7344,486.6563 763.7344,487.6875 L763.7344,488.7813 Q763.7344,490.0156 764.625,490.8438 Q765.5156,491.6563 767.1094,491.6563 Q768.0469,491.6563 768.7031,491.4063 Q769.0938,491.25 769.5156,490.8125 Q769.7813,490.5469 769.9219,490.4688 Q770.0781,490.3906 770.2813,490.3906 Q770.6094,490.3906 770.8594,490.6563 Q771.125,490.9063 771.125,491.25 Q771.125,491.5938 770.7813,492 Q770.2813,492.5781 769.4844,492.9063 Q768.4063,493.3594 767.1094,493.3594 Q765.5938,493.3594 764.3906,492.7344 Q763.4063,492.2344 762.7188,491.1719 Q762.0313,490.0938 762.0313,488.8125 L762.0313,487.6563 Q762.0313,486.3281 762.6406,485.1875 Q763.2656,484.0313 764.3594,483.4219 Q765.4531,482.7969 766.6875,482.7969 Q767.4219,482.7969 768.0625,482.9688 Q768.7188,483.125 769.2656,483.4844 Z " fill="#000000"/><text fill="#000000" font-family="sans-serif" font-size="14" lengthAdjust="spacing" textLength="88.71" x="780.5" y="493.3379">SensorBattery</text><line style="stroke:#181818;stroke-width:0.5;" x1="752.5" x2="871.21" y1="503.6094" y2="503.6094"/><line style="stroke:#181818;stroke-width:0.5;" x1="752.5" x2="871.21" y1="511.6094" y2="511.6094"/></g><!--class sensorDhtX--><g class="entity" data-qualified-name="halPkg.sensorsPkg.sensorDhtX" data-source-line="43" id="ent0031"><rect fill="#F1F1F1" height="48" rx="2.5" ry="2.5" style="stroke:#181818;stroke-width:0.5;" width="107.4824" x="1057.5" y="471.6094"/><ellipse cx="1072.5" cy="487.6094" fill="#ADD1B2" rx="11" ry="11" style="stroke:#181818;stroke-width:1;"/><path d="M1075.2656,483.4844 Q1075.4219,483.2656 1075.6094,483.1563 Q1075.7969,483.0469 1076.0156,483.0469 Q1076.3906,483.0469 1076.625,483.3125 Q1076.8594,483.5625 1076.8594,484.1719 L1076.8594,485.625 Q1076.8594,486.2344 1076.625,486.5 Q1076.3906,486.7656 1076.0156,486.7656 Q1075.6719,486.7656 1075.4688,486.5625 Q1075.2656,486.375 1075.1563,485.8594 Q1075.1094,485.5 1074.9219,485.3125 Q1074.5938,484.9375 1073.9844,484.7188 Q1073.375,484.5 1072.75,484.5 Q1071.9844,484.5 1071.3438,484.8281 Q1070.7188,485.1563 1070.2188,485.9063 Q1069.7344,486.6563 1069.7344,487.6875 L1069.7344,488.7813 Q1069.7344,490.0156 1070.625,490.8438 Q1071.5156,491.6563 1073.1094,491.6563 Q1074.0469,491.6563 1074.7031,491.4063 Q1075.0938,491.25 1075.5156,490.8125 Q1075.7813,490.5469 1075.9219,490.4688 Q1076.0781,490.3906 1076.2813,490.3906 Q1076.6094,490.3906 1076.8594,490.6563 Q1077.125,490.9063 1077.125,491.25 Q1077.125,491.5938 1076.7813,492 Q1076.2813,492.5781 1075.4844,492.9063 Q1074.4063,493.3594 1073.1094,493.3594 Q1071.5938,493.3594 1070.3906,492.7344 Q1069.4063,492.2344 1068.7188,491.1719 Q1068.0313,490.0938 1068.0313,488.8125 L1068.0313,487.6563 Q1068.0313,486.3281 1068.6406,485.1875 Q1069.2656,484.0313 1070.3594,483.4219 Q1071.4531,482.7969 1072.6875,482.7969 Q1073.4219,482.7969 1074.0625,482.9688 Q1074.7188,483.125 1075.2656,483.4844 Z " fill="#000000"/><text fill="#000000" font-family="sans-serif" font-size="14" lengthAdjust="spacing" textLength="75.4824" x="1086.5" y="493.3379">SensorDhtX</text><line style="stroke:#181818;stroke-width:0.5;" x1="1058.5" x2="1163.9824" y1="503.6094" y2="503.6094"/><line style="stroke:#181818;stroke-width:0.5;" x1="1058.5" x2="1163.9824" y1="511.6094" y2="511.6094"/></g><!--class sensorLdr--><g class="entity" data-qualified-name="halPkg.sensorsPkg.sensorLdr" data-source-line="44" id="ent0032"><rect fill="#F1F1F1" height="48" rx="2.5" ry="2.5" style="stroke:#181818;stroke-width:0.5;" width="96.5928" x="619.5" y="471.6094"/><ellipse cx="634.5" cy="487.6094" fill="#ADD1B2" rx="11" ry="11" style="stroke:#181818;stroke-width:1;"/><path d="M637.2656,483.4844 Q637.4219,483.2656 637.6094,483.1563 Q637.7969,483.0469 638.0156,483.0469 Q638.3906,483.0469 638.625,483.3125 Q638.8594,483.5625 638.8594,484.1719 L638.8594,485.625 Q638.8594,486.2344 638.625,486.5 Q638.3906,486.7656 638.0156,486.7656 Q637.6719,486.7656 637.4688,486.5625 Q637.2656,486.375 637.1563,485.8594 Q637.1094,485.5 636.9219,485.3125 Q636.5938,484.9375 635.9844,484.7188 Q635.375,484.5 634.75,484.5 Q633.9844,484.5 633.3438,484.8281 Q632.7188,485.1563 632.2188,485.9063 Q631.7344,486.6563 631.7344,487.6875 L631.7344,488.7813 Q631.7344,490.0156 632.625,490.8438 Q633.5156,491.6563 635.1094,491.6563 Q636.0469,491.6563 636.7031,491.4063 Q637.0938,491.25 637.5156,490.8125 Q637.7813,490.5469 637.9219,490.4688 Q638.0781,490.3906 638.2813,490.3906 Q638.6094,490.3906 638.8594,490.6563 Q639.125,490.9063 639.125,491.25 Q639.125,491.5938 638.7813,492 Q638.2813,492.5781 637.4844,492.9063 Q636.4063,493.3594 635.1094,493.3594 Q633.5938,493.3594 632.3906,492.7344 Q631.4063,492.2344 630.7188,491.1719 Q630.0313,490.0938 630.0313,488.8125 L630.0313,487.6563 Q630.0313,486.3281 630.6406,485.1875 Q631.2656,484.0313 632.3594,483.4219 Q633.4531,482.7969 634.6875,482.7969 Q635.4219,482.7969 636.0625,482.9688 Q636.7188,483.125 637.2656,483.4844 Z " fill="#000000"/><text fill="#000000" font-family="sans-serif" font-size="14" lengthAdjust="spacing" textLength="64.5928" x="648.5" y="493.3379">SensorLdr</text><line style="stroke:#181818;stroke-width:0.5;" x1="620.5" x2="715.0928" y1="503.6094" y2="503.6094"/><line style="stroke:#181818;stroke-width:0.5;" x1="620.5" x2="715.0928" y1="511.6094" y2="511.6094"/></g><!--class sensorSht3X--><g class="entity" data-qualified-name="halPkg.sensorsPkg.sensorSht3X" data-source-line="45" id="ent0033"><rect fill="#F1F1F1" height="48" rx="2.5" ry="2.5" style="stroke:#181818;stroke-width:0.5;" width="114.4961" x="908" y="471.6094"/><ellipse cx="923" cy="487.6094" fill="#ADD1B2" rx="11" ry="11" style="stroke:#181818;stroke-width:1;"/><path d="M925.7656,483.4844 Q925.9219,483.2656 926.1094,483.1563 Q926.2969,483.0469 926.5156,483.0469 Q926.8906,483.0469 927.125,483.3125 Q927.3594,483.5625 927.3594,484.1719 L927.3594,485.625 Q927.3594,486.2344 927.125,486.5 Q926.8906,486.7656 926.5156,486.7656 Q926.1719,486.7656 925.9688,486.5625 Q925.7656,486.375 925.6563,485.8594 Q925.6094,485.5 925.4219,485.3125 Q925.0938,484.9375 924.4844,484.7188 Q923.875,484.5 923.25,484.5 Q922.4844,484.5 921.8438,484.8281 Q921.2188,485.1563 920.7188,485.9063 Q920.2344,486.6563 920.2344,487.6875 L920.2344,488.7813 Q920.2344,490.0156 921.125,490.8438 Q922.0156,491.6563 923.6094,491.6563 Q924.5469,491.6563 925.2031,491.4063 Q925.5938,491.25 926.0156,490.8125 Q926.2813,490.5469 926.4219,490.4688 Q926.5781,490.3906 926.7813,490.3906 Q927.1094,490.3906 927.3594,490.6563 Q927.625,490.9063 927.625,491.25 Q927.625,491.5938 927.2813,492 Q926.7813,492.5781 925.9844,492.9063 Q924.9063,493.3594 923.6094,493.3594 Q922.0938,493.3594 920.8906,492.7344 Q919.9063,492.2344 919.2188,491.1719 Q918.5313,490.0938 918.5313,488.8125 L918.5313,487.6563 Q918.5313,486.3281 919.1406,485.1875 Q919.7656,484.0313 920.8594,483.4219 Q921.9531,482.7969 923.1875,482.7969 Q923.9219,482.7969 924.5625,482.9688 Q925.2188,483.125 925.7656,483.4844 Z " fill="#000000"/><text fill="#000000" font-family="sans-serif" font-size="14" lengthAdjust="spacing" textLength="82.4961" x="937" y="493.3379">SensorSht3X</text><line style="stroke:#181818;stroke-width:0.5;" x1="909" x2="1021.4961" y1="503.6094" y2="503.6094"/><line style="stroke:#181818;stroke-width:0.5;" x1="909" x2="1021.4961" y1="511.6094" y2="511.6094"/></g><!--class display--><g class="entity" data-qualified-name="appPkg.display" data-source-line="87" id="ent0066"><rect fill="#F1F1F1" height="48" rx="2.5" ry="2.5" style="stroke:#181818;stroke-width:0.5;" width="77.9033" x="678" y="86.1094"/><ellipse cx="693" cy="102.1094" fill="#ADD1B2" rx="11" ry="11" style="stroke:#181818;stroke-width:1;"/><path d="M695.7656,97.9844 Q695.9219,97.7656 696.1094,97.6563 Q696.2969,97.5469 696.5156,97.5469 Q696.8906,97.5469 697.125,97.8125 Q697.3594,98.0625 697.3594,98.6719 L697.3594,100.125 Q697.3594,100.7344 697.125,101 Q696.8906,101.2656 696.5156,101.2656 Q696.1719,101.2656 695.9688,101.0625 Q695.7656,100.875 695.6563,100.3594 Q695.6094,100 695.4219,99.8125 Q695.0938,99.4375 694.4844,99.2188 Q693.875,99 693.25,99 Q692.4844,99 691.8438,99.3281 Q691.2188,99.6563 690.7188,100.4063 Q690.2344,101.1563 690.2344,102.1875 L690.2344,103.2813 Q690.2344,104.5156 691.125,105.3438 Q692.0156,106.1563 693.6094,106.1563 Q694.5469,106.1563 695.2031,105.9063 Q695.5938,105.75 696.0156,105.3125 Q696.2813,105.0469 696.4219,104.9688 Q696.5781,104.8906 696.7813,104.8906 Q697.1094,104.8906 697.3594,105.1563 Q697.625,105.4063 697.625,105.75 Q697.625,106.0938 697.2813,106.5 Q696.7813,107.0781 695.9844,107.4063 Q694.9063,107.8594 693.6094,107.8594 Q692.0938,107.8594 690.8906,107.2344 Q689.9063,106.7344 689.2188,105.6719 Q688.5313,104.5938 688.5313,103.3125 L688.5313,102.1563 Q688.5313,100.8281 689.1406,99.6875 Q689.7656,98.5313 690.8594,97.9219 Q691.9531,97.2969 693.1875,97.2969 Q693.9219,97.2969 694.5625,97.4688 Q695.2188,97.625 695.7656,97.9844 Z " fill="#000000"/><text fill="#000000" font-family="sans-serif" font-size="14" lengthAdjust="spacing" textLength="45.9033" x="707" y="107.8379">Display</text><line style="stroke:#181818;stroke-width:0.5;" x1="679" x2="754.9033" y1="118.1094" y2="118.1094"/><line style="stroke:#181818;stroke-width:0.5;" x1="679" x2="754.9033" y1="126.1094" y2="126.1094"/></g><!--class sensorDataProvider--><g class="entity" data-qualified-name="appPkg.sensorDataProvider" data-source-line="88" id="ent0067"><rect fill="#F1F1F1" height="58.7031" rx="2.5" ry="2.5" style="stroke:#181818;stroke-width:0.5;" width="158.0615" x="791" y="80.6094"/><ellipse cx="806" cy="101.9609" fill="#ADD1B2" rx="11" ry="11" style="stroke:#181818;stroke-width:1;"/><path d="M808.7656,97.8359 Q808.9219,97.6172 809.1094,97.5078 Q809.2969,97.3984 809.5156,97.3984 Q809.8906,97.3984 810.125,97.6641 Q810.3594,97.9141 810.3594,98.5234 L810.3594,99.9766 Q810.3594,100.5859 810.125,100.8516 Q809.8906,101.1172 809.5156,101.1172 Q809.1719,101.1172 808.9688,100.9141 Q808.7656,100.7266 808.6563,100.2109 Q808.6094,99.8516 808.4219,99.6641 Q808.0938,99.2891 807.4844,99.0703 Q806.875,98.8516 806.25,98.8516 Q805.4844,98.8516 804.8438,99.1797 Q804.2188,99.5078 803.7188,100.2578 Q803.2344,101.0078 803.2344,102.0391 L803.2344,103.1328 Q803.2344,104.3672 804.125,105.1953 Q805.0156,106.0078 806.6094,106.0078 Q807.5469,106.0078 808.2031,105.7578 Q808.5938,105.6016 809.0156,105.1641 Q809.2813,104.8984 809.4219,104.8203 Q809.5781,104.7422 809.7813,104.7422 Q810.1094,104.7422 810.3594,105.0078 Q810.625,105.2578 810.625,105.6016 Q810.625,105.9453 810.2813,106.3516 Q809.7813,106.9297 808.9844,107.2578 Q807.9063,107.7109 806.6094,107.7109 Q805.0938,107.7109 803.8906,107.0859 Q802.9063,106.5859 802.2188,105.5234 Q801.5313,104.4453 801.5313,103.1641 L801.5313,102.0078 Q801.5313,100.6797 802.1406,99.5391 Q802.7656,98.3828 803.8594,97.7734 Q804.9531,97.1484 806.1875,97.1484 Q806.9219,97.1484 807.5625,97.3203 Q808.2188,97.4766 808.7656,97.8359 Z " fill="#000000"/><text fill="#000000" font-family="sans-serif" font-size="12" font-style="italic" lengthAdjust="spacing" textLength="61.3828" x="852.3394" y="98.0664">&#171;singleton&#187;</text><text fill="#000000" font-family="sans-serif" font-size="14" lengthAdjust="spacing" textLength="126.0615" x="820" y="115.2363">SensorDataProvider</text><line style="stroke:#181818;stroke-width:0.5;" x1="792" x2="948.0615" y1="123.3125" y2="123.3125"/><line style="stroke:#181818;stroke-width:0.5;" x1="792" x2="948.0615" y1="131.3125" y2="131.3125"/></g><!--class app--><g class="entity" data-qualified-name="appPkg.app" data-source-line="89" id="ent0068"><rect fill="#F1F1F1" height="48" rx="2.5" ry="2.5" style="stroke:#181818;stroke-width:0.5;" width="155.7236" x="984" y="86.1094"/><ellipse cx="999" cy="102.1094" fill="#ADD1B2" rx="11" ry="11" style="stroke:#181818;stroke-width:1;"/><path d="M1001.7656,97.9844 Q1001.9219,97.7656 1002.1094,97.6563 Q1002.2969,97.5469 1002.5156,97.5469 Q1002.8906,97.5469 1003.125,97.8125 Q1003.3594,98.0625 1003.3594,98.6719 L1003.3594,100.125 Q1003.3594,100.7344 1003.125,101 Q1002.8906,101.2656 1002.5156,101.2656 Q1002.1719,101.2656 1001.9688,101.0625 Q1001.7656,100.875 1001.6563,100.3594 Q1001.6094,100 1001.4219,99.8125 Q1001.0938,99.4375 1000.4844,99.2188 Q999.875,99 999.25,99 Q998.4844,99 997.8438,99.3281 Q997.2188,99.6563 996.7188,100.4063 Q996.2344,101.1563 996.2344,102.1875 L996.2344,103.2813 Q996.2344,104.5156 997.125,105.3438 Q998.0156,106.1563 999.6094,106.1563 Q1000.5469,106.1563 1001.2031,105.9063 Q1001.5938,105.75 1002.0156,105.3125 Q1002.2813,105.0469 1002.4219,104.9688 Q1002.5781,104.8906 1002.7813,104.8906 Q1003.1094,104.8906 1003.3594,105.1563 Q1003.625,105.4063 1003.625,105.75 Q1003.625,106.0938 1003.2813,106.5 Q1002.7813,107.0781 1001.9844,107.4063 Q1000.9063,107.8594 999.6094,107.8594 Q998.0938,107.8594 996.8906,107.2344 Q995.9063,106.7344 995.2188,105.6719 Q994.5313,104.5938 994.5313,103.3125 L994.5313,102.1563 Q994.5313,100.8281 995.1406,99.6875 Q995.7656,98.5313 996.8594,97.9219 Q997.9531,97.2969 999.1875,97.2969 Q999.9219,97.2969 1000.5625,97.4688 Q1001.2188,97.625 1001.7656,97.9844 Z " fill="#000000"/><text fill="#000000" font-family="sans-serif" font-size="14" lengthAdjust="spacing" textLength="123.7236" x="1013" y="107.8379">Application services</text><line style="stroke:#181818;stroke-width:0.5;" x1="985" x2="1138.7236" y1="118.1094" y2="118.1094"/><line style="stroke:#181818;stroke-width:0.5;" x1="985" x2="1138.7236" y1="126.1094" y2="126.1094"/></g><!--link sensorChannelType to iSensorChannel--><g class="link" data-entity-1="ent0015" data-entity-2="ent0014" data-link-type="extension" data-source-line="22" id="lnk16"><path codeLine="22" d="M479.51,720.7194 C506.49,743.3794 533.6152,766.1744 560.6252,788.8544" fill="none" id="sensorChannelType-to-iSensorChannel" style="stroke:#181818;stroke-width:1;stroke-dasharray:7,7;"/><polygon fill="none" points="574.41,800.4294,564.4835,784.2595,556.7669,793.4494,574.41,800.4294" style="stroke:#181818;stroke-width:1;"/></g><!--link iSensor to iSensorChannel--><g class="link" data-entity-1="ent0013" data-entity-2="ent0014" data-link-type="dependency" data-source-line="23" id="lnk17"><path codeLine="23" d="M724.49,720.7194 C697.51,743.3794 661.1949,773.8911 634.1849,796.5711" fill="none" id="iSensor-to-iSensorChannel" style="stroke:#181818;stroke-width:1;"/><polygon fill="#181818" points="629.59,800.4294,639.0546,797.7052,633.4191,797.2141,633.9102,791.5786,629.59,800.4294" style="stroke:#181818;stroke-width:1;"/><text fill="#000000" font-family="sans-serif" font-size="13" lengthAdjust="spacing" textLength="57.0972" x="686" y="767.1045">&#171;provide&#187;</text></g><!--link board to iBoard--><g class="link" data-entity-1="ent0019" data-entity-2="ent0007" data-link-type="extension" data-source-line="53" id="lnk37"><path codeLine="53" d="M1324.71,407.8394 C1335.1,417.2794 1347.71,426.8194 1361,432.6094 C1394.95,447.3894 1664.09,447.2694 1692,471.6094 C1751.03,523.1094 1754.5745,608.1369 1752.5345,654.3069" fill="none" id="board-to-iBoard" style="stroke:#181818;stroke-width:1;stroke-dasharray:7,7;"/><polygon fill="none" points="1751.74,672.2894,1758.5287,654.5718,1746.5404,654.0421,1751.74,672.2894" style="stroke:#181818;stroke-width:1;"/></g><!--link board to buttonDrv--><g class="link" data-entity-1="ent0019" data-entity-2="ent0020" data-link-type="composition" data-source-line="54" id="lnk38"><path codeLine="54" d="M1280.5438,418.6373 C1271.8738,438.2773 1267.7721,447.56 1259.6621,465.94" fill="none" id="board-buttonDrv" style="stroke:#181818;stroke-width:1;"/><polygon fill="#181818" points="1285.39,407.6594,1279.3076,411.5329,1280.5438,418.6373,1286.6262,414.7637,1285.39,407.6594" style="stroke:#181818;stroke-width:1;"/><polygon fill="#181818" points="1257.24,471.4294,1264.5328,464.8101,1259.2584,466.8549,1257.2136,461.5806,1257.24,471.4294" style="stroke:#181818;stroke-width:1;"/></g><!--link board to buzzerDrv--><g class="link" data-entity-1="ent0019" data-entity-2="ent0021" data-link-type="composition" data-source-line="55" id="lnk39"><path codeLine="55" d="M1324.6116,417.525 C1338.2116,437.165 1345.8056,448.1156 1358.5256,466.4956" fill="none" id="board-buzzerDrv" style="stroke:#181818;stroke-width:1;"/><polygon fill="#181818" points="1317.78,407.6594,1317.9073,414.8694,1324.6116,417.525,1324.4843,410.315,1317.78,407.6594" style="stroke:#181818;stroke-width:1;"/><polygon fill="#181818" points="1361.94,471.4294,1360.1075,461.7525,1359.0946,467.3179,1353.5292,466.3051,1361.94,471.4294" style="stroke:#181818;stroke-width:1;"/></g><!--link board to ledDrv--><g class="link" data-entity-1="ent0019" data-entity-2="ent0022" data-link-type="composition" data-source-line="56" id="lnk40"><path codeLine="56" d="M1337.119,415.4861 C1347.139,424.1461 1349.58,425.4194 1361,432.6094 C1378.5,443.6194 1421.0103,462.0347 1455.7203,476.4747" fill="none" id="board-ledDrv" style="stroke:#181818;stroke-width:1;"/><polygon fill="#181818" points="1328.04,407.6394,1329.9639,414.5891,1337.119,415.4861,1335.1951,408.5364,1328.04,407.6394" style="stroke:#181818;stroke-width:1;"/><polygon fill="#181818" points="1461.26,478.7794,1454.4868,471.6293,1456.6436,476.8588,1451.414,479.0156,1461.26,478.7794" style="stroke:#181818;stroke-width:1;"/></g><!--link board to systemDrv--><g class="link" data-entity-1="ent0019" data-entity-2="ent0023" data-link-type="composition" data-source-line="57" id="lnk41"><path codeLine="57" d="M1334.5354,415.8081 C1344.8354,425.0181 1348.21,426.4194 1361,432.6094 C1380.89,442.2394 1534.66,465.8894 1556,471.6094 C1561.78,473.1594 1562.0569,473.1277 1567.9969,474.9977" fill="none" id="board-systemDrv" style="stroke:#181818;stroke-width:1;"/><polygon fill="#181818" points="1325.59,407.8094,1327.3964,414.7905,1334.5354,415.8081,1332.7289,408.8269,1325.59,407.8094" style="stroke:#181818;stroke-width:1;"/><polygon fill="#181818" points="1573.72,476.7994,1566.3365,470.2814,1568.9508,475.2979,1563.9342,477.9122,1573.72,476.7994" style="stroke:#181818;stroke-width:1;"/></g><!--link board to iDisplayDrv--><g class="link" data-entity-1="ent0019" data-entity-2="ent0008" data-link-type="aggregation" data-source-line="58" id="lnk42"><path codeLine="58" d="M1242.5841,409.6802 C1221.3541,420.3802 1205.93,426.4094 1181,432.6094 C1109.28,450.4494 567.7,417.8394 517,471.6094 C487.73,502.6494 493.79,531.8094 517,567.6094 C527.06,583.1394 541.02,572.4894 555,584.6094 C583.23,609.0894 601.5198,642.3051 612.8098,666.9351" fill="none" id="board-iDisplayDrv" style="stroke:#181818;stroke-width:1;"/><polygon fill="none" points="1253.3,404.2794,1246.1418,403.4078,1242.5841,409.6802,1249.7423,410.5518,1253.3,404.2794" style="stroke:#181818;stroke-width:1;"/><polygon fill="#181818" points="615.31,672.3894,615.196,662.5412,613.2265,667.8441,607.9236,665.8747,615.31,672.3894" style="stroke:#181818;stroke-width:1;"/><text fill="#000000" font-family="sans-serif" font-size="13" lengthAdjust="spacing" textLength="84.5381" x="518" y="501.1045">selected driver</text><text fill="#000000" font-family="sans-serif" font-size="13" lengthAdjust="spacing" textLength="7.23" x="605.0152" y="661.6732">1</text></g><!--link buttonDrv to iButtonDrv--><g class="link" data-entity-1="ent0020" data-entity-2="ent0009" data-link-type="extension" data-source-line="60" id="lnk43"><path codeLine="60" d="M1245.83,519.8294 C1243.91,558.1694 1240.9824,616.312 1239.0624,654.562" fill="none" id="buttonDrv-to-iButtonDrv" style="stroke:#181818;stroke-width:1;stroke-dasharray:7,7;"/><polygon fill="none" points="1238.16,672.5394,1245.0548,654.8628,1233.0699,654.2612,1238.16,672.5394" style="stroke:#181818;stroke-width:1;"/></g><!--link buzzerDrv to iBuzzerDrv--><g class="link" data-entity-1="ent0021" data-entity-2="ent0010" data-link-type="extension" data-source-line="61" id="lnk44"><path codeLine="61" d="M1377.3,519.8294 C1376.14,558.1694 1374.3909,616.2975 1373.2409,654.5475" fill="none" id="buzzerDrv-to-iBuzzerDrv" style="stroke:#181818;stroke-width:1;stroke-dasharray:7,7;"/><polygon fill="none" points="1372.7,672.5394,1379.2382,654.7278,1367.2436,654.3672,1372.7,672.5394" style="stroke:#181818;stroke-width:1;"/></g><!--link ledDrv to iLedDrv--><g class="link" data-entity-1="ent0022" data-entity-2="ent0011" data-link-type="extension" data-source-line="62" id="lnk45"><path codeLine="62" d="M1499.77,519.8294 C1499.38,558.1694 1498.8035,616.2903 1498.4135,654.5403" fill="none" id="ledDrv-to-iLedDrv" style="stroke:#181818;stroke-width:1;stroke-dasharray:7,7;"/><polygon fill="none" points="1498.23,672.5394,1504.4132,654.6015,1492.4138,654.4791,1498.23,672.5394" style="stroke:#181818;stroke-width:1;"/></g><!--link systemDrv to iSystemDrv--><g class="link" data-entity-1="ent0023" data-entity-2="ent0012" data-link-type="extension" data-source-line="63" id="lnk46"><path codeLine="63" d="M1624.23,519.8294 C1624.62,558.1694 1625.1965,616.2903 1625.5865,654.5403" fill="none" id="systemDrv-to-iSystemDrv" style="stroke:#181818;stroke-width:1;stroke-dasharray:7,7;"/><polygon fill="none" points="1625.77,672.5394,1631.5862,654.4791,1619.5868,654.6015,1625.77,672.5394" style="stroke:#181818;stroke-width:1;"/></g><!--link ledMatrixDisplayDrv to iDisplayDrv--><g class="link" data-entity-1="ent0025" data-entity-2="ent0008" data-link-type="extension" data-source-line="64" id="lnk47"><path codeLine="64" d="M326.23,408.7894 C333.79,450.5794 353.62,526.2594 402,567.6094 C428.01,589.8394 525.63,567.0694 555,584.6094 C587.86,604.2294 601.4725,629.0258 611.2525,655.3558" fill="none" id="ledMatrixDisplayDrv-to-iDisplayDrv" style="stroke:#181818;stroke-width:1;stroke-dasharray:7,7;"/><polygon fill="none" points="617.52,672.2294,616.877,653.2666,605.6279,657.445,617.52,672.2294" style="stroke:#181818;stroke-width:1;"/></g><!--link hub75DisplayDrv to iDisplayDrv--><g class="link" data-entity-1="ent0026" data-entity-2="ent0008" data-link-type="extension" data-source-line="65" id="lnk48"><path codeLine="65" d="M453.78,408.8294 C444.96,417.9894 436.75,428.7994 432,440.6094 C410.94,492.9794 396.74,523.5294 432,567.6094 C449.24,589.1594 531.51,570.1394 555,584.6094 C587.59,604.6894 601.2002,629.3766 611.0702,655.5566" fill="none" id="hub75DisplayDrv-to-iDisplayDrv" style="stroke:#181818;stroke-width:1;stroke-dasharray:7,7;"/><polygon fill="none" points="617.42,672.3994,616.6844,653.44,605.4559,657.6732,617.42,672.3994" style="stroke:#181818;stroke-width:1;"/></g><!--link tftDisplayDrv to iDisplayDrv--><g class="link" data-entity-1="ent0027" data-entity-2="ent0008" data-link-type="extension" data-source-line="66" id="lnk49"><path codeLine="66" d="M179.25,408.7694 C206.18,452.0094 262.59,531.1294 334,567.6094 C365.47,583.6894 377.79,573.6094 413,576.6094 C428.75,577.9494 541.38,576.5894 555,584.6094 C587.98,604.0294 601.5875,628.8828 611.3275,655.2728" fill="none" id="tftDisplayDrv-to-iDisplayDrv" style="stroke:#181818;stroke-width:1;stroke-dasharray:7,7;"/><polygon fill="none" points="617.56,672.1594,616.9564,653.1953,605.6987,657.3503,617.56,672.1594" style="stroke:#181818;stroke-width:1;"/></g><!--link buttonDrv to dInPin--><g class="link" data-entity-1="ent0020" data-entity-2="ent0005" data-link-type="dependency" data-source-line="68" id="lnk50"><path codeLine="68" d="M1232.03,519.7994 C1220.23,536.0194 1202.25,556.6694 1181,567.6094 C1167.95,574.3294 1061.95,576.0794 1050,584.6094 C1020.77,605.4794 1007.7405,640.5324 1001.1905,666.4424" fill="none" id="buttonDrv-to-dInPin" style="stroke:#181818;stroke-width:1;"/><polygon fill="#181818" points="999.72,672.2594,1005.8038,664.5142,1000.9454,667.4119,998.0478,662.5535,999.72,672.2594" style="stroke:#181818;stroke-width:1;"/></g><!--link buzzerDrv to dOutPin--><g class="link" data-entity-1="ent0021" data-entity-2="ent0004" data-link-type="dependency" data-source-line="69" id="lnk51"><path codeLine="69" d="M1363.1,519.9294 C1351.33,536.2094 1333.35,556.8794 1312,567.6094 C1250.07,598.7194 1212.6,543.2394 1157,584.6094 C1128.96,605.4694 1118.5422,640.4406 1113.9722,666.3506" fill="none" id="buzzerDrv-to-dOutPin" style="stroke:#181818;stroke-width:1;"/><polygon fill="#181818" points="1112.93,672.2594,1118.4325,664.091,1113.7985,667.3354,1110.5541,662.7014,1112.93,672.2594" style="stroke:#181818;stroke-width:1;"/></g><!--link ledDrv to dOutPin--><g class="link" data-entity-1="ent0022" data-entity-2="ent0004" data-link-type="dependency" data-source-line="70" id="lnk52"><path codeLine="70" d="M1488.53,519.8294 C1479.04,536.2894 1463.9,557.2194 1444,567.6094 C1429.84,574.9994 1170.05,575.3994 1157,584.6094 C1128.28,604.8894 1117.9957,640.4309 1113.6457,666.5509" fill="none" id="ledDrv-to-dOutPin" style="stroke:#181818;stroke-width:1;"/><polygon fill="#181818" points="1112.66,672.4694,1118.0841,664.2488,1113.4814,667.5373,1110.1928,662.9345,1112.66,672.4694" style="stroke:#181818;stroke-width:1;"/></g><!--link sensorBattery to analogPin--><g class="link" data-entity-1="ent0030" data-entity-2="ent0006" data-link-type="dependency" data-source-line="71" id="lnk53"><path codeLine="71" d="M826.29,519.6494 C835.21,534.9894 846.24,555.8794 853,575.6094 C864.19,608.2694 869.3749,642.0275 872.1549,666.5775" fill="none" id="sensorBattery-to-analogPin" style="stroke:#181818;stroke-width:1;"/><polygon fill="#181818" points="872.83,672.5394,875.7919,663.1465,872.2674,667.5711,867.8427,664.0466,872.83,672.5394" style="stroke:#181818;stroke-width:1;"/></g><!--link sensorDhtX to dInPin--><g class="link" data-entity-1="ent0031" data-entity-2="ent0005" data-link-type="dependency" data-source-line="72" id="lnk54"><path codeLine="72" d="M1093.46,519.8994 C1080.72,537.2894 1063.41,561.8794 1050,584.6094 C1032.62,614.0594 1018.0971,644.2891 1007.7071,667.0991" fill="none" id="sensorDhtX-to-dInPin" style="stroke:#181818;stroke-width:1;"/><polygon fill="#181818" points="1005.22,672.5594,1012.5909,666.0271,1007.2926,668.0092,1005.3106,662.7109,1005.22,672.5594" style="stroke:#181818;stroke-width:1;"/></g><!--link sensorLdr to analogPin--><g class="link" data-entity-1="ent0032" data-entity-2="ent0006" data-link-type="dependency" data-source-line="73" id="lnk55"><path codeLine="73" d="M683.42,519.7694 C695.32,535.7494 713.24,556.1194 734,567.6094 C769.24,587.0994 791.2,559.8994 823,584.6094 C851.06,606.4194 863.2595,641.1703 869.3095,666.7603" fill="none" id="sensorLdr-to-analogPin" style="stroke:#181818;stroke-width:1;"/><polygon fill="#181818" points="870.69,672.5994,872.512,662.9205,869.5396,667.7335,864.7266,664.7611,870.69,672.5994" style="stroke:#181818;stroke-width:1;"/></g><!--link sensorSht3X to dInPin--><g class="link" data-entity-1="ent0033" data-entity-2="ent0005" data-link-type="dependency" data-source-line="74" id="lnk56"><path codeLine="74" d="M968.5,519.8294 C974.28,558.1694 984.8665,628.3563 990.6265,666.6063" fill="none" id="sensorSht3X-to-dInPin" style="stroke:#181818;stroke-width:1;"/><polygon fill="#181818" points="991.52,672.5394,994.1352,663.0441,990.7755,667.5951,986.2244,664.2354,991.52,672.5394" style="stroke:#181818;stroke-width:1;"/></g><!--link sensors to sensorBattery--><g class="link" data-entity-1="ent0029" data-entity-2="ent0030" data-link-type="composition" data-source-line="76" id="lnk57"><path codeLine="76" d="M850.276,418.3838 C840.416,438.0238 835.5626,447.6875 826.3326,466.0675" fill="none" id="sensors-sensorBattery" style="stroke:#181818;stroke-width:1;"/><polygon fill="#181818" points="855.66,407.6594,849.3932,411.2269,850.276,418.3838,856.5428,414.8162,855.66,407.6594" style="stroke:#181818;stroke-width:1;"/><polygon fill="#181818" points="823.64,471.4294,831.2535,465.1816,825.8838,466.9611,824.1043,461.5915,823.64,471.4294" style="stroke:#181818;stroke-width:1;"/></g><!--link sensors to sensorDhtX--><g class="link" data-entity-1="ent0029" data-entity-2="ent0031" data-link-type="composition" data-source-line="77" id="lnk58"><path codeLine="77" d="M903.8627,416.307 C912.8427,425.187 914.95,425.9394 926,432.6094 C931.89,436.1694 999.1339,458.3344 1051.6439,475.4044" fill="none" id="sensors-sensorDhtX" style="stroke:#181818;stroke-width:1;"/><polygon fill="#181818" points="895.33,407.8694,896.7838,414.9324,903.8627,416.307,902.4089,409.244,895.33,407.8694" style="stroke:#181818;stroke-width:1;"/><polygon fill="#181818" points="1057.35,477.2594,1050.0275,470.6729,1052.5949,475.7136,1047.5543,478.281,1057.35,477.2594" style="stroke:#181818;stroke-width:1;"/></g><!--link sensors to sensorLdr--><g class="link" data-entity-1="ent0029" data-entity-2="ent0032" data-link-type="composition" data-source-line="78" id="lnk59"><path codeLine="78" d="M809.6526,413.6157 C775.3026,433.2557 745.8881,450.0701 713.7581,468.4501" fill="none" id="sensors-sensorLdr" style="stroke:#181818;stroke-width:1;"/><polygon fill="#181818" points="820.07,407.6594,812.8759,407.165,809.6526,413.6157,816.8467,414.11,820.07,407.6594" style="stroke:#181818;stroke-width:1;"/><polygon fill="#181818" points="708.55,471.4294,718.3483,470.4325,712.8901,468.9466,714.3759,463.4884,708.55,471.4294" style="stroke:#181818;stroke-width:1;"/></g><!--link sensors to sensorSht3X--><g class="link" data-entity-1="ent0029" data-entity-2="ent0033" data-link-type="composition" data-source-line="79" id="lnk60"><path codeLine="79" d="M901.1045,416.9258 C917.2645,436.5658 927.0097,448.4145 942.1197,466.7945" fill="none" id="sensors-sensorSht3X" style="stroke:#181818;stroke-width:1;"/><polygon fill="#181818" points="893.48,407.6594,894.2034,414.8341,901.1045,416.9258,900.3811,409.7511,893.48,407.6594" style="stroke:#181818;stroke-width:1;"/><polygon fill="#181818" points="945.93,471.4294,943.3045,461.9369,942.7548,467.567,937.1247,467.0173,945.93,471.4294" style="stroke:#181818;stroke-width:1;"/></g><!--link sensorBattery to iSensor--><g class="link" data-entity-1="ent0030" data-entity-2="ent0013" data-link-type="extension" data-source-line="80" id="lnk61"><path codeLine="80" d="M798.82,519.7794 C790.58,535.1694 780.36,556.0694 774,575.6094 C763.31,608.4394 759.4555,630.2377 756.5155,654.7277" fill="none" id="sensorBattery-to-iSensor" style="stroke:#181818;stroke-width:1;stroke-dasharray:7,7;"/><polygon fill="none" points="754.37,672.5994,762.4727,655.4429,750.5583,654.0125,754.37,672.5994" style="stroke:#181818;stroke-width:1;"/></g><!--link sensorDhtX to iSensor--><g class="link" data-entity-1="ent0031" data-entity-2="ent0013" data-link-type="extension" data-source-line="81" id="lnk62"><path codeLine="81" d="M1094.96,519.8294 C1082.16,536.2894 1062.66,557.2194 1040,567.6094 C1016.81,578.2394 832.37,570.6694 811,584.6094 C780.3,604.6494 769.2761,628.8401 762.0361,655.0301" fill="none" id="sensorDhtX-to-iSensor" style="stroke:#181818;stroke-width:1;stroke-dasharray:7,7;"/><polygon fill="none" points="757.24,672.3794,767.8192,656.6288,756.253,653.4314,757.24,672.3794" style="stroke:#181818;stroke-width:1;"/></g><!--link sensorLdr to iSensor--><g class="link" data-entity-1="ent0032" data-entity-2="ent0013" data-link-type="extension" data-source-line="82" id="lnk63"><path codeLine="82" d="M677.8,519.8294 C693.99,558.1694 719.1222,617.7053 735.2622,655.9553" fill="none" id="sensorLdr-to-iSensor" style="stroke:#181818;stroke-width:1;stroke-dasharray:7,7;"/><polygon fill="none" points="742.26,672.5394,740.7902,653.6227,729.7342,658.2879,742.26,672.5394" style="stroke:#181818;stroke-width:1;"/></g><!--link sensorSht3X to iSensor--><g class="link" data-entity-1="ent0033" data-entity-2="ent0013" data-link-type="extension" data-source-line="83" id="lnk64"><path codeLine="83" d="M946.44,519.9194 C932.56,535.7694 912.21,555.9094 890,567.6094 C858.23,584.3494 839.65,562.9594 811,584.6094 C782.1,606.4494 771.1484,629.4307 763.3084,654.9907" fill="none" id="sensorSht3X-to-iSensor" style="stroke:#181818;stroke-width:1;stroke-dasharray:7,7;"/><polygon fill="none" points="758.03,672.1994,769.0446,656.7502,757.5722,653.2312,758.03,672.1994" style="stroke:#181818;stroke-width:1;"/></g><!--link display to iDisplayDrv--><g class="link" data-entity-1="ent0066" data-entity-2="ent0008" data-link-type="dependency" data-source-line="92" id="lnk69"><path codeLine="92" d="M677.76,112.4294 C528.71,117.9594 6,142.2094 6,210.6094 C6,210.6094 6,210.6094 6,496.6094 C6,595.5494 119.97,548.2594 217,567.6094 C273.8,578.9394 289.17,573.4994 347,576.6094 C370.09,577.8494 534.97,573.0494 555,584.6094 C588.35,603.8494 606.1187,640.4209 615.7487,666.8909" fill="none" id="display-to-iDisplayDrv" style="stroke:#181818;stroke-width:1;stroke-dasharray:7,7;"/><polygon fill="#181818" points="617.8,672.5294,618.482,662.7042,616.0906,667.8307,610.9641,665.4392,617.8,672.5294" style="stroke:#181818;stroke-width:1;"/><text fill="#000000" font-family="sans-serif" font-size="13" lengthAdjust="spacing" textLength="35.4199" x="7" y="383.6045">&#171;use&#187;</text></g><!--link app to iBoard--><g class="link" data-entity-1="ent0068" data-entity-2="ent0007" data-link-type="dependency" data-source-line="93" id="lnk70"><path codeLine="93" d="M1140.07,113.5894 C1329.49,120.6494 1798,144.7694 1798,210.6094 C1798,210.6094 1798,210.6094 1798,496.6094 C1798,561.8194 1775.476,630.1825 1761.506,666.8525" fill="none" id="app-to-iBoard" style="stroke:#181818;stroke-width:1;stroke-dasharray:7,7;"/><polygon fill="#181818" points="1759.37,672.4594,1766.312,665.473,1761.15,667.787,1758.8361,662.625,1759.37,672.4594" style="stroke:#181818;stroke-width:1;"/><text fill="#000000" font-family="sans-serif" font-size="13" lengthAdjust="spacing" textLength="35.4199" x="1799" y="383.6045">&#171;use&#187;</text></g><!--link sensorDataProvider to sensors--><g class="link" data-entity-1="ent0067" data-entity-2="ent0029" data-link-type="dependency" data-source-line="94" id="lnk71"><path codeLine="94" d="M870,139.8294 C870,191.0094 870,291.4094 870,342.5094" fill="none" id="sensorDataProvider-to-sensors" style="stroke:#181818;stroke-width:1;stroke-dasharray:7,7;"/><polygon fill="#181818" points="870,348.5094,874,339.5094,870,343.5094,866,339.5094,870,348.5094" style="stroke:#181818;stroke-width:1;"/><text fill="#000000" font-family="sans-serif" font-size="13" lengthAdjust="spacing" textLength="35.4199" x="871" y="217.1045">&#171;use&#187;</text></g><?plantuml-src ZLPDQnin4BtxLmYVaa8CZIc5O0nE7Mg3ImpEeOTUvDs9LsHNkqYo4wVDVwzMNplIhajzqcZUQDzeteoic2g1hAZ8Nwa0ijXB9MYcMCt9Xfv1aAlLOdCz6ZKqUw4786Djagpc1YN7XChEshuSoE_HYEXVW7_VhXyDwj2msWA8-sKbbPACbuz7jMNSW7Axxa7MF23CCWKiE2thWyTGRndOXsN4k0BnJ3FDQNrVwtmDb9bb3x1aiYdfUIbE5jNP_REEIjKy88Cv07n_1u60pkm1Dv07b5tt8BkpL505L33xGE2o5WvbrXSWtmhAEPGOwRRizRcBZZnFvmPcJtCJ8rE7YUhjaidapppzW65ajyZDJUg-8xDP8-eJos4-7tqaKcHLKq85ND5MirQG1IsH51tphkRxTgKFbOmVIj3LqiTYO5JGVLJF0C6bt4ULT11KnBAheR_5g7moL2zkdHsKa2d8IMxLHtI-jWUilV9ffjqInFgBNscGflA3Ai7UhZqTQoQY_iS9g-F-wvS7sKnlxH55Q_z_-DEpSbisN0NR1t_qKcy5896ov62g0pXTM4uhaFeiS8Nj1TnJfVL_Hc5kPnY-BDHFX6tDOU0c5mYdhM7Ohb1JVA2nyJtmMW4Hx50eKZzRlOQJ5aw_zIlNDrc07hzLfQVrmsuxlIMvO2SGxGZi8k1D3-VoJ6eEGKeMfx_l94QLbZ4hSw9O1HCJ2ZmtH2mb-r7RlTtCjBkVsgQD6oLouFP03jGNQ5T6iypbsZh6dyTu4Dzrv6qoZgUduRd6j3oNuCNSB27dGfCtKFBJAw8uq4yEbuWywPfXKDGRVKYIOtilw4NiqZCEz9YwrDBjIFp66x-TdU3JJmM9NumogiPXo2TThNkzD-0ExJRWyoqsuEgQAauIFq1fZXTyRPONN3R9o8bVg4NJb2mpJvFzPz8qtHoBfoMUxFqNTqaLtTf748yOl7tvHKCiT9muiGoafzFIzKDXed_pkCTciwDinwX6UhVf_iupGCJWN4awu5y0?></g></svg>